<svg width="13" height="13" viewBox="0 0 13 13" fill="none" xmlns="http://www.w3.org/2000/svg">
<path d="M12.4395 10.3695L11.7697 1.9288C11.7281 1.38497 11.268 0.959137 10.7227 0.959137H9.39953V2.9196C9.39953 3.16238 9.20301 3.3589 8.96022 3.3589C8.71773 3.3589 8.52092 3.16238 8.52092 2.9196V0.959137H4.47938V2.9196C4.47938 3.16238 4.28257 3.3589 4.04008 3.3589C3.79729 3.3589 3.60077 3.16238 3.60077 2.9196V0.959137H2.27761C1.7323 0.959137 1.2722 1.38497 1.23062 1.92763L0.560546 10.3707C0.50872 11.0469 0.7433 11.7199 1.20396 12.2172C1.66466 12.7144 2.31774 13 2.99573 13H10.0046C10.6826 13 11.3357 12.7144 11.7964 12.2172C12.257 11.7199 12.4916 11.0469 12.4395 10.3695ZM8.47934 6.07109L6.20728 8.34315C6.12147 8.42896 6.009 8.472 5.89656 8.472C5.78409 8.472 5.67165 8.42896 5.58584 8.34315L4.52099 7.2783C4.34936 7.10668 4.34936 6.82874 4.52099 6.65712C4.69261 6.48549 4.97084 6.48549 5.14217 6.65712L5.89659 7.41125L7.85819 5.44965C8.02952 5.27832 8.30775 5.27832 8.47937 5.44965C8.65097 5.62127 8.65097 5.89947 8.47934 6.07109Z" fill="url(#paint0_linear_1_359)"/>
<defs>
<linearGradient id="paint0_linear_1_359" x1="12.4471" y1="12.9997" x2="0.407096" y2="1.10746" gradientUnits="userSpaceOnUse">
<stop stop-color="#FD3A84"/>
<stop offset="1" stop-color="#FFA68D"/>
</linearGradient>
</defs>
</svg>
