<svg width="50" height="50" viewBox="0 0 50 50" fill="none" xmlns="http://www.w3.org/2000/svg">
<g clip-path="url(#clip0_1_939)">
<path d="M25 50C38.8071 50 50 38.8071 50 25C50 11.1929 38.8071 0 25 0C11.1929 0 0 11.1929 0 25C0 38.8071 11.1929 50 25 50Z" fill="#FBF38F"/>
<path d="M43.9591 41.295C41.5874 44.0546 38.6419 46.2632 35.3283 47.7666C32.0147 49.2699 28.4128 50.0319 24.7743 49.9991C21.1357 49.9664 17.5481 49.1398 14.2621 47.577C10.9761 46.0143 8.0708 43.753 5.74915 40.9512C6.17634 37.772 7.39305 34.7503 9.28821 32.1622C9.57987 31.7637 9.88652 31.377 10.2081 31.002C11.903 29.0228 13.9808 27.4071 16.3165 26.252C16.672 26.0769 17.034 25.9122 17.4025 25.7579C17.6993 25.6335 17.9995 25.5167 18.3029 25.4073L18.5421 25.3233C18.9822 25.171 19.4298 25.0346 19.8849 24.9141C20.4963 24.7511 21.1156 24.6191 21.7404 24.5186L21.9601 24.4844C22.7085 24.3739 23.4627 24.3071 24.2189 24.2842C24.4239 24.2774 24.629 24.2745 24.8361 24.2745C25.7315 24.274 26.6259 24.3357 27.5128 24.459C27.7635 24.4942 28.0131 24.5339 28.2618 24.5782C29.2346 24.7528 30.1922 25.0029 31.1261 25.3262C31.6352 25.5014 32.1342 25.6967 32.6232 25.9122C32.6935 25.9434 32.7648 25.9747 32.8341 26.0098C33.1193 26.14 33.3999 26.2764 33.6759 26.419C34.4567 26.8225 35.2088 27.2794 35.9269 27.7862C37.4578 28.8681 38.8236 30.1665 39.9816 31.6407C40.0519 31.7315 40.1232 31.8233 40.1925 31.9151C42.2622 34.6478 43.5624 37.8849 43.9581 41.2901L43.9591 41.295Z" fill="#F2E35A"/>
<path d="M27.089 41.8507L24.8331 39.5948L22.5773 41.8507C22.5061 41.9217 22.4577 42.0123 22.438 42.1109C22.4184 42.2094 22.4284 42.3116 22.4669 42.4045C22.5054 42.4974 22.5706 42.5767 22.6542 42.6325C22.7378 42.6883 22.8361 42.718 22.9366 42.7179H26.7296C26.8301 42.718 26.9284 42.6883 27.012 42.6325C27.0957 42.5767 27.1608 42.4974 27.1993 42.4045C27.2378 42.3116 27.2479 42.2094 27.2282 42.1109C27.2086 42.0123 27.1601 41.9217 27.089 41.8507Z" fill="#415CA5"/>
<path d="M36.3009 24.5118C36.3009 29.7149 32.837 37.6046 28.089 40.2549C27.0568 40.8321 25.964 41.1612 24.8331 41.1612C18.4991 41.1612 13.3654 30.8448 13.3654 24.5118C13.3654 21.4703 14.5736 18.5535 16.7242 16.4028C18.8748 14.2522 21.7917 13.044 24.8331 13.044C27.8746 13.044 30.7915 14.2522 32.9421 16.4028C35.0927 18.5535 36.3009 21.4703 36.3009 24.5118Z" fill="#415CA5"/>
<path d="M36.3009 24.5117C36.3009 29.7148 32.837 37.6045 28.089 40.2549C23.34 37.5977 19.8771 29.71 19.8771 24.5117C19.8772 22.0381 20.6768 19.6307 22.1566 17.6486C23.6365 15.6665 25.7174 14.2157 28.089 13.5127C30.4607 14.2156 32.5417 15.6663 34.0215 17.6485C35.5014 19.6306 36.301 22.0381 36.3009 24.5117Z" fill="#5272B4"/>
<path d="M30.5244 27.4297C32.3388 27.4297 33.8096 25.2205 33.8096 22.4952C33.8096 19.7699 32.3388 17.5606 30.5244 17.5606C28.7101 17.5606 27.2393 19.7699 27.2393 22.4952C27.2393 25.2205 28.7101 27.4297 30.5244 27.4297Z" fill="#F5EEAB"/>
<path d="M30.5244 33.5527C31.369 33.5527 32.0537 32.5244 32.0537 31.2559C32.0537 29.9873 31.369 28.959 30.5244 28.959C29.6798 28.959 28.9951 29.9873 28.9951 31.2559C28.9951 32.5244 29.6798 33.5527 30.5244 33.5527Z" fill="#8CAAD8"/>
<path d="M14.6017 23.6797L15.5274 21.3546L17.8526 22.2764C17.926 22.3053 17.9891 22.3553 18.034 22.4201C18.0788 22.485 18.1034 22.5617 18.1046 22.6405C18.1057 22.7193 18.0834 22.7967 18.0405 22.8628C17.9975 22.9289 17.9359 22.9808 17.8634 23.0118L15.1339 24.1924C15.0614 24.2249 14.9808 24.2349 14.9026 24.2212C14.8243 24.2075 14.752 24.1708 14.6948 24.1157C14.6376 24.0606 14.5981 23.9896 14.5815 23.912C14.565 23.8343 14.572 23.7534 14.6017 23.6797Z" fill="#B7177D"/>
<path d="M2.57818 14.0625C4.19927 17.8076 9.14361 22.4082 13.3848 22.8389C14.2759 22.9471 15.1799 22.823 16.0088 22.4785C20.5665 20.5078 21.0528 11.4873 19.0831 6.93361C18.6262 5.83337 17.9552 4.8349 17.1091 3.99622C16.263 3.15755 15.2587 2.4954 14.1545 2.04826C13.0502 1.60112 11.8681 1.3779 10.6769 1.39158C9.48566 1.40527 8.30901 1.65557 7.21534 2.12796C6.12167 2.60034 5.1328 3.28538 4.30619 4.14327C3.47958 5.00115 2.83171 6.01477 2.40025 7.12522C1.96879 8.23567 1.76233 9.4208 1.79287 10.6117C1.82342 11.8027 2.09036 12.9756 2.57818 14.0625Z" fill="#DF9FC2"/>
<path d="M2.57818 14.0625C4.19927 17.8077 9.14361 22.4082 13.3848 22.8389C15.9766 19.4551 16.0157 12.6953 14.3965 8.95511C13.627 7.17527 12.3029 5.69178 10.6215 4.7258C8.94017 3.75983 6.99166 3.3631 5.06646 3.59476C3.57857 4.83807 2.5324 6.52901 2.08399 8.41543C1.63557 10.3018 1.80892 12.2827 2.57818 14.0625Z" fill="#E9C3D9"/>
<path d="M7.64873 14.3702C8.95435 13.8056 9.32522 11.7581 8.4771 9.79692C7.62898 7.83577 5.88303 6.70367 4.57741 7.2683C3.27179 7.83293 2.90092 9.88047 3.74904 11.8416C4.59716 13.8028 6.34312 14.9349 7.64873 14.3702Z" fill="white"/>
<path d="M9.55353 18.7761C10.1615 18.5131 10.3343 17.5599 9.9395 16.6469C9.54467 15.7339 8.73171 15.2069 8.12371 15.4698C7.51571 15.7328 7.3429 16.686 7.73774 17.599C8.13257 18.512 8.94553 19.039 9.55353 18.7761Z" fill="#D378AB"/>
<path d="M35.4357 23.6798L34.5138 21.3546L32.1886 22.2764C32.1153 22.3053 32.0521 22.3553 32.0073 22.4201C31.9624 22.485 31.9378 22.5617 31.9367 22.6405C31.9355 22.7193 31.9579 22.7967 32.0008 22.8628C32.0438 22.9289 32.1054 22.9808 32.1779 23.0118L34.9074 24.1924C34.9797 24.2237 35.0597 24.2328 35.1372 24.2186C35.2147 24.2043 35.2863 24.1675 35.3428 24.1126C35.3994 24.0577 35.4384 23.9873 35.4549 23.9103C35.4714 23.8332 35.4648 23.753 35.4357 23.6798Z" fill="#B7177D"/>
<path d="M47.4609 14.0626C45.8428 17.8067 40.8955 22.4073 36.6543 22.838C35.7632 22.9462 34.8592 22.8221 34.0303 22.4776C29.4707 20.5079 28.9844 11.4874 30.957 6.93369C31.4113 5.8298 32.0809 4.82743 32.9267 3.98508C33.7726 3.14272 34.7777 2.47725 35.8834 2.02748C36.9892 1.57771 38.1734 1.35266 39.3671 1.36545C40.5607 1.37824 41.7399 1.62861 42.8357 2.10197C43.9316 2.57533 44.9222 3.26219 45.7498 4.12247C46.5773 4.98276 47.2253 5.99924 47.6559 7.11262C48.0864 8.22599 48.2909 9.41396 48.2574 10.6072C48.224 11.8005 47.9532 12.9751 47.4609 14.0626Z" fill="#AC3030"/>
<path d="M47.4609 14.0626C45.8428 17.8067 40.8955 22.4073 36.6543 22.838C34.0605 19.4552 34.0224 12.6954 35.6445 8.95516C36.4139 7.17601 37.7374 5.69302 39.4179 4.7271C41.0985 3.76118 43.0461 3.36403 44.9707 3.5948C46.4589 4.83786 47.5055 6.52869 47.9542 8.41513C48.403 10.3016 48.23 12.2825 47.4609 14.0626Z" fill="#CF4849"/>
<path d="M46.3038 11.842C47.1519 9.88084 46.781 7.8333 45.4754 7.26867C44.1698 6.70404 42.4238 7.83614 41.5757 9.79729C40.7276 11.7584 41.0985 13.806 42.4041 14.3706C43.7097 14.9352 45.4556 13.8031 46.3038 11.842Z" fill="#D88084"/>
<path d="M42.3151 17.6013C42.7099 16.6883 42.5371 15.735 41.9291 15.4721C41.3211 15.2092 40.5082 15.7361 40.1133 16.6491C39.7185 17.5621 39.8913 18.5154 40.4993 18.7783C41.1073 19.0413 41.9203 18.5143 42.3151 17.6013Z" fill="#D378AB"/>
<path d="M32.9103 34.8301C32.7987 34.7724 32.6703 34.7562 32.5479 34.7845C32.4256 34.8127 32.3172 34.8836 32.2423 34.9844L26.2325 44.0176L31.1036 27.8818C31.173 27.6543 31.0177 27.4199 30.7569 27.3603C30.6375 27.3275 30.5102 27.3405 30.3998 27.3967C30.2894 27.4529 30.204 27.5482 30.1603 27.6641L25.3214 43.6797V28.2676C25.3214 28.0322 25.1026 27.8408 24.8331 27.8408C24.5636 27.8408 24.3448 28.0361 24.3448 28.2676V43.9131L18.1642 24.9912C18.1178 24.8762 18.0304 24.7826 17.9188 24.7285C17.8073 24.6743 17.6797 24.6636 17.5606 24.6982C17.3019 24.7627 17.1515 24.999 17.2257 25.2256L23.2032 43.5273L17.7667 34.9912C17.6937 34.8892 17.5868 34.8166 17.4651 34.7864C17.3434 34.7561 17.2149 34.7702 17.1026 34.8262C17.0488 34.848 17.0004 34.8814 16.9608 34.9239C16.9212 34.9664 16.8913 35.017 16.8733 35.0722C16.8552 35.1275 16.8494 35.186 16.8563 35.2436C16.8632 35.3013 16.8826 35.3568 16.9132 35.4062L24.4064 47.168C24.4089 47.1711 24.4111 47.1743 24.4132 47.1777L24.4298 47.1992C24.437 47.2085 24.4449 47.2173 24.4532 47.2256L24.463 47.2373L24.4698 47.2432C24.4788 47.2518 24.4883 47.26 24.4981 47.2676L24.5196 47.2842L24.5284 47.291L24.548 47.3018L24.5704 47.3154L24.5968 47.3281L24.6153 47.3359L24.631 47.3428C24.6456 47.3486 24.6612 47.3525 24.6769 47.3574L24.6944 47.3623L24.7315 47.3682H24.756H24.7608H24.8194H24.8253C24.8442 47.3692 24.8631 47.3692 24.8819 47.3682H24.8917H24.9151L24.9425 47.3633L24.963 47.3574L25.0001 47.3633L25.0245 47.3555L25.046 47.3467L25.0655 47.3379L25.0899 47.3252L25.1114 47.3125L25.1271 47.3037C25.1349 47.2988 25.1427 47.292 25.1505 47.2861L25.1671 47.2734L25.1788 47.2627L25.1954 47.2471C25.2023 47.2402 25.2101 47.2334 25.2159 47.2266L25.2237 47.2158L25.2394 47.1953C25.2432 47.191 25.2468 47.1864 25.2501 47.1816L33.0772 35.417C33.1097 35.3688 33.1312 35.3141 33.1403 35.2567C33.1494 35.1993 33.1459 35.1406 33.13 35.0848C33.1141 35.0289 33.0862 34.9771 33.0482 34.9332C33.0103 34.8892 32.9632 34.854 32.9103 34.8301Z" fill="white"/>
<path d="M15.3447 37.7354L16.4062 35.0587L19.081 36.1182C19.1653 36.1516 19.2379 36.2092 19.2895 36.2838C19.341 36.3584 19.3693 36.4466 19.3706 36.5373C19.372 36.628 19.3464 36.7171 19.2971 36.7932C19.2478 36.8693 19.177 36.9291 19.0937 36.9649L15.954 38.3214C15.8711 38.3574 15.7794 38.368 15.6905 38.352C15.6015 38.336 15.5193 38.2941 15.4542 38.2314C15.389 38.1688 15.3438 38.0882 15.3244 38C15.3049 37.9117 15.312 37.8197 15.3447 37.7354Z" fill="#B7177D"/>
<path d="M1.51763 26.6768C3.37896 30.9825 9.06743 36.2735 13.9454 36.7686C15.0049 36.877 16.0274 36.7579 16.9629 36.3536C22.2051 34.088 22.7637 23.7139 20.4981 18.4727C19.9656 17.2175 19.19 16.0799 18.216 15.1257C17.242 14.1714 16.0889 13.4192 14.823 12.9124C13.5571 12.4056 12.2035 12.1542 10.8401 12.1727C9.47666 12.1912 8.13035 12.4792 6.87869 13.0202C5.62703 13.5611 4.49474 14.3443 3.54701 15.3247C2.59928 16.305 1.85484 17.4632 1.35655 18.7324C0.858259 20.0017 0.61596 21.357 0.643605 22.7202C0.67125 24.0835 0.968293 25.4278 1.51763 26.6758V26.6768Z" fill="#B7177D"/>
<path d="M1.51762 26.6768C3.37895 30.9824 9.06743 36.2734 13.9454 36.7686C16.9258 32.876 16.9727 25.1074 15.1094 20.8018C14.2243 18.7548 12.7014 17.0487 10.7677 15.9377C8.83405 14.8267 6.59311 14.3704 4.37895 14.6367C2.66781 16.067 1.46474 18.0119 0.949108 20.1816C0.433472 22.3514 0.632888 24.6296 1.51762 26.6768Z" fill="#CD458F"/>
<path d="M7.35035 27.0313C8.85203 26.3819 9.27857 24.0268 8.30305 21.771C7.32752 19.5153 5.31935 18.2131 3.81767 18.8625C2.31599 19.5119 1.88945 21.867 2.86497 24.1228C3.8405 26.3785 5.84867 27.6807 7.35035 27.0313Z" fill="#D378AB"/>
<path d="M9.54228 32.0976C10.2414 31.7953 10.44 30.6989 9.98581 29.6488C9.53167 28.5986 8.59678 27.9924 7.89767 28.2947C7.19857 28.5971 6.99999 29.6935 7.45414 30.7436C7.90828 31.7938 8.84318 32.4 9.54228 32.0976Z" fill="#D378AB"/>
<path d="M34.6553 37.7354L33.5938 35.0587L30.919 36.1182C30.8346 36.1516 30.7621 36.2092 30.7105 36.2838C30.6589 36.3584 30.6307 36.4466 30.6293 36.5373C30.628 36.628 30.6536 36.7171 30.7029 36.7932C30.7522 36.8693 30.823 36.9291 30.9063 36.9649L34.0459 38.3214C34.1288 38.3574 34.2205 38.368 34.3095 38.352C34.3984 38.336 34.4807 38.2941 34.5458 38.2314C34.611 38.1688 34.6561 38.0882 34.6756 38C34.6951 37.9117 34.688 37.8197 34.6553 37.7354Z" fill="#77BBA8"/>
<path d="M48.4824 26.6768C46.6211 30.9825 40.9326 36.2735 36.0547 36.7686C34.9951 36.877 33.9727 36.7579 33.0371 36.3536C27.7949 34.088 27.2363 23.7139 29.502 18.4727C30.0345 17.2175 30.8101 16.0799 31.7841 15.1257C32.758 14.1714 33.9112 13.4192 35.177 12.9124C36.4429 12.4056 37.7965 12.1542 39.16 12.1727C40.5234 12.1912 41.8697 12.4792 43.1214 13.0202C44.373 13.5611 45.5053 14.3443 46.453 15.3247C47.4008 16.305 48.1452 17.4632 48.6435 18.7324C49.1418 20.0017 49.3841 21.357 49.3564 22.7202C49.3288 24.0835 49.0317 25.4278 48.4824 26.6758V26.6768Z" fill="#1ABA8D"/>
<path d="M48.4825 26.6768C46.6212 30.9824 40.9327 36.2734 36.0548 36.7686C33.0743 32.876 33.0274 25.1074 34.8907 20.8018C35.7758 18.7548 37.2987 17.0487 39.2324 15.9377C41.1661 14.8267 43.407 14.3704 45.6212 14.6367C47.3323 16.067 48.5354 18.0119 49.051 20.1816C49.5666 22.3514 49.3672 24.6296 48.4825 26.6768Z" fill="#38EDB5"/>
<path d="M47.1535 24.1246C48.129 21.8688 47.7025 19.5137 46.2008 18.8643C44.6991 18.2149 42.691 19.517 41.7154 21.7728C40.7399 24.0285 41.1665 26.3836 42.6681 27.0331C44.1698 27.6825 46.178 26.3803 47.1535 24.1246Z" fill="#BCDCD4"/>
<path d="M42.5659 30.7482C43.02 29.6981 42.8215 28.6017 42.1224 28.2993C41.4233 27.997 40.4884 28.6032 40.0342 29.6534C39.5801 30.7035 39.7786 31.7999 40.4778 32.1022C41.1769 32.4046 42.1118 31.7984 42.5659 30.7482Z" fill="#BCDCD4"/>
<path d="M27.089 29.4786L24.8331 27.2227L22.5773 29.4786C22.5061 29.5496 22.4577 29.6401 22.438 29.7387C22.4184 29.8373 22.4284 29.9395 22.4669 30.0324C22.5054 30.1252 22.5706 30.2046 22.6542 30.2604C22.7378 30.3162 22.8361 30.3459 22.9366 30.3458H26.7296C26.8301 30.3459 26.9284 30.3162 27.012 30.2604C27.0957 30.2046 27.1608 30.1252 27.1993 30.0324C27.2378 29.9395 27.2479 29.8373 27.2282 29.7387C27.2086 29.6401 27.1601 29.5496 27.089 29.4786Z" fill="#D6C93F"/>
<path d="M36.3009 12.1348C36.3009 17.3379 32.837 25.2276 28.089 27.878C27.0568 28.4551 25.964 28.7842 24.8331 28.7842C18.4991 28.7842 13.3654 18.4678 13.3654 12.1348C13.3654 9.09338 14.5736 6.17651 16.7242 4.02589C18.8748 1.87526 21.7917 0.667053 24.8331 0.667053C27.8746 0.667053 30.7915 1.87526 32.9421 4.02589C35.0927 6.17651 36.3009 9.09338 36.3009 12.1348Z" fill="#D6C93F"/>
<path d="M36.3009 12.1348C36.3009 17.3379 32.837 25.2275 28.089 27.8779C23.34 25.2275 19.8771 17.3379 19.8771 12.1348C19.8772 9.66114 20.6768 7.25379 22.1566 5.27166C23.6365 3.28954 25.7174 1.83879 28.089 1.13574C30.4607 1.83865 32.5417 3.28936 34.0215 5.27152C35.5014 7.25368 36.301 9.6611 36.3009 12.1348Z" fill="#F6EA49"/>
<path d="M30.5244 15.0576C32.3388 15.0576 33.8096 12.8483 33.8096 10.123C33.8096 7.39776 32.3388 5.18848 30.5244 5.18848C28.7101 5.18848 27.2393 7.39776 27.2393 10.123C27.2393 12.8483 28.7101 15.0576 30.5244 15.0576Z" fill="#F5EEAB"/>
<path d="M30.5244 21.1807C31.369 21.1807 32.0537 20.1524 32.0537 18.8838C32.0537 17.6153 31.369 16.587 30.5244 16.587C29.6798 16.587 28.9951 17.6153 28.9951 18.8838C28.9951 20.1524 29.6798 21.1807 30.5244 21.1807Z" fill="#F5EEAB"/>
<path d="M24.9238 42.1982C24.9238 40.1103 23.1992 39.4911 22.374 39.3144C22.0968 39.2249 21.7985 39.2242 21.5209 39.3126C21.2432 39.4009 21.0002 39.5738 20.8256 39.8071C20.6511 40.0404 20.5538 40.3223 20.5475 40.6136C20.5411 40.9049 20.6259 41.1909 20.79 41.4316C20.9042 41.6025 20.9646 41.8036 20.9636 42.0091C20.9626 42.2147 20.9001 42.4152 20.7842 42.5849C20.6289 42.8158 20.5466 43.0879 20.5478 43.3661C20.5478 44.1474 21.2226 44.7685 22.0039 44.7597C25.0195 44.7265 24.9238 42.1982 24.9238 42.1982Z" fill="#AC3030"/>
<path d="M24.7421 42.1474C24.7421 40.6034 23.4667 40.1454 22.8564 40.0146C22.7077 39.9666 22.5502 39.9529 22.3955 39.9746C22.2408 39.9962 22.093 40.0526 21.9632 40.1395C21.8335 40.2265 21.7251 40.3416 21.6462 40.4765C21.5673 40.6113 21.52 40.7622 21.5078 40.9179C21.4895 41.1526 21.5518 41.3865 21.6845 41.581C21.7695 41.7069 21.815 41.8553 21.815 42.0073C21.815 42.1592 21.7695 42.3076 21.6845 42.4335C21.5695 42.6047 21.5083 42.8064 21.5087 43.0126C21.5157 43.2913 21.6324 43.556 21.8337 43.749C22.0349 43.942 22.3042 44.0476 22.583 44.0429C24.8124 44.0195 24.7421 42.1474 24.7421 42.1474Z" fill="#CF4849"/>
<path d="M24.7422 42.1984C24.7422 40.1105 26.4668 39.4914 27.291 39.3146C27.5683 39.2248 27.8668 39.2239 28.1446 39.3121C28.4224 39.4003 28.6657 39.5732 28.8404 39.8066C29.0151 40.0399 29.1124 40.322 29.1188 40.6135C29.1252 40.9049 29.0403 41.191 28.876 41.4318C28.7618 41.6027 28.7013 41.8038 28.7024 42.0094C28.7034 42.2149 28.7659 42.4154 28.8818 42.5851C29.0371 42.816 29.1194 43.0882 29.1181 43.3664C29.1181 44.1476 28.4433 44.7687 27.6611 44.7599C24.6465 44.7267 24.7422 42.1984 24.7422 42.1984Z" fill="#AC3030"/>
<path d="M24.924 42.1476C24.924 40.6037 26.1993 40.1456 26.8097 40.0148C26.9583 39.9668 27.1158 39.9531 27.2704 39.9748C27.4251 39.9964 27.5728 40.0528 27.7025 40.1397C27.8322 40.2267 27.9405 40.3419 28.0193 40.4767C28.0981 40.6115 28.1453 40.7624 28.1573 40.9181C28.176 41.1527 28.114 41.3866 27.9816 41.5812C27.8966 41.7071 27.8511 41.8556 27.8511 42.0075C27.8511 42.1594 27.8966 42.3078 27.9816 42.4337C28.0966 42.6049 28.1578 42.8066 28.1573 43.0128C28.1504 43.2916 28.0336 43.5562 27.8324 43.7492C27.6312 43.9422 27.3619 44.0478 27.0831 44.0431C24.8536 44.0197 24.924 42.1476 24.924 42.1476Z" fill="#CF4849"/>
<path d="M24.9238 42.1476L22.2959 49.3868C22.2876 49.4062 22.2859 49.4278 22.2909 49.4482C22.2959 49.4687 22.3074 49.487 22.3236 49.5004C22.3399 49.5138 22.36 49.5216 22.3811 49.5226C22.4021 49.5236 22.4229 49.5178 22.4404 49.506L23.0703 49.1329C23.2033 49.054 23.3615 49.0289 23.5124 49.0628C23.6633 49.0968 23.7955 49.1872 23.8818 49.3156L23.9531 49.422C23.9638 49.4401 23.98 49.4543 23.9994 49.4624C24.0188 49.4705 24.0402 49.4722 24.0606 49.4672C24.081 49.4621 24.0993 49.4506 24.1126 49.4344C24.126 49.4182 24.1337 49.3981 24.1347 49.3771L24.9238 42.1476Z" fill="#AC3030"/>
<path d="M24.7715 42.1476L27.4004 49.3868C27.4086 49.4062 27.4104 49.4278 27.4054 49.4482C27.4004 49.4687 27.3889 49.487 27.3726 49.5004C27.3564 49.5138 27.3362 49.5216 27.3152 49.5226C27.2941 49.5236 27.2733 49.5178 27.2558 49.506L26.626 49.1329C26.493 49.054 26.3348 49.0289 26.1839 49.0628C26.033 49.0968 25.9008 49.1872 25.8144 49.3156L25.7422 49.422C25.7315 49.4401 25.7153 49.4543 25.6959 49.4624C25.6765 49.4705 25.655 49.4722 25.6346 49.4672C25.6142 49.4621 25.596 49.4506 25.5827 49.4344C25.5693 49.4182 25.5616 49.3981 25.5605 49.3771L24.7715 42.1476Z" fill="#AC3030"/>
<path d="M26.0888 42.1983C26.0886 42.4896 25.9792 42.7702 25.7823 42.9847C25.5853 43.1993 25.3151 43.3322 25.025 43.3573C24.7348 43.3824 24.4458 43.2978 24.2149 43.1202C23.9841 42.9427 23.8282 42.685 23.778 42.3981C23.7279 42.1112 23.7871 41.8159 23.9439 41.5706C24.1008 41.3252 24.344 41.1475 24.6254 41.0726C24.9069 40.9978 25.2062 41.0311 25.4642 41.1661C25.7223 41.3011 25.9204 41.5279 26.0194 41.8018C26.0654 41.929 26.0888 42.0631 26.0888 42.1983Z" fill="#AC3030"/>
<path d="M26.0195 41.8018C25.9379 42.027 25.7889 42.2216 25.5927 42.3591C25.3966 42.4966 25.1629 42.5704 24.9233 42.5704C24.6838 42.5704 24.4501 42.4966 24.2539 42.3591C24.0578 42.2216 23.9088 42.027 23.8271 41.8018C23.9088 41.5766 24.0578 41.3821 24.2539 41.2446C24.4501 41.107 24.6838 41.0333 24.9233 41.0333C25.1629 41.0333 25.3966 41.107 25.5927 41.2446C25.7889 41.3821 25.9379 41.5766 26.0195 41.8018Z" fill="#D67178"/>
</g>
<defs>
<clipPath id="clip0_1_939">
<rect width="50" height="50" fill="white"/>
</clipPath>
</defs>
</svg>
