<svg width="15" height="22" viewBox="0 0 15 22" fill="none" xmlns="http://www.w3.org/2000/svg">
<g clip-path="url(#clip0_234_64)">
<path d="M21.1406 20.2808H3.4375V15.6312C3.81163 15.802 4.22755 15.898 4.6658 15.898C5.49933 15.898 6.25246 15.5526 6.78906 14.9992C7.32567 15.5526 8.0788 15.898 8.91232 15.898C9.72739 15.898 10.4659 15.5682 11 15.0363C11.5339 15.5682 12.2726 15.898 13.0877 15.898C13.921 15.898 14.6743 15.5526 15.2109 14.9992C15.7474 15.5526 16.5007 15.898 17.3342 15.898C17.7724 15.898 18.1884 15.802 18.5625 15.6312V17.4019C18.5625 17.8766 18.9472 18.2613 19.4219 18.2613C19.8965 18.2613 20.2813 17.8766 20.2813 17.4019V12.5465C20.2813 10.651 18.7391 9.10897 16.8438 9.10897H11.8164V6.77875C12.828 6.42829 13.5781 5.4531 13.5781 4.33944C13.5781 3.56734 13.2208 3.045 12.9056 2.58426C12.5747 2.10053 12.2891 1.68276 12.2891 0.858967C12.2891 0.530491 12.1019 0.230885 11.8067 0.0867043C11.5116 -0.057476 11.16 -0.0205498 10.9011 0.18137C10.8763 0.20084 10.2845 0.665104 9.69533 1.37224C8.85022 2.3862 8.42188 3.38456 8.42188 4.33944C8.42188 5.4437 9.11978 6.38767 10.0977 6.75425V9.10897H5.15625C3.26076 9.10897 1.71875 10.651 1.71875 12.5465V20.2808H0.859375C0.384705 20.2808 0 20.6655 0 21.1402C0 21.6149 0.384705 21.9996 0.859375 21.9996H21.1406C21.6153 21.9996 22 21.6149 22 21.1402C22 20.6655 21.6151 20.2808 21.1406 20.2808ZM10.9199 2.58745C11.0945 2.98072 11.3063 3.29039 11.4871 3.55458C11.7385 3.92217 11.8594 4.10915 11.8594 4.33944C11.8594 4.78927 11.4497 5.19881 11 5.19881C10.5262 5.19881 10.1406 4.81344 10.1406 4.33944C10.1406 3.74744 10.5028 3.11348 10.9199 2.58745ZM3.4375 12.5465C3.4375 11.5988 4.20859 10.8277 5.15625 10.8277H16.8438C17.7914 10.8277 18.5625 11.5988 18.5625 12.5465V12.9762C18.5625 13.6395 18.0115 14.1793 17.3342 14.1793C16.6569 14.1793 16.1061 13.6395 16.1061 12.9762C16.1061 12.5015 15.7212 12.1168 15.2467 12.1168C15.2346 12.1168 15.2229 12.1181 15.2109 12.1186C15.199 12.1181 15.1873 12.1168 15.1752 12.1168C14.7005 12.1168 14.3158 12.5015 14.3158 12.9762C14.3158 13.6395 13.7648 14.1793 13.0877 14.1793C12.4104 14.1793 11.8594 13.6395 11.8594 12.9762C11.8594 12.5015 11.4747 12.1168 11 12.1168C10.5253 12.1168 10.1406 12.5015 10.1406 12.9762C10.1406 13.6395 9.58959 14.1793 8.91232 14.1793C8.23506 14.1793 7.68419 13.6395 7.68419 12.9762C7.68419 12.5015 7.29932 12.1168 6.82481 12.1168C6.81273 12.1168 6.80098 12.1181 6.78906 12.1186C6.77715 12.1181 6.7654 12.1168 6.75331 12.1168C6.27864 12.1168 5.89394 12.5015 5.89394 12.9762C5.89394 13.6395 5.34306 14.1793 4.6658 14.1793C3.98854 14.1793 3.4375 13.6395 3.4375 12.9762V12.5465Z" fill="url(#paint0_linear_234_64)"/>
</g>
<defs>
<linearGradient id="paint0_linear_234_64" x1="22.0008" y1="21.999" x2="0.000769478" y2="-0.000950202" gradientUnits="userSpaceOnUse">
<stop stop-color="#FD3A84"/>
<stop offset="1" stop-color="#FFA68D"/>
</linearGradient>
<clipPath id="clip0_234_64">
<rect width="22" height="22" fill="white"/>
</clipPath>
</defs>
</svg>
