<svg width="24" height="24" viewBox="0 0 24 24" fill="none" xmlns="http://www.w3.org/2000/svg">
<path d="M15.5471 1.86155L15.5471 1.86154L15.548 1.85821C15.5747 1.7576 15.6441 1.4957 15.8896 1.33855C16.8494 0.651412 18.2078 0.785417 19.0743 1.65189L19.0036 1.7226L19.0743 1.65189C19.1775 1.75509 19.271 1.86548 19.3545 1.98251C20.051 1.94906 20.7451 2.21517 21.2649 2.73492C21.7846 3.25467 22.0508 3.94878 22.0173 4.64532C22.1343 4.72872 22.2447 4.82223 22.3479 4.92543C23.2144 5.79195 23.3484 7.15043 22.6612 8.11018C22.504 8.35564 22.2421 8.42509 22.1414 8.45176L22.1382 8.45261M15.5471 1.86155L19.1398 9.08135C20.0081 8.87209 22.0569 8.37078 22.1125 8.35598L22.1382 8.45263L22.1382 8.45261M15.5471 1.86155C15.532 1.91845 15.032 3.96196 14.8222 4.83235C14.2786 4.68096 13.7112 4.60256 13.1319 4.60256C11.4585 4.60256 9.88483 5.25441 8.70161 6.43767L6.43623 8.70305C5.25301 9.88627 4.60112 11.46 4.60116 13.1333C4.60116 13.7126 4.67956 14.2801 4.83095 14.8236C3.96058 15.0334 1.91706 15.5334 1.86015 15.5485L1.86012 15.5485L1.85665 15.5494C1.75594 15.5762 1.49414 15.6457 1.33706 15.8911C0.649925 16.8508 0.783981 18.2092 1.65049 19.0757L1.7212 19.005L1.65049 19.0757C1.75369 19.1789 1.86408 19.2724 1.98111 19.3559C1.94762 20.0524 2.21377 20.7465 2.73352 21.2662C3.25327 21.786 3.94743 22.0521 4.64392 22.0187C4.72733 22.1357 4.82084 22.2461 4.92403 22.3493C5.41988 22.8451 6.07579 23.1006 6.72574 23.1006C7.21297 23.1006 7.69767 22.957 8.10876 22.6626C8.3542 22.5055 8.42366 22.2436 8.45035 22.143L8.45123 22.1396L8.35458 22.114L8.45123 22.1396C8.46634 22.0827 8.96638 20.0392 9.17616 19.1688M15.5471 1.86155L9.17616 19.1688M22.1382 8.45261C22.0813 8.46777 20.0377 8.96779 19.1674 9.17755C19.3188 9.72111 19.3972 10.2885 19.3972 10.8679C19.3972 12.5412 18.7453 14.1149 17.5621 15.2981L15.2967 17.5635C14.1135 18.7468 12.5398 19.3986 10.8665 19.3986C10.2871 19.3986 9.71971 19.3202 9.17616 19.1688M22.1382 8.45261L9.17616 19.1688M7.48933 9.75611L9.57239 7.67304V17.7329C8.79269 17.5148 8.0779 17.099 7.48933 16.5104C6.58712 15.6082 6.09048 14.4092 6.09048 13.1333C6.09048 11.8573 6.58717 10.6583 7.48933 9.75611ZM5.51118 20.3638L5.47691 20.2769L5.38787 20.3052L4.81382 20.4876L4.8138 20.4876C4.47022 20.5969 4.06573 20.4921 3.78671 20.2131C3.50769 19.9341 3.40299 19.5296 3.51222 19.186L3.41692 19.1557L3.51222 19.186L3.69466 18.6119L3.72296 18.5229L3.63604 18.4886L3.07572 18.2677C2.9367 18.2128 2.81161 18.1306 2.70369 18.0226L2.70368 18.0226C2.39895 17.7179 2.31111 17.2814 2.45137 16.9341C2.95066 16.8087 4.08479 16.5343 5.40956 16.2162C5.68585 16.7036 6.02951 17.1567 6.43627 17.5635L6.50699 17.4928L6.43628 17.5635C6.84304 17.9703 7.29621 18.3139 7.78358 18.5903C7.46552 19.9151 7.19114 21.0492 7.06572 21.5484C6.71842 21.6887 6.28186 21.6009 5.97717 21.2962C5.8692 21.1882 5.78693 21.0631 5.73213 20.9241L5.6391 20.9608L5.73213 20.9241L5.51118 20.3638ZM18.4873 3.63739L18.5215 3.72431L18.6106 3.69601L19.1846 3.51357C19.5282 3.40438 19.9327 3.50905 20.2118 3.78806C20.4908 4.06708 20.5955 4.47161 20.4862 4.81516L20.5815 4.84546L20.4862 4.81517L20.3038 5.38922L20.2755 5.47827L20.3624 5.51254L20.9227 5.73348C21.0618 5.78832 21.1869 5.87056 21.2948 5.97852L21.3655 5.90782L21.2948 5.97853C21.5995 6.28325 21.6873 6.71977 21.547 7.06711C21.0477 7.19254 19.9137 7.46688 18.5889 7.78498C18.3126 7.29756 17.9689 6.84439 17.5621 6.43763C17.1554 6.03086 16.7022 5.68723 16.2148 5.41092C16.5329 4.08614 16.8073 2.95201 16.9327 2.45272C17.28 2.31246 17.7166 2.40031 18.0213 2.705C18.1293 2.81297 18.2115 2.93806 18.2663 3.07705L18.4873 3.63739ZM11.0618 17.9052V6.56126C11.6421 6.28173 12.2774 6.12234 12.9367 6.09603V17.4399C12.3563 17.7194 11.7211 17.8789 11.0618 17.9052ZM16.5091 14.2451L14.426 16.3281V6.2683C15.2058 6.48636 15.9205 6.90215 16.5091 7.49073C17.4113 8.39294 17.9079 9.59197 17.9079 10.8679C17.9079 12.1438 17.4112 13.3429 16.5091 14.2451Z" fill="url(#paint0_linear_234_20)" stroke="url(#paint1_linear_234_20)" stroke-width="0.2"/>
<defs>
<linearGradient id="paint0_linear_234_20" x1="23" y1="23" x2="1" y2="1" gradientUnits="userSpaceOnUse">
<stop stop-color="#FD3A84"/>
<stop offset="1" stop-color="#FFA68D"/>
</linearGradient>
<linearGradient id="paint1_linear_234_20" x1="11.9992" y1="23.0006" x2="11.9992" y2="1.00061" gradientUnits="userSpaceOnUse">
<stop stop-color="#FD3A84"/>
<stop offset="1" stop-color="#FFA68D"/>
</linearGradient>
</defs>
</svg>
