<svg width="50" height="50" viewBox="0 0 50 50" fill="none" xmlns="http://www.w3.org/2000/svg">
<g clip-path="url(#clip0_1_702)">
<path d="M25 50C38.8071 50 50 38.8071 50 25C50 11.1929 38.8071 0 25 0C11.1929 0 0 11.1929 0 25C0 38.8071 11.1929 50 25 50Z" fill="#CF77AA"/>
<path d="M45.0333 13.8028C45.035 17.2788 44.1326 20.6955 42.4149 23.7174C40.6971 26.7392 38.223 29.2624 35.2354 31.0392C34.5361 31.457 33.8118 31.8314 33.0665 32.1603C32.5176 32.4025 31.9558 32.6206 31.3809 32.8146L31.1612 32.8869C30.8682 32.9819 30.5717 33.0705 30.2716 33.1525C28.6475 33.5948 26.9742 33.8311 25.2911 33.8556C25.1866 33.8556 25.0811 33.8556 24.9757 33.8556C24.4548 33.8556 23.9415 33.8361 23.4356 33.797C21.9035 33.6817 20.3899 33.3897 18.9249 32.9269C18.5564 32.8097 18.1931 32.6831 17.835 32.547C17.2803 32.3348 16.738 32.0998 16.2081 31.842L16.0128 31.7443C15.6957 31.5861 15.3839 31.4194 15.0772 31.2443C11.3547 29.1263 8.40643 25.8741 6.66279 21.9622C4.91916 18.0502 4.47139 13.6835 5.38483 9.4991C7.71985 6.54418 10.6923 4.15501 14.0802 2.51001C17.4681 0.865013 21.1838 0.00670724 24.9499 -0.000804753C28.7161 -0.00831675 32.4352 0.835159 35.8296 2.46663C39.2241 4.0981 42.206 6.47539 44.5528 9.42097C44.873 10.8596 45.0341 12.329 45.0333 13.8028Z" fill="#D599C0"/>
<path d="M46.1221 38.379C43.866 41.9392 40.7467 44.8714 37.054 46.9031C33.3612 48.9348 29.2148 50.0002 25 50.0002C20.7852 50.0002 16.6388 48.9348 12.946 46.9031C9.25326 44.8714 6.13395 41.9392 3.87793 38.379H46.1221Z" fill="#2F3B71"/>
<path d="M25.293 29.4053V41.6016C25.293 42.1455 25.0769 42.6671 24.6923 43.0517C24.3077 43.4363 23.7861 43.6523 23.2422 43.6523H15.1367C14.5928 43.6523 14.0712 43.4363 13.6866 43.0517C13.302 42.6671 13.0859 42.1455 13.0859 41.6016V29.2803C13.0858 26.9069 13.3035 24.5386 13.7363 22.2051C13.9176 21.234 14.1613 20.2757 14.4658 19.3359C14.6689 18.7077 14.8968 18.0892 15.1494 17.4805L15.2588 17.2188C16.3385 14.6187 16.8941 11.831 16.8936 9.01562V7.51953H21.3799V8.90234C21.3828 11.7917 21.9718 14.6505 23.1113 17.3057C23.3965 17.971 23.6517 18.6478 23.877 19.3359C24.1834 20.2663 24.429 21.2155 24.6123 22.1777C25.0645 24.5604 25.2923 26.9801 25.293 29.4053Z" fill="#5FA48F"/>
<path d="M25.293 29.4053V41.6016C25.293 42.1455 25.0769 42.6671 24.6923 43.0517C24.3077 43.4363 23.7861 43.6523 23.2422 43.6523H18.0664C17.5225 43.6523 17.0009 43.4363 16.6163 43.0517C16.2317 42.6671 16.0156 42.1455 16.0156 41.6016V29.2803C16.0155 26.9069 16.2332 24.5386 16.666 22.2051C16.9707 20.585 17.4446 19.0015 18.0801 17.4805L18.1895 17.2188C19.2692 14.6187 19.8247 11.831 19.8242 9.01562V7.51953H21.3809V8.90234C21.3838 11.7917 21.9728 14.6505 23.1123 17.3057C23.7877 18.8705 24.291 20.5041 24.6133 22.1777C25.0651 24.5604 25.2927 26.9802 25.293 29.4053Z" fill="#6BB7A4"/>
<path d="M23.8789 19.3359H14.4658C14.6689 18.7077 14.8968 18.0892 15.1494 17.4805L15.2207 17.3105L15.2588 17.2188C16.3385 14.6187 16.8941 11.831 16.8936 9.01563V7.51953H21.3799V8.90234C21.3828 11.7917 21.9718 14.6505 23.1113 17.3057C23.3984 17.9723 23.6543 18.6491 23.8789 19.3359Z" fill="#C8A239"/>
<path d="M23.8789 19.3359H17.5312C17.7344 18.7077 17.9622 18.0892 18.2148 17.4805L18.2861 17.3105L18.3242 17.2188C19.404 14.6187 19.9595 11.831 19.959 9.01563V7.51953H21.377V8.90234C21.3799 11.7917 21.9689 14.6505 23.1084 17.3057C23.3975 17.9723 23.6543 18.6491 23.8789 19.3359Z" fill="#E5BE3D"/>
<path d="M23.8789 19.3359H14.4658C14.6689 18.7077 14.8968 18.0892 15.1494 17.4805L15.2207 17.3105H23.1152C23.3997 17.974 23.6543 18.6491 23.8789 19.3359Z" fill="#28345A"/>
<path d="M23.8789 19.3359H17.2656C17.4688 18.7077 17.6966 18.0892 17.9492 17.4805L18.0205 17.3105H23.1152C23.3997 17.974 23.6543 18.6491 23.8789 19.3359Z" fill="#2F3B71"/>
<path d="M22.2402 2.9707V6.55078C22.2402 6.80754 22.1383 7.0538 21.9568 7.23545C21.7754 7.41709 21.5292 7.51927 21.2724 7.51953H17.0731C16.8162 7.51953 16.5698 7.41747 16.3881 7.23579C16.2064 7.05411 16.1044 6.80771 16.1044 6.55078V2.9707C16.1044 2.71377 16.2064 2.46737 16.3881 2.28569C16.5698 2.10402 16.8162 2.00195 17.0731 2.00195H21.2724C21.5292 2.00221 21.7754 2.10439 21.9568 2.28604C22.1383 2.46769 22.2402 2.71394 22.2402 2.9707Z" fill="#C9B271"/>
<path d="M22.2402 2.9707V6.55078C22.2402 6.80754 22.1383 7.0538 21.9568 7.23545C21.7754 7.41709 21.5292 7.51927 21.2725 7.51953H19.5469C19.2899 7.51953 19.0435 7.41747 18.8619 7.23579C18.6802 7.05411 18.5781 6.80771 18.5781 6.55078V2.9707C18.5781 2.71377 18.6802 2.46737 18.8619 2.28569C19.0435 2.10402 19.2899 2.00195 19.5469 2.00195H21.2725C21.5292 2.00221 21.7754 2.10439 21.9568 2.28604C22.1383 2.46769 22.2402 2.71394 22.2402 2.9707Z" fill="#EAD07E"/>
<path d="M22.3633 30.4689H16.1133C15.52 30.4689 15.0391 30.9498 15.0391 31.5431V39.5021C15.0391 40.0954 15.52 40.5763 16.1133 40.5763H22.3633C22.9566 40.5763 23.4375 40.0954 23.4375 39.5021V31.5431C23.4375 30.9498 22.9566 30.4689 22.3633 30.4689Z" fill="#D7D7D6"/>
<path d="M22.3633 30.4689H17.2842C16.6909 30.4689 16.21 30.9498 16.21 31.5431V39.5021C16.21 40.0954 16.6909 40.5763 17.2842 40.5763H22.3633C22.9566 40.5763 23.4375 40.0954 23.4375 39.5021V31.5431C23.4375 30.9498 22.9566 30.4689 22.3633 30.4689Z" fill="white"/>
<path d="M19.1729 32.9417C20.5385 32.9417 21.6455 31.8346 21.6455 30.469C21.6455 29.1034 20.5385 27.9963 19.1729 27.9963C17.8072 27.9963 16.7002 29.1034 16.7002 30.469C16.7002 31.8346 17.8072 32.9417 19.1729 32.9417Z" fill="#2F3B71"/>
<path d="M19.4072 13.3642C19.4072 9.4736 16.1943 8.32028 14.6582 7.99313C14.1416 7.82599 13.5857 7.82453 13.0682 7.98897C12.5508 8.1534 12.0977 8.47549 11.7723 8.91017C11.447 9.34485 11.2657 9.87037 11.2538 10.4132C11.2419 10.956 11.4 11.489 11.706 11.9375C11.9185 12.2559 12.031 12.6305 12.0291 13.0133C12.0272 13.3961 11.9109 13.7696 11.6953 14.0859C11.4059 14.517 11.2522 15.0247 11.2538 15.5439C11.2538 17 12.5126 18.1562 13.9687 18.1406C19.5849 18.0771 19.4072 13.3642 19.4072 13.3642Z" fill="#AC3030"/>
<path d="M19.0684 13.2696C19.0684 10.3926 16.6925 9.53913 15.5529 9.29596C15.1709 9.1725 14.7598 9.17151 14.3772 9.29315C13.9946 9.41478 13.6596 9.65295 13.419 9.97435C13.1784 10.2958 13.0443 10.6843 13.0354 11.0857C13.0265 11.4871 13.1432 11.8812 13.3693 12.213C13.5264 12.4486 13.6096 12.7258 13.6082 13.0091C13.6068 13.2923 13.5209 13.5687 13.3615 13.8028C13.1475 14.1201 13.0339 14.4943 13.0354 14.877C13.0354 15.9512 13.965 16.8096 15.0421 16.7979C19.2012 16.7559 19.0684 13.2696 19.0684 13.2696Z" fill="#CF4849"/>
<path d="M19.0702 13.3642C19.0702 9.4736 22.2821 8.32028 23.8183 7.99313C24.3349 7.82599 24.8908 7.82453 25.4082 7.98897C25.9257 8.1534 26.3788 8.47549 26.7041 8.91017C27.0294 9.34485 27.2107 9.87037 27.2226 10.4132C27.2345 10.956 27.0764 11.489 26.7704 11.9375C26.5579 12.2559 26.4454 12.6305 26.4473 13.0133C26.4493 13.3961 26.5655 13.7696 26.7812 14.0859C27.0705 14.517 27.2242 15.0247 27.2226 15.5439C27.2226 17 25.9648 18.1562 24.5077 18.1406C18.8915 18.0771 19.0702 13.3642 19.0702 13.3642Z" fill="#AC3030"/>
<path d="M19.4082 13.2694C19.4082 10.3925 21.7842 9.53895 22.9238 9.29578C23.1816 9.21195 23.4542 9.18399 23.7236 9.21375C24.0543 9.24949 24.3701 9.37032 24.6402 9.56445C24.9103 9.75858 25.1255 10.0194 25.2648 10.3215C25.404 10.6235 25.4627 10.9565 25.4349 11.288C25.4072 11.6194 25.294 11.9381 25.1064 12.2128C24.9493 12.4484 24.8662 12.7256 24.8676 13.0089C24.869 13.2921 24.9549 13.5685 25.1142 13.8026C25.3281 14.1199 25.4421 14.4941 25.4414 14.8768C25.4414 15.951 24.5107 16.8094 23.4336 16.7977C19.2754 16.7557 19.4082 13.2694 19.4082 13.2694Z" fill="#CF4849"/>
<path d="M19.4081 13.2695L14.5116 26.7578C14.4988 26.7937 14.4973 26.8326 14.5073 26.8694C14.5174 26.9062 14.5385 26.9389 14.5679 26.9633C14.5972 26.9876 14.6333 27.0023 14.6713 27.0054C14.7093 27.0084 14.7473 26.9997 14.7802 26.9805L15.952 26.2842C16.1998 26.1369 16.4946 26.0901 16.7758 26.1535C17.057 26.2169 17.3032 26.3856 17.4638 26.625L17.5976 26.8203C17.6188 26.8517 17.6492 26.8757 17.6845 26.8893C17.7199 26.9029 17.7586 26.9054 17.7954 26.8963C17.8322 26.8873 17.8653 26.8672 17.8903 26.8388C17.9154 26.8103 17.9311 26.7749 17.9354 26.7373L19.4081 13.2695Z" fill="#AC3030"/>
<path d="M19.124 13.2695L24.0234 26.7578C24.0363 26.7937 24.0378 26.8326 24.0277 26.8694C24.0177 26.9062 23.9966 26.9389 23.9672 26.9633C23.9379 26.9876 23.9018 27.0023 23.8638 27.0054C23.8258 27.0084 23.7878 26.9997 23.7549 26.9805L22.583 26.2842C22.3352 26.1369 22.0405 26.0901 21.7593 26.1535C21.4781 26.2169 21.2319 26.3856 21.0713 26.625L20.9375 26.8203C20.9162 26.8517 20.8859 26.8757 20.8505 26.8893C20.8152 26.9029 20.7765 26.9054 20.7397 26.8963C20.7029 26.8873 20.6697 26.8672 20.6447 26.8388C20.6197 26.8103 20.6039 26.7749 20.5996 26.7373L19.124 13.2695Z" fill="#AC3030"/>
<path d="M21.582 13.3633C21.5816 13.9059 21.3778 14.4288 21.0107 14.8285C20.6437 15.2282 20.1402 15.4759 19.5995 15.5225C19.0588 15.5691 18.5203 15.4114 18.0902 15.0804C17.6602 14.7494 17.3698 14.2692 17.2765 13.7346C17.1831 13.2 17.2936 12.6499 17.586 12.1927C17.8785 11.7356 18.3317 11.4047 18.8562 11.2654C19.3807 11.126 19.9383 11.1883 20.4191 11.44C20.8999 11.6918 21.2688 12.1146 21.4531 12.625C21.5386 12.8617 21.5822 13.1116 21.582 13.3633Z" fill="#8F2F2F"/>
<path d="M21.4492 12.625C21.2972 13.0446 21.0196 13.4071 20.6543 13.6633C20.2889 13.9196 19.8535 14.057 19.4072 14.057C18.961 14.057 18.5255 13.9196 18.1602 13.6633C17.7948 13.4071 17.5172 13.0446 17.3652 12.625C17.5172 12.2054 17.7948 11.8429 18.1602 11.5867C18.5255 11.3305 18.961 11.193 19.4072 11.193C19.8535 11.193 20.2889 11.3305 20.6543 11.5867C21.0196 11.8429 21.2972 12.2054 21.4492 12.625Z" fill="#A53D3D"/>
<path d="M35.9531 43.5791H28.1406C28.1406 43.087 28.3361 42.6151 28.6841 42.2671C29.032 41.9191 29.504 41.7236 29.9961 41.7236H31.3633V33.5557C30.6551 33.4427 30.0105 33.081 29.5451 32.5354C29.0797 31.9898 28.8241 31.2962 28.8242 30.5791V19.5068H35.2695V30.5791C35.2696 31.2791 35.0259 31.9573 34.5804 32.4972C34.1349 33.0371 33.5154 33.4052 32.8281 33.5381C32.7959 33.5449 32.7637 33.5508 32.7305 33.5557V41.7236H34.0977C34.5898 41.7236 35.0617 41.9191 35.4097 42.2671C35.7576 42.6151 35.9531 43.087 35.9531 43.5791Z" fill="#BADACF"/>
<path d="M30.3887 30.5791V19.5068H35.2715V30.5791C35.2715 31.2791 35.0279 31.9573 34.5824 32.4972C34.1369 33.0371 33.5173 33.4052 32.8301 33.5381C32.1427 33.4053 31.5231 33.0374 31.0775 32.4974C30.632 31.9574 30.3885 31.2792 30.3887 30.5791Z" fill="#CBE3DE"/>
<path d="M35.9531 43.5792H29.7031C29.7031 43.0871 29.8986 42.6152 30.2466 42.2672C30.5945 41.9192 31.0665 41.7238 31.5586 41.7238H34.0977C34.5898 41.7238 35.0617 41.9192 35.4097 42.2672C35.7576 42.6152 35.9531 43.0871 35.9531 43.5792Z" fill="#CBE3DE"/>
<path d="M38.7012 19.507C38.7012 19.0782 37.627 18.7179 36.167 18.6115C36.0605 17.1466 35.7002 16.0724 35.2715 16.0724C34.8428 16.0724 34.4824 17.1466 34.376 18.6115C32.916 18.7179 31.8369 19.0782 31.8369 19.507C31.8369 19.9357 32.9111 20.296 34.376 20.4025C34.4824 21.8673 34.8428 22.9415 35.2715 22.9415C35.7002 22.9415 36.0605 21.8673 36.167 20.4025C37.627 20.296 38.7012 19.9357 38.7012 19.507Z" fill="white"/>
</g>
<defs>
<clipPath id="clip0_1_702">
<rect width="50" height="50" fill="white"/>
</clipPath>
</defs>
</svg>
