<svg width="15" height="15" viewBox="0 0 15 15" fill="none" xmlns="http://www.w3.org/2000/svg">
<path d="M12.6923 0H2.30769C1.035 0 0 1.035 0 2.30769V13.8462C0 14.07 0.129231 14.2742 0.332308 14.3688C0.409615 14.4046 0.493846 14.4231 0.576923 14.4231C0.709615 14.4231 0.841154 14.3769 0.946154 14.2892L4.24731 11.5385H12.6923C13.965 11.5385 15 10.5035 15 9.23077V2.30769C15 1.035 13.965 0 12.6923 0ZM13.8462 9.23077C13.8462 9.86654 13.3292 10.3846 12.6923 10.3846H4.03846C3.90346 10.3846 3.77308 10.4319 3.66923 10.5185L1.15385 12.615V2.30769C1.15385 1.67192 1.67077 1.15385 2.30769 1.15385H12.6923C13.3292 1.15385 13.8462 1.67192 13.8462 2.30769V9.23077Z" fill="url(#paint0_linear_1_345)"/>
<path d="M13.8462 9.23077C13.8462 9.86654 13.3292 10.3846 12.6923 10.3846H4.03846C3.90346 10.3846 3.77308 10.4319 3.66923 10.5185L1.15385 12.615V2.30769C1.15385 1.67192 1.67077 1.15385 2.30769 1.15385H12.6923C13.3292 1.15385 13.8462 1.67192 13.8462 2.30769V9.23077Z" fill="url(#paint1_linear_1_345)"/>
<path d="M10.9615 3.46155H4.03847C3.72001 3.46155 3.46155 3.72001 3.46155 4.03847C3.46155 4.35693 3.72001 4.61539 4.03847 4.61539H10.9615C11.28 4.61539 11.5385 4.35693 11.5385 4.03847C11.5385 3.72001 11.28 3.46155 10.9615 3.46155Z" fill="white"/>
<path d="M8.65386 5.76923H4.03847C3.72001 5.76923 3.46155 6.02769 3.46155 6.34615C3.46155 6.66461 3.72001 6.92307 4.03847 6.92307H8.65386C8.97232 6.92307 9.23078 6.66461 9.23078 6.34615C9.23078 6.02769 8.97232 5.76923 8.65386 5.76923Z" fill="white"/>
<defs>
<linearGradient id="paint0_linear_1_345" x1="15.0006" y1="14.4227" x2="0.588546" y2="-0.56575" gradientUnits="userSpaceOnUse">
<stop stop-color="#FD3A84"/>
<stop offset="1" stop-color="#FFA68D"/>
</linearGradient>
<linearGradient id="paint1_linear_1_345" x1="15.0006" y1="14.4227" x2="0.588546" y2="-0.56575" gradientUnits="userSpaceOnUse">
<stop stop-color="#FD3A84"/>
<stop offset="1" stop-color="#FFA68D"/>
</linearGradient>
</defs>
</svg>
