<svg width="20" height="20" viewBox="0 0 20 20" fill="none" xmlns="http://www.w3.org/2000/svg">
<g clip-path="url(#clip0_1_539)">
<path d="M18.4375 12.9688V4.6875C18.4375 3.82599 17.7365 3.125 16.875 3.125H15.8594V3.90625C15.8594 4.33777 15.5096 4.6875 15.0781 4.6875C14.6466 4.6875 14.2969 4.33777 14.2969 3.90625V3.125H10.7422V3.90625C10.7422 4.33777 10.3925 4.6875 9.96094 4.6875C9.52942 4.6875 9.17969 4.33777 9.17969 3.90625V3.125H5.66406V3.90625C5.66406 4.33777 5.31433 4.6875 4.88281 4.6875C4.45129 4.6875 4.10156 4.33777 4.10156 3.90625V3.125H3.125C2.26349 3.125 1.5625 3.82599 1.5625 4.6875V16.875C1.5625 17.7365 2.26349 18.4375 3.125 18.4375H16.875C17.7365 18.4375 18.4375 17.7365 18.4375 16.875C18.4375 16.4435 18.7872 16.0938 19.2188 16.0938C19.6503 16.0938 20 16.4435 20 16.875C20 18.5982 18.5982 20 16.875 20H3.125C1.40182 20 0 18.5982 0 16.875V4.6875C0 2.96432 1.40182 1.5625 3.125 1.5625H4.10156V0.78125C4.10156 0.349731 4.45129 0 4.88281 0C5.31433 0 5.66406 0.349731 5.66406 0.78125V1.5625H9.17969V0.78125C9.17969 0.349731 9.52942 0 9.96094 0C10.3925 0 10.7422 0.349731 10.7422 0.78125V1.5625H14.2969V0.78125C14.2969 0.349731 14.6466 0 15.0781 0C15.5096 0 15.8594 0.349731 15.8594 0.78125V1.5625H16.875C18.5982 1.5625 20 2.96432 20 4.6875V12.9688C20 13.4003 19.6503 13.75 19.2188 13.75C18.7872 13.75 18.4375 13.4003 18.4375 12.9688ZM5.66406 8.20312C5.66406 7.77161 5.31433 7.42188 4.88281 7.42188C4.45129 7.42188 4.10156 7.77161 4.10156 8.20312C4.10156 8.63464 4.45129 8.98438 4.88281 8.98438C5.31433 8.98438 5.66406 8.63464 5.66406 8.20312ZM12.4609 8.20312C12.4609 7.77161 12.1112 7.42188 11.6797 7.42188C11.2482 7.42188 10.8984 7.77161 10.8984 8.20312C10.8984 8.63464 11.2482 8.98438 11.6797 8.98438C12.1112 8.98438 12.4609 8.63464 12.4609 8.20312ZM15.0781 8.98438C15.5096 8.98438 15.8594 8.63464 15.8594 8.20312C15.8594 7.77161 15.5096 7.42188 15.0781 7.42188C14.6466 7.42188 14.2969 7.77161 14.2969 8.20312C14.2969 8.63464 14.6466 8.98438 15.0781 8.98438ZM5.66406 11.6016C5.66406 11.17 5.31433 10.8203 4.88281 10.8203C4.45129 10.8203 4.10156 11.17 4.10156 11.6016C4.10156 12.0331 4.45129 12.3828 4.88281 12.3828C5.31433 12.3828 5.66406 12.0331 5.66406 11.6016ZM4.88281 14.2188C4.45129 14.2188 4.10156 14.5685 4.10156 15C4.10156 15.4315 4.45129 15.7812 4.88281 15.7812C5.31433 15.7812 5.66406 15.4315 5.66406 15C5.66406 14.5685 5.31433 14.2188 4.88281 14.2188ZM9.0625 8.20312C9.0625 7.77161 8.71277 7.42188 8.28125 7.42188C7.84973 7.42188 7.5 7.77161 7.5 8.20312C7.5 8.63464 7.84973 8.98438 8.28125 8.98438C8.71277 8.98438 9.0625 8.63464 9.0625 8.20312ZM9.0625 11.6016C9.0625 11.17 8.71277 10.8203 8.28125 10.8203C7.84973 10.8203 7.5 11.17 7.5 11.6016C7.5 12.0331 7.84973 12.3828 8.28125 12.3828C8.71277 12.3828 9.0625 12.0331 9.0625 11.6016ZM8.28125 14.2188C7.84973 14.2188 7.5 14.5685 7.5 15C7.5 15.4315 7.84973 15.7812 8.28125 15.7812C8.71277 15.7812 9.0625 15.4315 9.0625 15C9.0625 14.5685 8.71277 14.2188 8.28125 14.2188ZM14.8456 13.7798L15.7385 13.121C16.0414 12.9019 15.8858 12.3828 15.5113 12.3828H14.4034C14.2358 12.3828 14.0875 12.3175 14.0356 12.1588L13.6879 11.0863C13.6301 10.909 13.4752 10.8203 13.3203 10.8203C13.1654 10.8203 13.0106 10.909 12.9527 11.0863L12.6048 12.159C12.5531 12.3175 12.4048 12.3828 12.2372 12.3828H11.1308C10.7564 12.3828 10.6007 12.9019 10.9036 13.121L11.795 13.7798C11.9305 13.8777 11.9873 14.0515 11.9356 14.2101L11.5877 15.2757C11.472 15.6303 11.8796 15.9251 12.1826 15.706L13.0931 15.0471C13.1609 14.9982 13.2407 14.9736 13.3203 14.9736C13.4 14.9736 13.4798 14.9982 13.5475 15.0471L14.458 15.706C14.761 15.9251 15.1686 15.6303 15.0529 15.2757L14.705 14.2101C14.6533 14.0514 14.7101 13.8777 14.8456 13.7798Z" fill="url(#paint0_linear_1_539)"/>
</g>
<defs>
<linearGradient id="paint0_linear_1_539" x1="20.0007" y1="19.9995" x2="0.000716865" y2="-0.000492754" gradientUnits="userSpaceOnUse">
<stop stop-color="#FD3A84"/>
<stop offset="1" stop-color="#FFA68D"/>
</linearGradient>
<clipPath id="clip0_1_539">
<rect width="20" height="20" fill="white"/>
</clipPath>
</defs>
</svg>
