<svg width="50" height="50" viewBox="0 0 50 50" fill="none" xmlns="http://www.w3.org/2000/svg">
<g clip-path="url(#clip0_1_734)">
<path d="M48.8967 17.6348L46.1858 21.3174C35.0969 36.3857 13.175 37.9961 0.00317383 24.7109C0.052002 20.3057 1.24146 16.1748 3.28931 12.5977C7.5979 5.07129 15.7073 0 25.0002 0C34.2932 0 42.4026 5.07129 46.7112 12.5977C47.6155 14.1768 48.3518 15.8643 48.8967 17.6348Z" fill="#92EAFF"/>
<path d="M48.8967 17.6348L46.1858 21.3174C35.0969 36.3857 13.175 37.9961 0.00317383 24.7109C0.052002 20.3057 1.24146 16.1748 3.28931 12.5977C7.5979 20.124 15.7073 25.1953 25.0002 25.1953C34.2932 25.1953 42.4026 20.124 46.7112 12.5977C47.6155 14.1768 48.3528 15.8643 48.8967 17.6348Z" fill="#63DBFA"/>
<path d="M50 24.9999C50 26.456 49.875 27.8837 49.6357 29.2714C49.5166 29.9667 49.3682 30.6523 49.1914 31.3261C48.5371 33.8398 47.5 36.2001 46.1465 38.3398L45.3457 38.7831C43.9297 39.5663 42.4736 40.2372 40.9902 40.7958H17.7676C14.1279 39.4286 10.6943 37.4013 7.65137 34.7363L0.206055 28.2148C0.143555 27.7353 0.0947266 27.2509 0.0615234 26.7636C0.0205078 26.1816 0 25.5927 0 24.9999V24.7118C0.000976562 24.7118 0.00195312 24.7109 0.00292969 24.7109C1.06348 24.2138 2.3457 24.2118 3.4082 24.706C4.47168 25.2011 5.44434 26.164 5.74707 27.2978C6.64844 26.2577 9.0752 26.1357 9.78027 27.3173C9.87891 26.039 10.8506 24.8759 12.0908 24.5507C13.3301 24.2255 15.001 24.6923 15.7139 25.7577C16.4307 24.5019 17.7969 23.6425 19.2383 23.539C20.6807 23.4364 21.9863 23.7392 22.874 24.8798C23.3252 23.9511 24.0859 23.1796 25 22.7021C25.0254 22.6884 25.0518 22.6757 25.0771 22.662C25.29 22.5556 25.5098 22.4648 25.7363 22.3915C26.1113 22.2704 26.5088 22.1991 26.9121 22.1777C27.8389 22.1239 28.7979 22.3241 29.5957 22.7529C29.2021 20.6347 30.6133 18.3339 32.6797 17.7255C34.7461 17.1161 37.2822 18.3788 38.0986 20.372C39.9219 19.1562 42.3145 19.1279 43.8281 20.7128C44.4502 19.2011 45.8555 18.038 47.4561 17.7089C47.9297 17.6113 48.416 17.5878 48.8965 17.6347C49.1162 18.3466 49.3047 19.0732 49.46 19.8105C49.4746 19.8808 49.4893 19.9501 49.5029 20.0204C49.8135 21.5527 49.9834 23.1347 49.999 24.7538C50 24.8359 50 24.9179 50 24.9999Z" fill="white"/>
<path d="M50 24.9999C50 26.456 49.875 27.8837 49.6358 29.2714C49.5166 29.9667 49.3682 30.6523 49.1914 31.3261C48.5371 33.8398 47.5 36.2001 46.1465 38.3398L45.3457 38.7831C43.9297 39.5663 42.4736 40.2372 40.9902 40.7958H25.0771V22.662C25.29 22.5556 25.5098 22.4648 25.7363 22.3915C26.1113 22.2704 26.5088 22.1991 26.9121 22.1777C27.8389 22.1239 28.7979 22.3241 29.5957 22.7529C29.2022 20.6347 30.6133 18.3339 32.6797 17.7255C34.7461 17.1161 37.2822 18.3788 38.0986 20.372C39.9219 19.1562 42.3145 19.1279 43.8281 20.7128C44.4502 19.2011 45.8555 18.038 47.4561 17.7089C47.9297 17.6113 48.416 17.5878 48.8965 17.6347C49.1162 18.3466 49.3047 19.0732 49.46 19.8105C49.4746 19.8808 49.4893 19.9501 49.503 20.0204C49.8135 21.5527 49.9834 23.1347 49.999 24.7538C50 24.8359 50 24.9179 50 24.9999Z" fill="#DFF7FD"/>
<path d="M50 24.9998C50 26.4558 49.875 27.8835 49.6358 29.2712C49.5166 29.9666 49.3682 30.6521 49.1914 31.3259C48.5371 33.8396 47.5 36.2 46.1465 38.3396L45.3457 38.783C43.9297 39.5662 42.4736 40.2371 40.9902 40.7957H37.169L38.4561 42.0828H25.0771V25.7976C25.1641 25.6921 25.2578 25.5935 25.3564 25.5017C26.0029 24.9011 26.9365 24.6218 27.8066 24.7703C28.4355 24.8767 29.0674 25.2468 29.2725 25.8503C30.041 24.9783 31.2129 24.4441 32.375 24.4177C32.0693 23.5818 32.2481 22.5476 32.8467 21.8894C33.4463 21.2302 34.4209 20.9402 35.2822 21.1648C36.1445 21.3904 36.8535 22.1199 37.0537 22.9871C37.5059 23.1003 38.0947 23.2087 38.5459 23.322C39.0352 22.2478 40.3174 21.5642 41.4883 21.7214C42.6592 21.8787 43.6787 22.7195 44.1953 23.781C44.7686 23.2117 45.6934 22.8972 46.4971 22.821C46.7139 21.5916 46.877 21.1091 47.9209 20.4246C48.293 20.1804 48.9004 20.0203 49.503 20.0203C49.8135 21.5525 49.9834 23.1345 49.999 24.7537C50 24.8357 50 24.9177 50 24.9998Z" fill="#C5F2F9"/>
<path d="M43.4677 41.8503C43.2528 42.0857 43.0341 42.3171 42.8104 42.5437C42.6991 42.657 42.5858 42.7693 42.4725 42.8787C42.3573 42.9919 42.2421 43.1033 42.1249 43.2126C41.9315 43.3953 41.7352 43.573 41.536 43.7488L40.826 44.0505C40.1112 44.3542 39.5272 44.9001 39.1766 45.5935C39.1757 45.5935 39.1757 45.5945 39.1757 45.5945C38.58 46.0056 37.9647 46.3904 37.3329 46.7488C37.1044 46.405 36.5839 46.4617 36.4345 46.8464L36.247 47.3318C33.3026 48.8191 30.0243 49.739 26.5546 49.9519C26.0399 49.9841 25.5223 49.9998 24.9999 49.9998C24.8036 49.9998 24.6083 49.9978 24.413 49.9919C24.0204 49.9841 23.6307 49.9656 23.243 49.9382C22.4042 49.8806 21.5761 49.781 20.7616 49.6404C20.037 49.5183 19.3221 49.364 18.62 49.1785C18.1678 49.0593 17.7206 48.9285 17.2792 48.7839C15.7479 48.2878 14.2821 47.6472 12.8964 46.8787C10.5077 45.5554 8.35925 43.8523 6.5321 41.8503H43.4677Z" fill="#92EAFF"/>
<path d="M43.4678 41.8503C42.8584 42.5173 42.2139 43.1511 41.5361 43.7488L40.8262 44.0505C40.1113 44.3542 39.5264 44.9011 39.1758 45.5945C38.5801 46.0056 37.9658 46.3904 37.334 46.7498C37.1055 46.405 36.584 46.4617 36.4346 46.8464L36.2471 47.3318C35.6973 47.6091 35.1367 47.8669 34.5654 48.1033C34.1553 48.2742 33.7393 48.4334 33.3184 48.5818C32.7227 48.7917 32.1172 48.9802 31.502 49.1453C30.751 49.3474 29.9853 49.5154 29.207 49.6462C27.8643 49.8748 26.4844 49.9949 25.0771 49.9998V41.8503H43.4678Z" fill="#63DBFA"/>
<path d="M0.807739 31.326C0.870239 31.5652 0.936646 31.8025 1.00501 32.0379C1.04016 32.158 1.07629 32.2772 1.1134 32.3963C1.38684 33.2801 1.70715 34.1424 2.07336 34.9803L6.30706 40.8098H42.272L26.9191 25.4568C26.9191 25.4568 26.0109 26.366 25.0773 27.3016C24.0968 28.283 23.088 29.2908 23.0714 29.3035C22.3966 29.8084 21.4532 29.741 20.8575 29.1453L10.0665 18.3543L0.206177 28.2147C0.250122 28.5691 0.303833 28.9217 0.36438 29.2713C0.483521 29.9666 0.631958 30.6522 0.807739 31.326Z" fill="#7E7F92"/>
<path d="M42.2719 40.8098L26.9189 25.4569C26.9189 25.4569 26.0107 26.3661 25.0771 27.3016V40.8098H42.2719Z" fill="#6E6F83"/>
<path d="M2.07324 34.9802L6.30693 40.8097H37.6499L26.9189 30.0789C26.9189 30.0789 26.0107 30.988 25.0772 31.9236C24.0967 32.905 23.0879 33.9128 23.0713 33.9255C22.3965 34.4304 21.4531 34.363 20.8574 33.7673L10.0664 22.9763L1.00488 32.0378C1.04004 32.158 1.07617 32.2771 1.11328 32.3962C1.38672 33.28 1.70703 34.1423 2.07324 34.9802Z" fill="#6E6F83"/>
<path d="M37.6498 40.8098L26.9189 30.0789C26.9189 30.0789 26.0107 30.9881 25.0771 31.9236V40.8098H37.6498Z" fill="#605F74"/>
<path d="M46.1465 38.3397C45.7783 38.9227 45.3857 39.4901 44.9707 40.0389C44.7783 40.2958 44.5801 40.5477 44.3779 40.7958C44.2607 40.9403 44.1416 41.0829 44.0205 41.2245C43.8398 41.4364 43.6553 41.6454 43.4678 41.8505C43.3965 41.9286 43.3252 42.0057 43.2529 42.0829H6.74707C6.6748 42.0057 6.60352 41.9286 6.53223 41.8505C6.34473 41.6454 6.16016 41.4364 5.98047 41.2245C5.85938 41.0829 5.74023 40.9403 5.62305 40.7958C4.94727 39.9696 4.32422 39.0985 3.75879 38.1884C3.45898 37.7079 3.17578 37.2157 2.90918 36.7128C2.6084 36.1483 2.33008 35.5702 2.07324 34.9803C2.66895 35.6034 3.05859 36.3729 4.02344 36.5936C5.13672 36.8495 6.17383 36.3778 7.25879 36.9891C7.97949 37.3944 8.68164 37.9344 9.5166 38.076C9.8877 38.1385 10.3828 38.1473 10.7432 38.0262C11.1719 37.8837 11.5107 37.5223 11.9531 37.3739C12.3916 37.2264 12.9043 37.2255 13.2881 37.4833C13.6953 37.7567 13.9004 38.2714 14.3291 38.5096C14.8496 38.7987 15.498 38.5819 16.0352 38.3231C16.5723 38.0643 17.1514 37.7587 17.7314 37.8925C18.4609 38.0604 18.8623 38.8378 19.4824 39.2567C20.1133 39.6844 20.998 39.7001 21.6436 39.2938C22.3682 38.8387 23.0664 38.3436 23.8525 38.6835C24.2578 38.8593 24.6572 39.1913 25.0772 39.1327C25.1104 39.1278 25.1445 39.121 25.1777 39.1112C25.6445 38.9745 25.8018 38.411 26.0771 38.0106C26.5703 37.2938 27.6572 37.0721 28.3916 37.5399C28.7344 37.7587 29.0254 38.0321 29.3984 38.1962C29.7705 38.3602 30.2207 38.3993 30.5752 38.2001C30.8916 38.0223 31.082 37.6903 31.3291 37.4247C31.7568 36.9637 32.3867 36.6952 33.0156 36.7069C33.6455 36.7177 34.2646 37.0077 34.6768 37.4833C35.2646 38.163 36.2988 38.4149 37.0156 37.8729C37.5166 37.494 37.8555 36.8055 38.4814 36.7489C39.0674 36.6962 39.5439 37.2469 40.127 37.3231C40.8184 37.4139 41.4414 36.8241 42.1377 36.8339C42.6807 36.8417 43.3144 37.2548 43.6328 37.6835C43.9951 38.1727 44.2207 38.4149 44.9121 38.369C45.3242 38.3417 45.751 38.246 46.1465 38.3397Z" fill="#5DBF1D"/>
<path d="M46.1465 38.3397C45.6064 39.1941 45.0156 40.0145 44.3779 40.7957C44.085 41.1561 43.7812 41.5076 43.4678 41.8504C43.3965 41.9285 43.3252 42.0057 43.2529 42.0828H25.0771V39.1326C25.1104 39.1277 25.1445 39.1209 25.1777 39.1111C25.6445 38.9744 25.8018 38.4109 26.0771 38.0106C26.5703 37.2938 27.6572 37.0721 28.3916 37.5399C28.7344 37.7586 29.0254 38.032 29.3984 38.1961C29.7705 38.3602 30.2207 38.3992 30.5752 38.2C30.8916 38.0223 31.082 37.6902 31.3291 37.4246C31.7568 36.9637 32.3867 36.6951 33.0156 36.7069C33.6455 36.7176 34.2646 37.0076 34.6768 37.4832C35.2646 38.1629 36.2988 38.4149 37.0156 37.8729C37.5166 37.494 37.8555 36.8055 38.4814 36.7488C39.0674 36.6961 39.5439 37.2469 40.127 37.3231C40.8184 37.4139 41.4414 36.824 42.1377 36.8338C42.6807 36.8416 43.3145 37.2547 43.6328 37.6834C43.9951 38.1727 44.2207 38.4149 44.9121 38.369C45.3242 38.3416 45.751 38.2459 46.1465 38.3397Z" fill="#43AF3E"/>
<path d="M44.9705 40.0388C44.7781 40.2957 44.5798 40.5476 44.3777 40.7957C44.2605 40.9402 44.1414 41.0828 44.0203 41.2244C43.8396 41.4363 43.655 41.6453 43.4675 41.8503C43.3962 41.9285 43.325 42.0056 43.2527 42.0828H6.74683C6.67456 42.0056 6.60327 41.9285 6.53198 41.8503C6.34448 41.6453 6.15991 41.4363 5.98022 41.2244C5.85913 41.0828 5.73999 40.9402 5.6228 40.7957C4.94702 39.9695 4.32397 39.0984 3.75854 38.1882C3.84155 38.2205 3.92944 38.2468 4.02319 38.2683C5.13647 38.5242 6.17358 38.0525 7.25854 38.6638C7.97925 39.0691 8.6814 39.6091 9.51636 39.7507C9.88745 39.8142 10.3826 39.822 10.7429 39.7019C11.1716 39.5583 11.5105 39.197 11.9529 39.0486C12.3914 38.9011 12.9041 38.9001 13.2878 39.158C13.6951 39.4314 13.9001 39.946 14.3289 40.1843C14.8494 40.4734 15.4978 40.2566 16.0349 39.9978C16.572 39.739 17.1511 39.4343 17.7312 39.5671C18.4607 39.7351 18.8621 40.5125 19.4822 40.9324C20.113 41.3591 20.9978 41.3748 21.6433 40.9695C22.3679 40.5134 23.0662 40.0183 23.8523 40.3582C24.2576 40.5339 24.657 40.866 25.0769 40.8074C25.1101 40.8025 25.1443 40.7957 25.1775 40.7859C25.6443 40.6492 25.8015 40.0857 26.0769 39.6853C26.5701 38.9685 27.657 38.7468 28.3914 39.2146C28.7341 39.4334 29.0251 39.7068 29.3982 39.8709C29.7703 40.0349 30.2205 40.075 30.575 39.8748C30.8914 39.697 31.0818 39.365 31.3289 39.0994C31.7566 38.6384 32.3865 38.3709 33.0154 38.3816C33.6453 38.3933 34.2644 38.6824 34.6765 39.1589C35.2644 39.8376 36.2986 40.0896 37.0154 39.5486C37.5164 39.1687 37.8552 38.4802 38.4812 38.4236C39.0671 38.3708 39.5437 38.9216 40.1267 38.9978C40.8181 39.0886 41.4412 38.4988 42.1375 38.5085C42.6804 38.5173 43.3142 38.9294 43.6326 39.3582C43.9949 39.8474 44.2205 40.0896 44.9119 40.0437C44.9314 40.0427 44.9509 40.0408 44.9705 40.0388Z" fill="#43AF3E"/>
<path d="M44.9707 40.0391C44.7783 40.2959 44.5801 40.5478 44.3779 40.7959C44.2607 40.9404 44.1416 41.083 44.0205 41.2246C43.8398 41.4365 43.6553 41.6455 43.4678 41.8506C43.3965 41.9287 43.3252 42.0058 43.2529 42.083H25.0771V40.8076C25.1104 40.8027 25.1445 40.7959 25.1777 40.7861C25.6445 40.6494 25.8018 40.0859 26.0771 39.6855C26.5703 38.9688 27.6572 38.7471 28.3916 39.2148C28.7344 39.4336 29.0254 39.707 29.3984 39.8711C29.7705 40.0352 30.2207 40.0752 30.5752 39.875C30.8916 39.6973 31.082 39.3652 31.3291 39.0996C31.7568 38.6387 32.3867 38.3711 33.0156 38.3818C33.6455 38.3936 34.2646 38.6826 34.6768 39.1592C35.2646 39.8379 36.2988 40.0898 37.0156 39.5488C37.5166 39.1689 37.8555 38.4805 38.4814 38.4238C39.0674 38.3711 39.5439 38.9219 40.127 38.9981C40.8184 39.0889 41.4414 38.499 42.1377 38.5088C42.6807 38.5176 43.3145 38.9297 43.6328 39.3584C43.9951 39.8477 44.2207 40.0898 44.9121 40.0439C44.9316 40.043 44.9512 40.041 44.9707 40.0391Z" fill="#00A23E"/>
<path d="M7.43896 37.1212H8.17861V41.5891H7.43896V37.1212Z" fill="#EC771B"/>
<path d="M7.80859 37.1212H8.17842V41.5891H7.80859V37.1212Z" fill="#C55732"/>
<path d="M7.43896 37.1212H7.80879V40.195H7.43896V37.1212Z" fill="#C55732"/>
<path d="M7.80859 37.1212H8.17842V40.195H7.80859V37.1212Z" fill="#A44E3E"/>
<path d="M10.5833 38.2478C10.5909 39.0068 9.95263 39.6278 9.19384 39.6278H6.42362C5.66454 39.6278 5.02655 39.0068 5.03388 38.2478C5.03788 37.8719 5.19325 37.5323 5.44257 37.2876C5.56063 37.1713 5.62108 37.0079 5.61073 36.8422C5.60888 36.8137 5.608 36.7845 5.608 36.7554C5.608 36.2936 5.8369 35.8852 6.18798 35.638C6.34559 35.5269 6.44247 35.3486 6.44247 35.1558V35.1333C6.44247 34.3787 7.05399 33.7669 7.80858 33.7669C7.81649 33.7669 7.82411 33.7672 7.83192 33.7672C8.20663 33.7733 8.54218 33.9333 8.78446 34.185C9.02645 34.437 9.17499 34.7811 9.17499 35.1557C9.17499 35.3485 9.27186 35.5268 9.42938 35.6379C9.78007 35.8851 10.0094 36.2935 10.0094 36.7553C10.0094 36.7844 10.0085 36.8136 10.0066 36.8421C9.99599 37.0079 10.0564 37.1713 10.1749 37.2875C10.4238 37.5324 10.5796 37.8719 10.5833 38.2478Z" fill="#B6E337"/>
<path d="M10.5833 38.2478C10.5909 39.0068 9.9526 39.6278 9.19381 39.6278H7.15299C6.79381 39.6278 6.49166 39.0068 6.49527 38.2478C6.49713 37.8719 6.57056 37.5323 6.68873 37.2876C6.74459 37.1713 6.7731 37.0079 6.76832 36.8422C6.76744 36.8137 6.76705 36.7845 6.76705 36.7554C6.76705 36.2936 6.87545 35.8852 7.04156 35.638C7.11598 35.5269 7.16178 35.3486 7.16178 35.1558V35.1333C7.16178 34.3787 7.45142 33.7669 7.80855 33.7669C7.81217 33.7669 7.81588 33.7672 7.81949 33.7672H7.83199C8.2067 33.7733 8.54225 33.9333 8.78453 34.185C9.02652 34.437 9.17506 34.7811 9.17506 35.1557C9.17506 35.3485 9.27193 35.5268 9.42955 35.6379C9.78023 35.8851 10.0095 36.2935 10.0095 36.7553C10.0095 36.7844 10.0087 36.8136 10.0068 36.8421C9.99615 37.0079 10.0566 37.1713 10.1751 37.2875C10.4238 37.5324 10.5796 37.8719 10.5833 38.2478Z" fill="#6CDC2D"/>
<path d="M10.5833 38.2478C10.5909 39.0068 9.95263 39.6278 9.19385 39.6278H7.80859V33.7669C7.8165 33.7669 7.82412 33.7672 7.83193 33.7672C8.20664 33.7733 8.54219 33.9333 8.78447 34.185C9.02646 34.437 9.175 34.7811 9.175 35.1557C9.175 35.3485 9.27187 35.5268 9.42939 35.6379C9.78008 35.8851 10.0094 36.2935 10.0094 36.7553C10.0094 36.7844 10.0085 36.8136 10.0066 36.8421C9.99599 37.0079 10.0564 37.1713 10.1749 37.2875C10.4238 37.5324 10.5796 37.8719 10.5833 38.2478Z" fill="#5DBF1D"/>
<path d="M16.1621 37.6052H16.8217V41.5892H16.1621V37.6052Z" fill="#EC771B"/>
<path d="M16.4919 37.6052H16.8217V41.5892H16.4919V37.6052Z" fill="#C55732"/>
<path d="M16.1621 37.6052H16.4919V40.3462H16.1621V37.6052Z" fill="#C55732"/>
<path d="M16.4919 37.6052H16.8217V40.3462H16.4919V37.6052Z" fill="#A44E3E"/>
<path d="M18.966 38.6097C18.9728 39.2866 18.4036 39.8403 17.727 39.8403H15.2567C14.5798 39.8403 14.0109 39.2866 14.0174 38.6097C14.0209 38.2744 14.1596 37.9718 14.3818 37.7535C14.4872 37.6498 14.541 37.5041 14.5318 37.3562C14.5302 37.3307 14.5294 37.3048 14.5294 37.2788C14.5294 36.867 14.7336 36.5028 15.0466 36.2824C15.1871 36.1833 15.2735 36.0244 15.2735 35.8524V35.8324C15.2735 35.1596 15.8189 34.614 16.4917 34.614C16.4987 34.614 16.5055 34.6142 16.5125 34.6142C16.8467 34.6197 17.1458 34.7624 17.3619 34.9868C17.5777 35.2115 17.7102 35.5183 17.7102 35.8524C17.7102 36.0244 17.7966 36.1833 17.9371 36.2824C18.2498 36.5028 18.4543 36.867 18.4543 37.2788C18.4543 37.3048 18.4535 37.3307 18.4519 37.3562C18.4424 37.5041 18.4963 37.6498 18.6019 37.7535C18.8239 37.9717 18.9628 38.2744 18.966 38.6097Z" fill="#B6E337"/>
<path d="M18.9661 38.6097C18.9729 39.2866 18.4037 39.8403 17.7271 39.8403H15.9072C15.5869 39.8403 15.3175 39.2866 15.3207 38.6097C15.3224 38.2744 15.3879 37.9718 15.4932 37.7535C15.543 37.6498 15.5685 37.5041 15.5642 37.3562C15.5634 37.3307 15.5631 37.3048 15.5631 37.2788C15.5631 36.867 15.6598 36.5028 15.8079 36.2824C15.8742 36.1833 15.9151 36.0244 15.9151 35.8524V35.8324C15.9151 35.1596 16.1734 34.614 16.4919 34.614C16.4951 34.614 16.4984 34.6142 16.5017 34.6142H16.5128C16.847 34.6197 17.1461 34.7624 17.3622 34.9868C17.578 35.2115 17.7105 35.5183 17.7105 35.8524C17.7105 36.0244 17.7969 36.1833 17.9374 36.2824C18.2501 36.5028 18.4546 36.867 18.4546 37.2788C18.4546 37.3048 18.4538 37.3307 18.4522 37.3562C18.4427 37.5041 18.4966 37.6498 18.6022 37.7535C18.824 37.9717 18.9629 38.2744 18.9661 38.6097Z" fill="#6CDC2D"/>
<path d="M18.9661 38.6097C18.9729 39.2866 18.4037 39.8403 17.7271 39.8403H16.4918V34.614C16.4989 34.614 16.5056 34.6142 16.5126 34.6142C16.8468 34.6197 17.1459 34.7624 17.362 34.9868C17.5779 35.2115 17.7103 35.5183 17.7103 35.8524C17.7103 36.0244 17.7967 36.1833 17.9372 36.2824C18.2499 36.5028 18.4544 36.867 18.4544 37.2788C18.4544 37.3048 18.4536 37.3307 18.452 37.3562C18.4425 37.5041 18.4964 37.6498 18.602 37.7535C18.824 37.9717 18.9629 38.2744 18.9661 38.6097Z" fill="#5DBF1D"/>
<path d="M35.0055 37.6052H35.6651V41.5892H35.0055V37.6052Z" fill="#EC771B"/>
<path d="M35.3353 37.6052H35.6651V41.5892H35.3353V37.6052Z" fill="#C55732"/>
<path d="M35.0055 37.6052H35.3353V40.3462H35.0055V37.6052Z" fill="#C55732"/>
<path d="M35.3353 37.6052H35.6651V40.3462H35.3353V37.6052Z" fill="#A44E3E"/>
<path d="M37.8094 38.6097C37.8162 39.2866 37.247 39.8403 36.5704 39.8403H34.1002C33.4232 39.8403 32.8544 39.2866 32.8609 38.6097C32.8644 38.2744 33.0031 37.9718 33.2253 37.7535C33.3306 37.6498 33.3845 37.5041 33.3753 37.3562C33.3737 37.3307 33.3729 37.3048 33.3729 37.2788C33.3729 36.867 33.5771 36.5028 33.8901 36.2824C34.0306 36.1833 34.117 36.0244 34.117 35.8524V35.8324C34.117 35.1596 34.6624 34.614 35.3352 34.614C35.3422 34.614 35.349 34.6142 35.3561 34.6142C35.6902 34.6197 35.9894 34.7624 36.2055 34.9868C36.4213 35.2115 36.5538 35.5183 36.5538 35.8524C36.5538 36.0244 36.6401 36.1833 36.7806 36.2824C37.0933 36.5028 37.2978 36.867 37.2978 37.2788C37.2978 37.3048 37.297 37.3307 37.2954 37.3562C37.2859 37.5041 37.3398 37.6498 37.4454 37.7535C37.6672 37.9717 37.8062 38.2744 37.8094 38.6097Z" fill="#B6E337"/>
<path d="M37.8095 38.6097C37.8162 39.2866 37.2471 39.8403 36.5704 39.8403H34.7506C34.4303 39.8403 34.1609 39.2866 34.1641 38.6097C34.1658 38.2744 34.2313 37.9718 34.3366 37.7535C34.3864 37.6498 34.4118 37.5041 34.4075 37.3562C34.4067 37.3307 34.4064 37.3048 34.4064 37.2788C34.4064 36.867 34.5031 36.5028 34.6512 36.2824C34.7175 36.1833 34.7584 36.0244 34.7584 35.8524V35.8324C34.7584 35.1596 35.0167 34.614 35.3352 34.614C35.3384 34.614 35.3416 34.6142 35.3449 34.6142H35.3561C35.6902 34.6197 35.9894 34.7624 36.2055 34.9868C36.4213 35.2115 36.5537 35.5183 36.5537 35.8524C36.5537 36.0244 36.6401 36.1833 36.7806 36.2824C37.0933 36.5028 37.2978 36.867 37.2978 37.2788C37.2978 37.3048 37.297 37.3307 37.2953 37.3562C37.2859 37.5041 37.3398 37.6498 37.4453 37.7535C37.6673 37.9717 37.8063 38.2744 37.8095 38.6097Z" fill="#6CDC2D"/>
<path d="M37.8095 38.6097C37.8163 39.2866 37.2471 39.8403 36.5705 39.8403H35.3352V34.614C35.3422 34.614 35.349 34.6142 35.3561 34.6142C35.6902 34.6197 35.9894 34.7624 36.2055 34.9868C36.4213 35.2115 36.5538 35.5183 36.5538 35.8524C36.5538 36.0244 36.6401 36.1833 36.7806 36.2824C37.0933 36.5028 37.2978 36.867 37.2978 37.2788C37.2978 37.3048 37.297 37.3307 37.2954 37.3562C37.2859 37.5041 37.3398 37.6498 37.4454 37.7535C37.6673 37.9717 37.8063 38.2744 37.8095 38.6097Z" fill="#5DBF1D"/>
<path d="M13.0836 38.3697H13.6167V41.5896H13.0836V38.3697Z" fill="#EC771B"/>
<path d="M13.3501 38.3697H13.6166V41.5896H13.3501V38.3697Z" fill="#C55732"/>
<path d="M13.0836 38.3697H13.3501V40.5849H13.0836V38.3697Z" fill="#C55732"/>
<path d="M13.3501 38.3697H13.6166V40.5849H13.3501V38.3697Z" fill="#A44E3E"/>
<path d="M15.3498 39.1814C15.3553 39.7285 14.8953 40.176 14.3485 40.176H12.3521C11.805 40.176 11.3452 39.7285 11.3505 39.1814C11.3533 38.9105 11.4654 38.6659 11.645 38.4894C11.7302 38.4056 11.7738 38.2879 11.7662 38.1684C11.765 38.1478 11.7643 38.1268 11.7643 38.1058C11.7643 37.773 11.9293 37.4787 12.1822 37.3006C12.2958 37.2205 12.3656 37.0921 12.3656 36.953V36.9368C12.3656 36.393 12.8064 35.952 13.3502 35.952C13.3559 35.952 13.3613 35.9522 13.3671 35.9522C13.6371 35.9566 13.8789 36.0719 14.0535 36.2533C14.228 36.4349 14.335 36.6829 14.335 36.9529C14.335 37.0919 14.4048 37.2203 14.5184 37.3005C14.7711 37.4786 14.9363 37.7729 14.9363 38.1057C14.9363 38.1267 14.9357 38.1477 14.9344 38.1683C14.9267 38.2878 14.9702 38.4055 15.0556 38.4893C15.235 38.6659 15.3472 38.9105 15.3498 39.1814Z" fill="#B6E337"/>
<path d="M15.3499 39.1814C15.3554 39.7285 14.8954 40.176 14.3485 40.176H12.8777C12.6188 40.176 12.4011 39.7285 12.4037 39.1814C12.405 38.9105 12.458 38.6659 12.5431 38.4894C12.5833 38.4056 12.6039 38.2879 12.6004 38.1684C12.5997 38.1478 12.5995 38.1268 12.5995 38.1058C12.5995 37.773 12.6776 37.4787 12.7974 37.3006C12.851 37.2205 12.884 37.0921 12.884 36.953V36.9368C12.884 36.393 13.0928 35.952 13.3501 35.952C13.3527 35.952 13.3554 35.9522 13.358 35.9522H13.367C13.637 35.9566 13.8788 36.0719 14.0534 36.2533C14.2278 36.4349 14.3349 36.6829 14.3349 36.9529C14.3349 37.0919 14.4047 37.2203 14.5183 37.3005C14.771 37.4786 14.9362 37.7729 14.9362 38.1057C14.9362 38.1267 14.9355 38.1477 14.9343 38.1683C14.9266 38.2878 14.9701 38.4055 15.0555 38.4893C15.2351 38.6659 15.3473 38.9105 15.3499 39.1814Z" fill="#6CDC2D"/>
<path d="M15.3497 39.1814C15.3552 39.7285 14.8952 40.1761 14.3483 40.1761H13.35V35.9521C13.3556 35.9521 13.3611 35.9523 13.3669 35.9523C13.6369 35.9567 13.8787 36.0721 14.0533 36.2534C14.2277 36.4351 14.3347 36.683 14.3347 36.953C14.3347 37.092 14.4046 37.2204 14.5181 37.3006C14.7709 37.4787 14.9361 37.773 14.9361 38.1059C14.9361 38.1269 14.9354 38.1479 14.9342 38.1685C14.9264 38.2879 14.97 38.4057 15.0554 38.4895C15.2348 38.6659 15.3471 38.9106 15.3497 39.1814Z" fill="#5DBF1D"/>
<path d="M31.6315 38.3697H32.1646V41.5896H31.6315V38.3697Z" fill="#EC771B"/>
<path d="M31.8979 38.3697H32.1645V41.5896H31.8979V38.3697Z" fill="#C55732"/>
<path d="M31.6315 38.3697H31.898V40.5849H31.6315V38.3697Z" fill="#C55732"/>
<path d="M31.8979 38.3697H32.1645V40.5849H31.8979V38.3697Z" fill="#A44E3E"/>
<path d="M33.8978 39.1814C33.9033 39.7285 33.4433 40.176 32.8964 40.176H30.9C30.353 40.176 29.8932 39.7285 29.8985 39.1814C29.9013 38.9105 30.0134 38.6659 30.193 38.4894C30.2782 38.4056 30.3217 38.2879 30.3142 38.1684C30.3129 38.1478 30.3123 38.1268 30.3123 38.1058C30.3123 37.773 30.4773 37.4787 30.7302 37.3006C30.8438 37.2205 30.9136 37.0921 30.9136 36.953V36.9368C30.9136 36.393 31.3543 35.952 31.8981 35.952C31.9038 35.952 31.9092 35.9522 31.915 35.9522C32.185 35.9566 32.4268 36.0719 32.6014 36.2533C32.7758 36.4349 32.8829 36.6829 32.8829 36.9529C32.8829 37.0919 32.9527 37.2203 33.0663 37.3005C33.319 37.4786 33.4842 37.7729 33.4842 38.1057C33.4842 38.1267 33.4835 38.1477 33.4823 38.1683C33.4747 38.2878 33.5181 38.4055 33.6035 38.4893C33.7829 38.6659 33.8952 38.9105 33.8978 39.1814Z" fill="#B6E337"/>
<path d="M33.8979 39.1814C33.9033 39.7285 33.4434 40.176 32.8965 40.176H31.4257C31.1668 40.176 30.949 39.7285 30.9517 39.1814C30.953 38.9105 31.006 38.6659 31.091 38.4894C31.1313 38.4056 31.1519 38.2879 31.1484 38.1684C31.1477 38.1478 31.1475 38.1268 31.1475 38.1058C31.1475 37.773 31.2256 37.4787 31.3453 37.3006C31.399 37.2205 31.432 37.0921 31.432 36.953V36.9368C31.432 36.393 31.6407 35.952 31.8981 35.952C31.9007 35.952 31.9033 35.9522 31.906 35.9522H31.915C32.185 35.9566 32.4268 36.0719 32.6014 36.2533C32.7758 36.4349 32.8828 36.6829 32.8828 36.9529C32.8828 37.0919 32.9527 37.2203 33.0662 37.3005C33.319 37.4786 33.4842 37.7729 33.4842 38.1057C33.4842 38.1267 33.4835 38.1477 33.4823 38.1683C33.4746 38.2878 33.5181 38.4055 33.6034 38.4893C33.7829 38.6659 33.8952 38.9105 33.8979 39.1814Z" fill="#6CDC2D"/>
<path d="M33.8977 39.1814C33.9031 39.7285 33.4432 40.1761 32.8963 40.1761H31.8979V35.9521C31.9036 35.9521 31.9091 35.9523 31.9148 35.9523C32.1849 35.9567 32.4267 36.0721 32.6013 36.2534C32.7757 36.4351 32.8827 36.683 32.8827 36.953C32.8827 37.092 32.9525 37.2204 33.0661 37.3006C33.3189 37.4787 33.4841 37.773 33.4841 38.1059C33.4841 38.1269 33.4834 38.1479 33.4821 38.1685C33.4745 38.2879 33.518 38.4057 33.6033 38.4895C33.7827 38.6659 33.895 38.9106 33.8977 39.1814Z" fill="#5DBF1D"/>
<path d="M21.605 44.5214H22.6915V47.3373H21.605V44.5214Z" fill="#D85E39"/>
<path d="M22.1483 44.5214H22.6916V47.3373H22.1483V44.5214Z" fill="#C94D31"/>
<path d="M24.5336 44.5214H25.6201V47.3373H24.5336V44.5214Z" fill="#D85E39"/>
<path d="M25.0769 44.5214H25.6202V47.3373H25.0769V44.5214Z" fill="#C94D31"/>
<path d="M27.4618 44.5214H28.5483V47.3373H27.4618V44.5214Z" fill="#D85E39"/>
<path d="M28.0051 44.5214H28.5484V47.3373H28.0051V44.5214Z" fill="#C94D31"/>
<path d="M30.3905 44.5214H31.477V47.3373H30.3905V44.5214Z" fill="#D85E39"/>
<path d="M30.9338 44.5214H31.4771V47.3373H30.9338V44.5214Z" fill="#C94D31"/>
<path d="M33.3188 44.5214H34.4054V47.3373H33.3188V44.5214Z" fill="#D85E39"/>
<path d="M33.8621 44.5214H34.4053V47.3373H33.8621V44.5214Z" fill="#C94D31"/>
<path d="M37.334 44.5216V46.7501C37.1543 46.8527 36.9736 46.9523 36.791 47.0499C36.6113 47.1466 36.4297 47.2404 36.2471 47.3321V44.5216H37.334Z" fill="#D85E39"/>
<path d="M37.3341 44.5216V46.7501C37.1544 46.8527 36.9738 46.9523 36.7911 47.0499V44.5216H37.3341Z" fill="#C94D31"/>
<path d="M40.2625 44.5216V44.8009C39.908 45.0753 39.5457 45.34 39.1755 45.5948V44.5216H40.2625Z" fill="#D85E39"/>
<path d="M40.2628 44.5216V44.8009C40.0831 44.9396 39.9025 45.0763 39.7189 45.2091V44.5216H40.2628Z" fill="#C94D31"/>
<path d="M20.7869 44.187V44.8555H19.2426C18.883 44.8555 18.5902 45.1483 18.5902 45.5093V47.3374H17.9216V45.5093C17.9216 44.7807 18.5139 44.187 19.2426 44.187H20.7869Z" fill="#6E6F83"/>
<path d="M20.7871 44.521V44.8553H19.2428C18.8832 44.8553 18.5904 45.1481 18.5904 45.5091V47.3372H18.2561V45.5091C18.2561 44.9636 18.6973 44.521 19.2428 44.521H20.7871Z" fill="#605F74"/>
<path d="M21.8138 42.5442H22.4823V44.5214H21.8138V42.5442Z" fill="#6E6F83"/>
<path d="M22.1483 42.5442H22.4826V44.5214H22.1483V42.5442Z" fill="#605F74"/>
<path d="M24.7422 42.5442H25.4106V44.5214H24.7422V42.5442Z" fill="#6E6F83"/>
<path d="M25.0767 42.5442H25.4109V44.5214H25.0767V42.5442Z" fill="#605F74"/>
<path d="M27.6709 42.5442H28.3394V44.5214H27.6709V42.5442Z" fill="#6E6F83"/>
<path d="M28.0051 42.5442H28.3394V44.5214H28.0051V42.5442Z" fill="#605F74"/>
<path d="M30.5994 42.5442H31.2678V44.5214H30.5994V42.5442Z" fill="#6E6F83"/>
<path d="M30.9337 42.5442H31.268V44.5214H30.9337V42.5442Z" fill="#605F74"/>
<path d="M33.5277 42.5442H34.1962V44.5214H33.5277V42.5442Z" fill="#6E6F83"/>
<path d="M33.8622 42.5442H34.1965V44.5214H33.8622V42.5442Z" fill="#605F74"/>
<path d="M36.4564 42.5442H37.1249V44.5214H36.4564V42.5442Z" fill="#6E6F83"/>
<path d="M36.7908 42.5442H37.125V44.5214H36.7908V42.5442Z" fill="#605F74"/>
<path d="M39.3846 42.5442H40.0531V44.5214H39.3846V42.5442Z" fill="#6E6F83"/>
<path d="M39.719 42.5442H40.0533V44.5214H39.719V42.5442Z" fill="#605F74"/>
<path d="M41.5361 43.7493C40.918 44.2961 40.2725 44.8118 39.6016 45.2942H20.0918C19.665 45.2942 19.3203 44.9485 19.3203 44.5217C19.3203 44.3079 19.4062 44.1145 19.5459 43.9749C19.6855 43.8352 19.8789 43.7493 20.0918 43.7493H41.5361Z" fill="#F99568"/>
<path d="M40.6191 44.5216C40.2871 44.7872 39.9473 45.045 39.6016 45.2941H20.0918C19.665 45.2941 19.3203 44.9484 19.3203 44.5216H40.6191Z" fill="#ED784A"/>
<path d="M23.829 48.4776C23.829 48.6407 23.6971 48.7725 23.5341 48.7725H22.953C22.8807 48.7725 22.8153 48.8018 22.7675 48.8497C22.7206 48.8965 22.6913 48.962 22.6913 49.0342C22.6913 49.1788 22.8085 49.296 22.953 49.296H22.9716C23.076 49.296 23.1708 49.3379 23.2391 49.4073C23.3085 49.4756 23.3505 49.5704 23.3505 49.6749C23.3505 49.7774 23.3104 49.8712 23.243 49.9385C22.4042 49.8809 21.576 49.7813 20.7616 49.6407C20.7821 49.4288 20.9608 49.2628 21.1776 49.2628H21.2831C21.4276 49.2628 21.5448 49.1456 21.5448 49.001V48.8897C21.5448 48.7452 21.4276 48.628 21.2831 48.628H21.1385C21.0546 48.628 20.9774 48.5938 20.9218 48.5381C20.8661 48.4825 20.8319 48.4063 20.8319 48.3213C20.8319 48.2364 20.8661 48.1602 20.9218 48.1046C20.9774 48.0489 21.0546 48.0147 21.1385 48.0147C21.3964 48.0147 21.6044 47.8067 21.6044 47.5489V47.337H22.6913V47.7159C22.6913 47.9737 22.9003 48.1827 23.1581 48.1827H23.5341C23.6971 48.1827 23.829 48.3145 23.829 48.4776Z" fill="#63DBFA"/>
<path d="M32.6141 48.4776C32.6141 48.6407 32.4823 48.7725 32.3192 48.7725H31.7391C31.6659 48.7725 31.6005 48.8018 31.5536 48.8497C31.5057 48.8965 31.4764 48.962 31.4764 49.0342C31.4764 49.0743 31.4852 49.1124 31.5018 49.1456C30.7509 49.3477 29.9852 49.5157 29.2069 49.6465C29.2235 49.4317 29.4042 49.2628 29.6229 49.2628H30.0682C30.2137 49.2628 30.3309 49.1456 30.3309 49.001V48.8897C30.3309 48.7452 30.2137 48.628 30.0682 48.628H29.9237C29.8397 48.628 29.7626 48.5938 29.7069 48.5381C29.6512 48.4825 29.6171 48.4063 29.6171 48.3213C29.6171 48.2364 29.6512 48.1602 29.7069 48.1046C29.7626 48.0489 29.8397 48.0147 29.9237 48.0147C30.1815 48.0147 30.3905 47.8067 30.3905 47.5489V47.337H31.4764V47.7159C31.4764 47.9737 31.6854 48.1827 31.9432 48.1827H32.3192C32.4823 48.1827 32.6141 48.3145 32.6141 48.4776Z" fill="#3DCAEA"/>
<path d="M26.8048 49.5694C26.8048 49.6846 26.7579 49.7891 26.6827 49.8653C26.6466 49.9014 26.6046 49.9317 26.5558 49.9512L26.5548 49.9522C26.5216 49.9542 26.4874 49.9561 26.4542 49.9581C26.4366 49.959 26.4191 49.96 26.4015 49.961C26.3058 49.9669 26.2091 49.9717 26.1134 49.9756C26.0831 49.9766 26.0528 49.9786 26.0226 49.9796C25.8839 49.9854 25.7443 49.9893 25.6046 49.9922C25.5333 49.9942 25.462 49.9962 25.3907 49.9971C25.2862 49.9991 25.1818 50.0001 25.0773 49.9991C25.0519 50.0001 25.0255 50.0001 25.0001 50.0001C24.8038 50.0001 24.6085 49.9981 24.4132 49.9922C24.3673 49.961 24.3136 49.9424 24.254 49.9424H23.9152C23.7062 49.9424 23.5363 49.7735 23.5363 49.5635C23.5363 49.459 23.5782 49.3643 23.6476 49.296C23.7159 49.2266 23.8107 49.1846 23.9152 49.1846H24.007C24.298 49.1846 24.5333 48.9493 24.5333 48.6583V47.337H25.6202V47.5489C25.6202 47.8067 25.8292 48.0147 26.087 48.0147C26.172 48.0147 26.2482 48.0489 26.3028 48.1046C26.3585 48.1602 26.3927 48.2364 26.3927 48.3213C26.3927 48.4063 26.3585 48.4825 26.3028 48.5381C26.2482 48.5938 26.172 48.628 26.087 48.628H25.9415C25.797 48.628 25.6798 48.7452 25.6798 48.8897C25.6798 48.962 25.7091 49.0274 25.756 49.0743C25.8038 49.1221 25.8693 49.1514 25.9415 49.1514H26.3878C26.6183 49.1514 26.8048 49.3389 26.8048 49.5694Z" fill="#63DBFA"/>
<path d="M27.182 48.8052C27.3363 48.8052 27.4615 48.9303 27.4615 49.0847V49.2235C27.4615 49.5237 27.7049 49.767 28.005 49.767C28.3051 49.767 28.5484 49.5236 28.5484 49.2235V47.3375H27.4614V47.7671C27.4614 47.9218 27.3359 48.0472 27.1812 48.0472H27.0244C26.9201 48.0472 26.8252 48.09 26.757 48.1583C26.6708 48.2444 26.6252 48.3734 26.6553 48.5099C26.6941 48.6865 26.8616 48.8054 27.0424 48.8054H27.182V48.8052Z" fill="#3DCAEA"/>
<path d="M34.5657 48.1036C34.1555 48.2745 33.7395 48.4337 33.3186 48.5821V47.337H34.4055V47.8506C34.4055 47.962 34.4709 48.0587 34.5657 48.1036Z" fill="#3DCAEA"/>
<path d="M19.3887 48.7999V48.8174C19.3887 48.9493 19.2822 49.0557 19.1514 49.0557H18.8506C18.7734 49.0557 18.7051 49.087 18.6543 49.1368C18.6416 49.1495 18.6299 49.1641 18.6201 49.1788C18.168 49.0596 17.7207 48.9288 17.2793 48.7842C17.3047 48.6719 17.4053 48.5889 17.5244 48.5889H17.7129C17.7695 48.5889 17.8213 48.5665 17.8584 48.5284C17.8965 48.4913 17.9189 48.4395 17.9189 48.3829C17.9189 48.2696 17.8271 48.1768 17.7129 48.1768H17.6191C17.5508 48.1768 17.4893 48.1495 17.4443 48.1046C17.3994 48.0606 17.3721 47.9981 17.3721 47.9307C17.3721 47.795 17.4824 47.6846 17.6191 47.6846H17.6758C17.8115 47.6846 17.9219 47.5743 17.9219 47.4376V47.337H18.5908V47.3887C18.5908 47.5176 18.6943 47.6212 18.8232 47.6212H18.9092C18.9746 47.6212 19.0342 47.6475 19.0771 47.6905C19.1201 47.7344 19.1465 47.793 19.1465 47.8594C19.1465 47.9903 19.04 48.0967 18.9092 48.0967H18.8066C18.7422 48.0967 18.6836 48.1231 18.6416 48.1641C18.5996 48.2071 18.5732 48.2647 18.5732 48.3292C18.5732 48.4581 18.6777 48.5626 18.8066 48.5626H19.1514C19.2822 48.5626 19.3887 48.669 19.3887 48.7999Z" fill="#63DBFA"/>
<path d="M42.8107 42.5441C42.6993 42.6573 42.586 42.7697 42.4728 42.879C42.3575 42.9923 42.2423 43.1036 42.1251 43.213H21.379C21.2872 43.213 21.2032 43.1759 21.1427 43.1154C21.0822 43.0548 21.0441 42.9708 21.0441 42.879C21.0441 42.6945 21.1945 42.5441 21.379 42.5441H42.8107Z" fill="#6E6F83"/>
<path d="M42.4728 42.8788C42.3576 42.9921 42.2423 43.1035 42.1251 43.2128H21.379C21.2872 43.2128 21.2032 43.1757 21.1427 43.1152C21.0822 43.0546 21.0441 42.9706 21.0441 42.8788H42.4728Z" fill="#605F74"/>
<path d="M24.0055 47.936L23.4625 47.9494C23.3318 47.9494 23.2257 47.8433 23.2257 47.7125C23.2257 47.5818 23.3318 47.4757 23.4625 47.4757L24.0055 47.4623C24.1363 47.4623 24.2423 47.5684 24.2423 47.6992C24.2423 47.8299 24.1363 47.936 24.0055 47.936Z" fill="#92EAFF"/>
<path d="M29.6759 47.8563L29.0081 47.8696C28.8773 47.8696 28.7712 47.7636 28.7712 47.6328C28.7712 47.5021 28.8773 47.396 29.0081 47.396L29.6759 47.3826C29.8067 47.3826 29.9127 47.4887 29.9127 47.6194C29.9127 47.7502 29.8067 47.8563 29.6759 47.8563Z" fill="white"/>
<path d="M32.4058 47.8014L32.0581 47.8148C31.9273 47.8148 31.8213 47.7087 31.8213 47.578C31.8213 47.4472 31.9273 47.3411 32.0581 47.3411L32.4058 47.3278C32.5365 47.3278 32.6426 47.4338 32.6426 47.5646C32.6426 47.6953 32.5365 47.8014 32.4058 47.8014Z" fill="white"/>
<path d="M44.0203 41.2245C43.8396 41.4365 43.655 41.6454 43.4675 41.8505C43.3962 41.9286 43.325 42.0058 43.2527 42.0829H6.74683C6.67456 42.0058 6.60327 41.9286 6.53198 41.8505C6.34448 41.6454 6.15991 41.4365 5.98022 41.2245H44.0203Z" fill="#00A23E"/>
<path d="M44.0205 41.2245C43.8398 41.4365 43.6553 41.6454 43.4678 41.8505C43.3965 41.9286 43.3252 42.0058 43.2529 42.0829H25.0771V41.2245H44.0205Z" fill="#008839"/>
<path d="M18.7866 10.0976C18.7866 10.0914 18.7871 10.0855 18.7871 10.0793C18.7871 8.96145 17.8808 8.0552 16.7629 8.0552C16.4974 8.0552 16.244 8.10686 16.0117 8.19983C15.5628 7.39573 14.704 6.85168 13.7177 6.85168C12.4369 6.85168 11.3708 7.76897 11.1391 8.98225C11.0701 8.97239 10.9995 8.96692 10.9277 8.96692C10.2313 8.96692 9.6479 9.44895 9.49194 10.0975H18.7866V10.0976Z" fill="white"/>
<path d="M16.8116 10.0976C16.8116 10.0941 16.8119 10.0907 16.8119 10.0872C16.8119 9.44441 16.2908 8.92332 15.648 8.92332C15.4953 8.92332 15.3496 8.953 15.216 9.00652C14.9579 8.54412 14.464 8.23132 13.8969 8.23132C13.1604 8.23132 12.5474 8.75876 12.4142 9.45642C12.3745 9.45076 12.3339 9.44763 12.2926 9.44763C11.8921 9.44763 11.5567 9.72488 11.467 10.0977H16.8116V10.0976Z" fill="#DFF7FD"/>
<path d="M28.7146 14.073C28.7145 14.0644 28.714 14.056 28.714 14.0474C28.714 12.4812 29.9836 11.2115 31.5497 11.2115C31.9218 11.2115 32.2768 11.2839 32.6024 11.4142C33.2312 10.2876 34.4344 9.52539 35.8162 9.52539C37.6107 9.52539 39.1042 10.8105 39.4288 12.5104C39.5256 12.4965 39.6244 12.4889 39.725 12.4889C40.7007 12.4889 41.5181 13.1643 41.7365 14.0729H28.7146V14.073Z" fill="white"/>
<path d="M31.4815 14.0729C31.4815 14.068 31.4811 14.0632 31.4811 14.0582C31.4811 13.1576 32.2112 12.4275 33.1117 12.4275C33.3257 12.4275 33.5298 12.4691 33.717 12.544C34.0786 11.8962 34.7705 11.4579 35.5651 11.4579C36.5969 11.4579 37.4557 12.1969 37.6424 13.1743C37.6981 13.1663 37.7549 13.162 37.8127 13.162C38.3738 13.162 38.8438 13.5504 38.9695 14.0728H31.4815V14.0729Z" fill="#DFF7FD"/>
<path d="M26.8047 49.5693C26.8047 49.6846 26.7578 49.7891 26.6826 49.8652C26.6465 49.9014 26.6045 49.9316 26.5557 49.9512C26.5225 49.9541 26.4883 49.9561 26.4541 49.958C26.4365 49.959 26.4189 49.96 26.4014 49.9609C26.3057 49.9668 26.209 49.9717 26.1133 49.9756C26.083 49.9766 26.0527 49.9785 26.0225 49.9795C25.8838 49.9853 25.7441 49.9893 25.6045 49.9922C25.5332 49.9941 25.4619 49.9961 25.3906 49.9971C25.2861 49.999 25.1816 50 25.0771 50V47.3369H25.6201V47.5488C25.6201 47.8066 25.8291 48.0146 26.0869 48.0146C26.1719 48.0146 26.248 48.0488 26.3027 48.1045C26.3584 48.1602 26.3926 48.2363 26.3926 48.3213C26.3926 48.4062 26.3584 48.4824 26.3027 48.5381C26.248 48.5937 26.1719 48.6279 26.0869 48.6279H25.9414C25.7969 48.6279 25.6797 48.7451 25.6797 48.8896C25.6797 48.9619 25.709 49.0273 25.7559 49.0742C25.8037 49.1221 25.8691 49.1514 25.9414 49.1514H26.3877C26.6182 49.1514 26.8047 49.3389 26.8047 49.5693Z" fill="#3DCAEA"/>
<g clip-path="url(#clip1_1_734)">
<path d="M25 50C38.8071 50 50 38.8071 50 25C50 11.1929 38.8071 0 25 0C11.1929 0 0 11.1929 0 25C0 38.8071 11.1929 50 25 50Z" fill="#1B3193"/>
<path d="M50 25C50.0025 27.5571 49.6122 30.0995 48.8427 32.5381C46.943 32.7857 45.0209 32.8113 43.1152 32.6143C42.9755 32.5996 42.8359 32.584 42.6963 32.5664C42.2451 32.5124 41.7975 32.4456 41.3535 32.3662C39.8055 32.0922 38.2882 31.6669 36.8232 31.0967C36.7187 31.0566 36.6142 31.0146 36.5097 30.9727C36.3427 30.9053 36.1777 30.8359 36.0127 30.7646C35.9189 30.7249 35.8252 30.6839 35.7314 30.6416L35.4384 30.5078L35.1679 30.3809L34.9365 30.2686C32.9601 29.2987 31.1241 28.0659 29.4785 26.6035C29.2089 26.3646 28.9449 26.1191 28.6865 25.8672C28.3844 25.5749 28.0914 25.2751 27.8076 24.9678C27.6962 24.8477 27.5869 24.7275 27.4785 24.6055C26.9248 23.9841 26.4033 23.3348 25.916 22.6602C24.1341 20.2035 22.8293 17.4342 22.0693 14.4961C21.8527 13.6613 21.6815 12.8153 21.5566 11.9619C20.9639 7.97123 21.3654 3.89594 22.7255 0.0976562C23.4742 0.0325521 24.2324 0 24.9999 0C38.8066 0 50 11.1934 50 25Z" fill="#2C5DFF"/>
<path d="M47.2774 24.9658C46.8059 27.4116 45.6111 29.6597 43.8477 31.4189L42.8984 32.3661L42.6602 32.6044L30.1602 45.1044C29.4807 45.7845 28.6738 46.324 27.7858 46.6921C26.8977 47.0602 25.9457 47.2497 24.9844 47.2497C24.023 47.2497 23.0711 47.0602 22.183 46.6921C21.2949 46.324 20.4881 45.7845 19.8086 45.1044L7.3086 32.6044L7.07032 32.3661L6.1211 31.4189C4.35694 29.6599 3.16147 27.4119 2.68946 24.9658C2.53827 24.1802 2.46209 23.382 2.46192 22.582C2.45964 20.1095 3.19117 17.6919 4.56387 15.6355C5.93657 13.579 7.88869 11.9762 10.173 11.0301C12.4573 10.0839 14.971 9.83689 17.3958 10.3204C19.8205 10.8039 22.0473 11.9961 23.794 13.746C24.1091 14.0607 24.5362 14.2374 24.9815 14.2374C25.4267 14.2374 25.8538 14.0607 26.169 13.746C28.0618 11.8541 30.5118 10.6195 33.1587 10.2241C35.8056 9.82861 38.5095 10.2931 40.8727 11.5492C43.2358 12.8053 45.1335 14.7866 46.2864 17.2018C47.4393 19.617 47.7867 22.3384 47.2774 24.9658Z" fill="#DD9EC1"/>
<path d="M28.6856 11.8008V46.2422C27.5631 46.8993 26.286 47.2456 24.9854 47.2456C23.6847 47.2456 22.4076 46.8993 21.2852 46.2422V11.8008C22.2024 12.3393 23.0468 12.993 23.7979 13.7461C24.113 14.0607 24.5401 14.2374 24.9854 14.2374C25.4307 14.2374 25.8577 14.0607 26.1729 13.7461C26.9241 12.9932 27.7685 12.3395 28.6856 11.8008Z" fill="#CF4849"/>
<path d="M47.2773 24.9658C46.8059 27.4117 45.6111 29.6597 43.8477 31.4189L42.8984 32.3662H7.07422L6.125 31.4189C4.36084 29.66 3.16537 27.4119 2.69336 24.9658H47.2773Z" fill="#CF4849"/>
<path d="M30.7705 44.4922L30.1602 45.1026C29.4807 45.7826 28.6738 46.3221 27.7857 46.6902C26.8977 47.0583 25.9457 47.2478 24.9844 47.2478C24.023 47.2478 23.0711 47.0583 22.183 46.6902C21.2949 46.3221 20.4881 45.7826 19.8086 45.1026L7.30859 32.6026L7.07031 32.3643L6.12109 31.417C4.35694 29.6581 3.16146 27.41 2.68945 24.9639C2.53827 24.1783 2.46208 23.3801 2.46191 22.5801C2.46254 20.4315 3.01697 18.3194 4.0717 16.4475C5.12644 14.5756 6.64586 13.0072 8.48333 11.8937C10.3208 10.7801 12.4143 10.1589 14.5618 10.0901C16.7092 10.0214 18.8382 10.5073 20.7432 11.501C18.7198 12.5593 17.0247 14.1512 15.8415 16.1042C14.6584 18.0571 14.0323 20.2967 14.0312 22.5801C14.0314 23.3801 14.1076 24.1783 14.2588 24.9639C14.7316 27.4099 15.9273 29.6579 17.6914 31.417L18.6396 32.3643L18.8789 32.6026L30.7705 44.4922Z" fill="#E13FA0"/>
<path d="M28.6856 42.4082V46.2422C27.5631 46.8993 26.286 47.2456 24.9854 47.2456C23.6847 47.2456 22.4076 46.8993 21.2852 46.2422V35.0117L28.6856 42.4082Z" fill="#A23D43"/>
<path d="M18.6436 32.3662H7.07422L6.125 31.4189C4.36084 29.66 3.16537 27.4119 2.69336 24.9658H14.2627C14.7355 27.4119 15.9312 29.6598 17.6953 31.4189L18.6436 32.3662Z" fill="#821A21"/>
<path d="M36.0137 28.1445C36.0137 24.0478 32.6309 22.833 31.0137 22.4863C30.4698 22.3109 29.8847 22.3097 29.3401 22.483C28.7956 22.6563 28.3188 22.9955 27.9764 23.453C27.6339 23.9105 27.443 24.4636 27.4303 25.0349C27.4175 25.6063 27.5836 26.1673 27.9053 26.6396C28.1291 26.9752 28.2476 27.3698 28.2457 27.7731C28.2438 28.1764 28.1215 28.5699 27.8945 28.9033C27.5895 29.3567 27.4272 29.891 27.4287 30.4375C27.4287 31.9717 28.7539 33.1885 30.2871 33.1719C36.2021 33.1055 36.0137 28.1445 36.0137 28.1445Z" fill="#AC3030"/>
<path d="M35.6582 28.045C35.6582 25.0176 33.1553 24.1163 31.959 23.8604C31.6874 23.7723 31.4001 23.743 31.1163 23.7745C30.7681 23.8122 30.4356 23.9395 30.1513 24.144C29.8669 24.3485 29.6404 24.6231 29.4937 24.9412C29.3471 25.2592 29.2854 25.6098 29.3145 25.9589C29.3437 26.3079 29.4628 26.6434 29.6602 26.9327C29.8256 27.1808 29.9133 27.4726 29.9119 27.7708C29.9105 28.069 29.8201 28.36 29.6524 28.6065C29.4262 28.9416 29.3061 29.337 29.3077 29.7413C29.3077 30.876 30.2842 31.7764 31.4219 31.7637C35.7969 31.7168 35.6582 28.045 35.6582 28.045Z" fill="#8F2F2F"/>
<path d="M35.6592 28.1446C35.6592 24.0479 39.0421 22.8331 40.6602 22.4864C41.2041 22.3106 41.7894 22.3092 42.3341 22.4824C42.8788 22.6557 43.3557 22.9949 43.6982 23.4526C44.0406 23.9102 44.2314 24.4635 44.2438 25.035C44.2563 25.6065 44.0898 26.1675 43.7676 26.6397C43.5432 26.9756 43.4244 27.3709 43.4265 27.7748C43.4286 28.1787 43.5515 28.5728 43.7794 28.9063C44.0841 29.3598 44.246 29.8941 44.2442 30.4405C44.2442 31.9746 42.919 33.1914 41.3858 33.1748C35.4708 33.1055 35.6592 28.1446 35.6592 28.1446Z" fill="#AC3030"/>
<path d="M36.0147 28.045C36.0147 25.0176 38.5176 24.1163 39.7139 23.8604C39.9855 23.7723 40.2728 23.743 40.5567 23.7745C40.9048 23.8122 41.2373 23.9395 41.5217 24.144C41.806 24.3485 42.0325 24.6231 42.1792 24.9412C42.3258 25.2592 42.3875 25.6098 42.3584 25.9589C42.3292 26.3079 42.2101 26.6434 42.0127 26.9327C41.8473 27.1808 41.7596 27.4726 41.761 27.7708C41.7624 28.069 41.8528 28.36 42.0205 28.6065C42.2467 28.9416 42.3669 29.337 42.3652 29.7413C42.3652 30.876 41.3887 31.7764 40.251 31.7637C35.876 31.7168 36.0147 28.045 36.0147 28.045Z" fill="#8F2F2F"/>
<path d="M36.0147 28.045L30.8594 42.2471C30.8457 42.2849 30.8441 42.3261 30.8547 42.3649C30.8653 42.4037 30.8876 42.4382 30.9186 42.4639C30.9495 42.4895 30.9877 42.505 31.0278 42.5081C31.0679 42.5113 31.108 42.502 31.1426 42.4815L32.3789 41.7481C32.6399 41.5933 32.9503 41.5442 33.2463 41.611C33.5423 41.6779 33.8015 41.8555 33.9707 42.1075L34.1113 42.3165C34.1337 42.3498 34.1657 42.3754 34.2031 42.3899C34.2405 42.4043 34.2814 42.407 34.3203 42.3974C34.3593 42.3878 34.3943 42.3664 34.4207 42.3362C34.4471 42.306 34.4635 42.2684 34.4678 42.2286L36.0147 28.045Z" fill="#8F2F2F"/>
<path d="M35.7158 28.045L40.8721 42.2471C40.8857 42.2849 40.8873 42.3261 40.8768 42.3649C40.8662 42.4037 40.8438 42.4382 40.8129 42.4639C40.7819 42.4895 40.7437 42.505 40.7036 42.5081C40.6636 42.5113 40.6235 42.502 40.5889 42.4815L39.3555 41.7481C39.0943 41.5932 38.7838 41.5441 38.4876 41.611C38.1914 41.6778 37.932 41.8554 37.7627 42.1075L37.623 42.3165C37.6007 42.3498 37.5687 42.3754 37.5313 42.3899C37.4939 42.4043 37.453 42.407 37.414 42.3974C37.3751 42.3878 37.3401 42.3664 37.3137 42.3362C37.2873 42.306 37.2709 42.2684 37.2666 42.2286L35.7158 28.045Z" fill="#8F2F2F"/>
<path d="M38.3008 28.1445C38.2884 28.7428 38.0421 29.3124 37.6146 29.7311C37.1871 30.1499 36.6126 30.3844 36.0142 30.3844C35.4158 30.3844 34.8412 30.1499 34.4137 29.7311C33.9863 29.3124 33.7399 28.7428 33.7276 28.1445C33.7266 27.8781 33.7729 27.6136 33.8643 27.3633C34.0247 26.9223 34.3169 26.5414 34.7012 26.2722C35.0856 26.003 35.5435 25.8586 36.0127 25.8586C36.482 25.8586 36.9398 26.003 37.3242 26.2722C37.7086 26.5414 38.0008 26.9223 38.1612 27.3633C38.2535 27.6134 38.3008 27.8779 38.3008 28.1445Z" fill="#AC3030"/>
<path d="M38.1641 27.3662C38.0037 27.8071 37.7115 28.1881 37.3271 28.4573C36.9428 28.7265 36.4849 28.8709 36.0156 28.8709C35.5464 28.8709 35.0885 28.7265 34.7041 28.4573C34.3198 28.1881 34.0276 27.8071 33.8672 27.3662C34.0276 26.9252 34.3198 26.5442 34.7041 26.275C35.0885 26.0058 35.5464 25.8615 36.0156 25.8615C36.4849 25.8615 36.9428 26.0058 37.3271 26.275C37.7115 26.5442 38.0037 26.9252 38.1641 27.3662Z" fill="#CF4849"/>
</g>
</g>
<defs>
<clipPath id="clip0_1_734">
<rect width="50" height="50" fill="white"/>
</clipPath>
<clipPath id="clip1_1_734">
<rect width="50" height="50" fill="white"/>
</clipPath>
</defs>
</svg>
