<svg width="25" height="16" viewBox="0 0 25 16" fill="none" xmlns="http://www.w3.org/2000/svg">
<path d="M21.1365 2.61857L21.1472 2.65415H21.1844H23.9583C24.5067 2.65415 24.95 3.09843 24.95 3.64585C24.95 4.19327 24.5067 4.6375 23.9583 4.6375H21.1844H21.1472L21.1365 4.67308C20.6905 6.15403 19.3311 7.24165 17.7083 7.24165C16.0856 7.24165 14.7262 6.15404 14.2802 4.67303L14.2694 4.63745H14.2323H1.04165C0.494265 4.63745 0.05 4.19319 0.05 3.6458C0.05 3.09842 0.494265 2.65415 1.04165 2.65415H14.2323H14.2694L14.2802 2.61857C14.7262 1.13762 16.0857 0.05 17.7083 0.05C19.331 0.05 20.6904 1.13762 21.1365 2.61857ZM16.0958 3.6458C16.0958 4.53489 16.8193 5.2583 17.7083 5.2583C18.5974 5.2583 19.3208 4.53489 19.3208 3.6458C19.3208 2.75671 18.5974 2.0333 17.7083 2.0333C16.8193 2.0333 16.0958 2.75671 16.0958 3.6458Z" fill="url(#paint0_linear_234_4)" stroke="white" stroke-width="0.1"/>
<path d="M10.7198 10.9519L10.7306 10.9875H10.7677H23.9583C24.5067 10.9875 24.95 11.4317 24.9499 11.9791C24.9499 12.5265 24.5067 12.9708 23.9583 12.9708H10.7677H10.7305L10.7198 13.0064C10.2738 14.4873 8.91431 15.5749 7.29165 15.5749C5.66899 15.5749 4.30955 14.4873 3.8635 13.0064L3.85278 12.9708H3.81562H1.04165C0.494265 12.9708 0.05 12.5265 0.05 11.9791C0.05 11.4317 0.494265 10.9875 1.04165 10.9875H3.81567H3.85283L3.86355 10.9519C4.30955 9.47093 5.66904 8.38331 7.2917 8.38331C8.91436 8.38331 10.2738 9.47093 10.7198 10.9519ZM5.67915 11.9791C5.67915 12.8682 6.40256 13.5916 7.29165 13.5916C8.18074 13.5916 8.90415 12.8682 8.90415 11.9791C8.90415 11.09 8.18074 10.3666 7.29165 10.3666C6.40256 10.3666 5.67915 11.09 5.67915 11.9791Z" fill="url(#paint1_linear_234_4)" stroke="white" stroke-width="0.1"/>
<defs>
<linearGradient id="paint0_linear_234_4" x1="12.5" y1="7.29165" x2="12.5" y2="0" gradientUnits="userSpaceOnUse">
<stop stop-color="#FD3A84"/>
<stop offset="1" stop-color="#FFA68D"/>
</linearGradient>
<linearGradient id="paint1_linear_234_4" x1="12.5" y1="15.6249" x2="12.5" y2="8.33331" gradientUnits="userSpaceOnUse">
<stop stop-color="#FD3A84"/>
<stop offset="1" stop-color="#FFA68D"/>
</linearGradient>
</defs>
</svg>
