<svg width="30" height="30" viewBox="0 0 30 30" fill="none" xmlns="http://www.w3.org/2000/svg">
<g clip-path="url(#clip0_234_14)">
<path d="M14.9861 14.9406L14.9861 14.9405C12.7931 13.9962 11.9657 11.6212 12.7557 9.65428L13.7618 7.14915C16.5189 8.28551 17.8552 11.4455 16.7415 14.2185C16.4656 14.9054 15.6735 15.2373 14.9861 14.9406ZM21.6868 13.2413L22.9678 10.0516C23.1196 9.67366 22.9363 9.2442 22.5583 9.0924L21.9668 8.85482L22.7168 6.98741C22.8686 6.60949 22.6853 6.18004 22.3073 6.02823C22.2527 6.0063 22.1964 5.98339 22.1383 5.95976C21.2401 5.59428 19.9247 5.05903 18.0298 5.35498C17.2265 4.72079 16.5522 4.45345 15.8824 4.18793C15.8122 4.16009 15.742 4.13227 15.6718 4.10405C15.2938 3.95225 14.8644 4.13561 14.7126 4.51353L14.2188 5.74301L13.6273 5.50543C13.2493 5.35363 12.8199 5.53699 12.6681 5.91491L11.387 9.10459C10.3397 11.7124 11.42 14.6558 13.8025 16.0026L10.4721 24.2947C10.3203 24.6726 10.5036 25.1021 10.8816 25.2539C11.2595 25.4057 11.689 25.2223 11.8408 24.8444L12.7189 22.658L13.6294 23.0237C15.5896 23.811 17.8249 22.8568 18.6122 20.8965L18.9965 19.9396C19.1483 19.5617 18.965 19.1322 18.587 18.9804L16.9922 18.3399C16.1685 18.009 15.2961 17.9858 14.5032 18.2154L15.1712 16.552C17.818 17.2298 20.6337 15.8634 21.6868 13.2413ZM20.3181 12.6916C19.885 13.7698 19.0337 14.5638 18.0237 14.9608C18.0547 14.8983 18.0837 14.8342 18.1102 14.7681C18.7561 13.1598 18.753 11.4491 18.2261 9.92727C19.2567 9.71138 20.3318 9.79831 21.3242 10.1864L20.3181 12.6916ZM20.2268 8.39409C20.0104 7.80422 19.7192 7.25407 19.3627 6.75438C19.9446 6.78365 20.5212 6.90636 21.0732 7.12226L20.543 8.44244C20.4379 8.42385 20.3324 8.40776 20.2268 8.39409ZM15.8063 5.74777C17.0201 6.24799 18.0234 7.16484 18.6169 8.37465C18.2691 8.4113 17.9233 8.47459 17.5824 8.5643C17.0696 7.72717 16.377 6.99368 15.5325 6.42958L15.8063 5.74777ZM16.4425 19.7085L17.353 20.0742L17.2435 20.3468C16.7594 21.5523 15.3846 22.1392 14.1791 21.6551L13.2686 21.2894L13.378 21.0168C13.8622 19.8113 15.237 19.2244 16.4425 19.7085Z" fill="url(#paint0_linear_234_14)" stroke="url(#paint1_linear_234_14)" stroke-width="0.1"/>
</g>
<defs>
<linearGradient id="paint0_linear_234_14" x1="16.0043" y1="27.2568" x2="2.95222" y2="12.5324" gradientUnits="userSpaceOnUse">
<stop stop-color="#FD3A84"/>
<stop offset="1" stop-color="#FFA68D"/>
</linearGradient>
<linearGradient id="paint1_linear_234_14" x1="16.0043" y1="27.2568" x2="2.95222" y2="12.5324" gradientUnits="userSpaceOnUse">
<stop stop-color="#FD3A84"/>
<stop offset="1" stop-color="#FFA68D"/>
</linearGradient>
<clipPath id="clip0_234_14">
<rect width="22" height="22" fill="white" transform="translate(8.89209 0.692871) rotate(21.8818)"/>
</clipPath>
</defs>
</svg>
