<svg width="50" height="50" viewBox="0 0 50 50" fill="none" xmlns="http://www.w3.org/2000/svg">
<g clip-path="url(#clip0_1_579)">
<path d="M25 50C38.8071 50 50 38.8071 50 25C50 11.1929 38.8071 0 25 0C11.1929 0 0 11.1929 0 25C0 38.8071 11.1929 50 25 50Z" fill="#F6EA49"/>
<path d="M50 25C50.0084 30.9132 47.9123 36.6364 44.0869 41.1455L44.0791 41.1553C44.0127 41.2344 43.9453 41.3125 43.8769 41.3906C43.3926 41.9486 42.8841 42.4844 42.3516 42.998C37.9582 41.7033 34.0942 39.0372 31.3242 35.3897C31.0794 35.0687 30.8441 34.7406 30.6182 34.4053C28.5887 31.4024 27.3579 27.9319 27.042 24.3213C26.9873 23.695 26.9596 23.0619 26.959 22.4219V22.3955C26.959 21.7445 26.9883 21.1016 27.0469 20.4668C27.0537 20.3965 27.0596 20.3252 27.0674 20.2549C27.0771 20.1572 27.0869 20.0596 27.0977 19.9619C27.1719 19.3154 27.2741 18.6777 27.4043 18.0488C27.4453 17.8496 27.4893 17.6514 27.5361 17.4541C27.5908 17.2246 27.6484 16.9961 27.7109 16.7705C27.7149 16.753 27.7198 16.7357 27.7256 16.7188C27.8747 16.1719 28.0456 15.6338 28.2383 15.1045C28.2695 15.0176 28.3018 14.9316 28.3359 14.8457C28.5033 14.403 28.6846 13.9674 28.8799 13.5391C28.8824 13.533 28.8854 13.5271 28.8887 13.5215C28.8879 13.5193 28.8879 13.5169 28.8887 13.5146C28.998 13.2744 29.112 13.0365 29.2305 12.8008C29.3281 12.6055 29.4284 12.4131 29.5312 12.2236C29.883 11.5734 30.2687 10.942 30.6865 10.332C30.6902 10.3255 30.6944 10.3193 30.6992 10.3135C31.26 9.49373 31.8774 8.71416 32.5469 7.98047C32.5811 7.94238 32.6152 7.9043 32.6514 7.86621C34.2061 6.1842 36.0192 4.76103 38.0225 3.65039C39.218 4.38332 40.3499 5.21534 41.4062 6.1377C42.3827 5.59762 43.394 5.12326 44.4336 4.71777C44.5221 4.68269 44.6193 4.67582 44.7119 4.6981C44.8044 4.72038 44.8879 4.77073 44.9507 4.84224C45.0136 4.91376 45.0528 5.00296 45.063 5.09763C45.0732 5.1923 45.054 5.28781 45.0078 5.37109C44.791 5.76172 44.5078 6.2334 44.1592 6.7666C43.9111 7.14551 43.6308 7.55371 43.3154 7.97949C47.6203 12.6007 50.0096 18.6843 50 25Z" fill="#F4EB81"/>
<path d="M41.1729 18.1641C39.3848 22.2178 32.6709 36.251 24.9756 37.4707C17.2852 36.252 10.5674 22.2188 8.77835 18.1641C8.63839 17.8462 8.59772 17.4935 8.66168 17.1521C8.72563 16.8107 8.89122 16.4966 9.13675 16.251L23.5762 1.8125C23.9477 1.44163 24.4512 1.23334 24.9761 1.23334C25.501 1.23334 26.0045 1.44163 26.376 1.8125L40.8203 16.252C41.0649 16.498 41.2295 16.8123 41.2924 17.1535C41.3553 17.4947 41.3136 17.8469 41.1729 18.1641Z" fill="#AC3030"/>
<path d="M26.1807 11.8341C25.6709 12.713 24.3184 16.6846 25.1973 17.1944C26.0762 17.7042 28.8526 14.5577 29.3624 13.6788C29.4835 13.4699 29.5624 13.2391 29.5944 12.9998C29.6264 12.7604 29.611 12.517 29.549 12.2836C29.4869 12.0502 29.3795 11.8313 29.2329 11.6394C29.0863 11.4475 28.9033 11.2863 28.6944 11.1651C28.4855 11.0439 28.2547 10.9651 28.0154 10.933C27.776 10.901 27.5326 10.9165 27.2992 10.9785C27.0658 11.0405 26.8469 11.1479 26.655 11.2945C26.463 11.4412 26.3019 11.6242 26.1807 11.8331V11.8341Z" fill="#DF9FC2"/>
<path d="M23.9199 23.0606C24.4296 22.1817 25.7822 18.209 24.9042 17.6992C24.0263 17.1895 21.248 20.336 20.7382 21.2149C20.5065 21.636 20.4487 22.1311 20.5774 22.5943C20.706 23.0574 21.0108 23.4519 21.4265 23.6932C21.8423 23.9345 22.3359 24.0035 22.8019 23.8854C23.2679 23.7674 23.6691 23.4717 23.9199 23.0615V23.0606Z" fill="#B7177D"/>
<path d="M19.5049 16.2979C20.3838 16.8076 24.3564 18.1611 24.8662 17.2822C25.376 16.4033 22.2295 13.626 21.3506 13.1162C20.9294 12.8845 20.4343 12.8267 19.9712 12.9553C19.508 13.084 19.1136 13.3888 18.8723 13.8045C18.631 14.2203 18.562 14.7139 18.68 15.1799C18.798 15.6459 19.0938 16.0471 19.5039 16.2979H19.5049Z" fill="#DF9FC2"/>
<path d="M30.7314 18.5596C29.8535 18.0498 25.8789 16.6992 25.371 17.5781C24.8632 18.457 28.0078 21.2344 28.8867 21.7441C29.3086 21.9889 29.8105 22.056 30.2819 21.9308C30.7533 21.8055 31.1556 21.4981 31.4004 21.0762C31.6451 20.6543 31.7122 20.1524 31.587 19.681C31.4617 19.2096 31.1543 18.8073 30.7324 18.5625L30.7314 18.5596Z" fill="#415CA5"/>
<path d="M21.7704 12.7334C22.0312 13.7148 23.8837 17.4804 24.8652 17.2197C25.8466 16.959 25.5868 12.7705 25.3261 11.789C25.1931 11.3263 24.884 10.9341 24.4651 10.6967C24.0462 10.4593 23.551 10.3955 23.0856 10.5191C22.6202 10.6427 22.2219 10.9438 21.976 11.3578C21.7301 11.7717 21.6563 12.2656 21.7704 12.7334Z" fill="#CD458F"/>
<path d="M28.0821 22.1681C27.8213 21.1866 25.9688 17.421 24.9873 17.6817C24.0059 17.9425 24.2666 22.1309 24.5274 23.1124C24.5894 23.3458 24.6967 23.5647 24.8434 23.7566C24.99 23.9485 25.1729 24.1097 25.3818 24.2309C25.5907 24.3521 25.8214 24.4309 26.0608 24.463C26.3002 24.495 26.5435 24.4796 26.7769 24.4176C27.0103 24.3556 27.2292 24.2482 27.4211 24.1016C27.613 23.955 27.7742 23.772 27.8954 23.5631C28.0166 23.3542 28.0954 23.1235 28.1275 22.8842C28.1595 22.6448 28.1441 22.4015 28.0821 22.1681Z" fill="#CD458F"/>
<path d="M20.207 20.6104C21.1895 20.3497 24.9541 18.4981 24.6934 17.5157C24.4326 16.5333 20.2451 16.795 19.2627 17.0557C18.7913 17.1809 18.389 17.4883 18.1442 17.9102C17.8995 18.332 17.8323 18.8339 17.9575 19.3052C18.0828 19.7766 18.3901 20.1789 18.812 20.4237C19.2338 20.6685 19.7357 20.7356 20.207 20.6104Z" fill="#E9C4D9"/>
<path d="M29.7441 14.2715C28.7627 14.5323 24.997 16.3839 25.2578 17.3663C25.5185 18.3487 29.707 18.087 30.6884 17.8262C30.9218 17.7642 31.1407 17.6569 31.3327 17.5103C31.5246 17.3636 31.6857 17.1807 31.8069 16.9718C31.9281 16.7629 32.007 16.5322 32.039 16.2928C32.071 16.0535 32.0556 15.8101 31.9936 15.5767C31.9316 15.3433 31.8242 15.1244 31.6776 14.9325C31.531 14.7406 31.3481 14.5794 31.1392 14.4582C30.9303 14.337 30.6996 14.2582 30.4602 14.2262C30.2208 14.1941 29.9775 14.2095 29.7441 14.2715Z" fill="#CD458F"/>
<path d="M26.7158 17.0781C26.813 17.4453 26.7941 17.8336 26.6617 18.1896C26.5294 18.5456 26.29 18.8519 25.9765 19.0664C25.8029 19.1867 25.6095 19.2756 25.4052 19.3291C24.9333 19.4544 24.431 19.3872 24.0086 19.1422C23.5863 18.8971 23.2786 18.4943 23.1533 18.0224C23.0279 17.5505 23.0951 17.0482 23.3402 16.6259C23.5852 16.2035 23.988 15.8959 24.4599 15.7705C24.6641 15.7158 24.8763 15.6973 25.0869 15.7158C25.4659 15.7467 25.826 15.8943 26.1177 16.1382C26.4094 16.3822 26.6183 16.7105 26.7158 17.0781Z" fill="#AE7733"/>
<path d="M26.7158 17.0782C26.813 17.4454 26.7941 17.8336 26.6618 18.1897C26.5294 18.5457 26.29 18.852 25.9765 19.0665C25.598 19.0352 25.2384 18.8876 24.9471 18.6438C24.6559 18.4 24.4472 18.0721 24.3497 17.705C24.2522 17.3379 24.2708 16.9497 24.4027 16.5935C24.5347 16.2374 24.7737 15.9308 25.0869 15.7159C25.4659 15.7468 25.826 15.8944 26.1177 16.1383C26.4094 16.3823 26.6183 16.7106 26.7158 17.0782Z" fill="#C38634"/>
<path d="M41.1729 18.1641C39.3848 22.2178 32.6709 36.251 24.9756 37.4708C17.2852 36.252 10.5674 22.2188 8.77835 18.1641C8.63839 17.8463 8.59772 17.4935 8.66168 17.1522C8.72563 16.8108 8.89122 16.4967 9.13675 16.251C9.13675 16.251 23.7129 30.2784 40.8155 16.251C41.0611 16.4966 41.2266 16.8108 41.2904 17.1522C41.3542 17.4937 41.3132 17.8464 41.1729 18.1641Z" fill="#CF4849"/>
<path d="M17.6592 18.1641C17.5192 17.8462 17.4786 17.4935 17.5425 17.1521C17.6065 16.8107 17.772 16.4966 18.0176 16.251L29.416 4.85351L26.376 1.8125C26.0045 1.44163 25.501 1.23334 24.9761 1.23334C24.4511 1.23334 23.9477 1.44163 23.5762 1.8125L9.13672 16.252C9.13672 16.252 13.1162 20.0811 19.3555 21.7373C18.6045 20.2568 18.0273 18.999 17.6592 18.1641Z" fill="#992E2F"/>
<path d="M29.9717 40.4913L28.1162 38.6359C27.9435 38.4625 27.8122 38.2524 27.7319 38.0212C27.6517 37.79 27.6247 37.5437 27.6528 37.3006C27.681 37.0575 27.7636 36.8239 27.8946 36.6171C28.0255 36.4104 28.2014 36.2359 28.4092 36.1066C28.749 35.8927 29.0859 35.6583 29.4189 35.4064C25.1621 32.1837 21.5312 26.0245 19.3603 21.7345C13.1211 20.0743 9.1416 16.2491 9.1416 16.2491C8.89485 16.4944 8.7281 16.8086 8.66326 17.1504C8.59842 17.4922 8.63853 17.8456 8.77831 18.1642C10.2969 21.6046 15.3603 32.2267 21.5615 36.1134C21.7673 36.2436 21.9411 36.4185 22.0701 36.625C22.199 36.8316 22.2797 37.0646 22.3063 37.3066C22.3328 37.5487 22.3045 37.7936 22.2234 38.0232C22.1423 38.2528 22.0106 38.4612 21.8379 38.6329L19.9824 40.4884C19.6338 40.837 19.8848 43.5079 20.373 43.5079H29.5801C30.0781 43.5109 30.3203 40.84 29.9717 40.4913Z" fill="#AE4247"/>
<path d="M25.1181 36.5468C25.1181 33.25 22.3954 32.2724 21.0937 31.9931C20.6559 31.8515 20.1848 31.8503 19.7463 31.9897C19.3078 32.1291 18.9239 32.4021 18.6483 32.7705C18.3726 33.1389 18.2191 33.5843 18.2091 34.0443C18.1992 34.5043 18.3333 34.9559 18.5927 35.3359C18.7728 35.6058 18.8682 35.9234 18.8666 36.2479C18.8651 36.5724 18.7666 36.889 18.5839 37.1572C18.3382 37.5222 18.2076 37.9525 18.2089 38.3926C18.2089 39.6269 19.2753 40.6064 20.5097 40.5937C25.2694 40.542 25.1181 36.5468 25.1181 36.5468Z" fill="#C38CAD"/>
<path d="M24.832 36.4668C24.832 34.0254 22.8184 33.3057 21.8555 33.0986C21.6208 33.0228 21.3719 33.0011 21.1276 33.0352C20.8833 33.0694 20.65 33.1585 20.445 33.2958C20.2401 33.4331 20.069 33.6151 19.9446 33.8281C19.8201 34.0411 19.7456 34.2795 19.7266 34.5254C19.6975 34.8956 19.7957 35.2646 20.0049 35.5713C20.1383 35.771 20.2089 36.006 20.2077 36.2462C20.2064 36.4863 20.1334 36.7206 19.998 36.919C19.8185 37.1894 19.7239 37.5074 19.7266 37.8321C19.7266 38.7451 20.5156 39.4698 21.4277 39.46C24.9443 39.4219 24.832 36.4668 24.832 36.4668Z" fill="#DD9EC1"/>
<path d="M24.8331 36.547C24.8331 33.2501 27.5557 32.2726 28.8575 31.9933C29.2952 31.852 29.7662 31.851 30.2045 31.9905C30.6428 32.13 31.0266 32.4029 31.3023 32.7711C31.5779 33.1394 31.7316 33.5846 31.7418 34.0444C31.7521 34.5043 31.6184 34.9559 31.3594 35.336C31.1793 35.606 31.0839 35.9235 31.0855 36.248C31.0871 36.5725 31.1855 36.8892 31.3682 37.1573C31.6122 37.5229 31.7411 37.9532 31.7383 38.3927C31.7383 39.6271 30.6719 40.6066 29.4385 40.5939C24.6817 40.5421 24.8331 36.547 24.8331 36.547Z" fill="#C38CAD"/>
<path d="M25.119 36.4668C25.119 34.0254 27.1337 33.3056 28.0966 33.0986C28.3313 33.0229 28.5801 33.0014 28.8243 33.0356C29.0685 33.0699 29.3018 33.159 29.5067 33.2963C29.7115 33.4336 29.8826 33.6155 30.0071 33.8283C30.1316 34.0412 30.2063 34.2795 30.2255 34.5254C30.2547 34.8957 30.1561 35.2648 29.9462 35.5713C29.8133 35.7712 29.743 36.0061 29.7442 36.2461C29.7454 36.4862 29.8181 36.7204 29.953 36.9189C30.1346 37.1888 30.2312 37.5068 30.2304 37.832C30.2304 38.7451 29.4413 39.4697 28.5282 39.46C25.0077 39.4219 25.119 36.4668 25.119 36.4668Z" fill="#DD9EC1"/>
<path d="M25.1192 36.4669L20.9698 47.8927C20.9586 47.9231 20.9572 47.9563 20.9656 47.9876C20.974 48.0189 20.9919 48.0468 21.0168 48.0675C21.0417 48.0883 21.0725 48.1008 21.1048 48.1034C21.1371 48.106 21.1694 48.0986 21.1973 48.0821L22.1924 47.4962C22.403 47.372 22.6531 47.3331 22.8914 47.3876C23.1297 47.4421 23.3381 47.5858 23.4737 47.7892L23.587 47.9571C23.6047 47.9842 23.6304 48.005 23.6604 48.0168C23.6905 48.0287 23.7235 48.0309 23.7549 48.0232C23.7863 48.0154 23.8145 47.9982 23.8357 47.9738C23.8568 47.9494 23.8699 47.919 23.8731 47.8868L25.1192 36.4669Z" fill="#CE6FA4"/>
<path d="M24.8789 36.4669L29.0293 47.8927C29.0401 47.9232 29.0412 47.9563 29.0326 47.9875C29.0239 48.0186 29.006 48.0464 28.9811 48.0671C28.9562 48.0877 28.9255 48.1002 28.8933 48.1029C28.8611 48.1056 28.8288 48.0984 28.8008 48.0822L27.8066 47.4962C27.596 47.3719 27.3457 47.333 27.1072 47.3875C26.8688 47.442 26.6602 47.5857 26.5244 47.7892L26.4121 47.9493C26.3942 47.9762 26.3684 47.9969 26.3383 48.0086C26.3083 48.0203 26.2753 48.0225 26.2439 48.0148C26.2126 48.0071 26.1843 47.99 26.163 47.9657C26.1418 47.9414 26.1285 47.9111 26.125 47.879L24.8789 36.4669Z" fill="#CE6FA4"/>
<path d="M26.959 36.5469C26.9583 37.0064 26.7855 37.449 26.4745 37.7873C26.1636 38.1257 25.7371 38.3352 25.2792 38.3745C24.8214 38.4138 24.3654 38.2801 24.0013 37.9997C23.6373 37.7194 23.3915 37.3127 23.3125 36.86C23.2335 36.4073 23.3271 35.9415 23.5747 35.5544C23.8224 35.1673 24.2061 34.8871 24.6502 34.769C25.0944 34.651 25.5666 34.7037 25.9737 34.9168C26.3809 35.1298 26.6934 35.4878 26.8496 35.9199C26.9222 36.121 26.9592 36.3331 26.959 36.5469Z" fill="#CB468E"/>
<path d="M26.8496 35.9199C26.7211 36.2758 26.486 36.5834 26.1763 36.8008C25.8667 37.0182 25.4975 37.1348 25.1191 37.1348C24.7408 37.1348 24.3716 37.0182 24.062 36.8008C23.7523 36.5834 23.5172 36.2758 23.3887 35.9199C23.5176 35.5645 23.7529 35.2573 24.0625 35.0403C24.3721 34.8233 24.741 34.7068 25.1191 34.7068C25.4972 34.7068 25.8662 34.8233 26.1758 35.0403C26.4854 35.2573 26.7207 35.5645 26.8496 35.9199Z" fill="#CE6FA4"/>
<path d="M34.2685 8.87114C33.1054 12.0118 31.7382 14.626 30.6718 15.9014C30.1474 16.5284 29.6953 16.8321 29.3759 16.7139C28.4091 16.3565 29.0322 12.2637 30.7666 7.57524C31.958 4.35258 33.8203 1.85942 34.8681 0.612347C34.9293 0.539151 35.0115 0.486672 35.1037 0.462113C35.1958 0.437553 35.2933 0.442119 35.3828 0.475182C35.4722 0.508245 35.5493 0.568185 35.6033 0.646773C35.6573 0.725361 35.6857 0.818745 35.6845 0.914105C35.6845 1.35746 35.6611 1.9102 35.6123 2.54496C35.4824 4.24321 35.1357 6.52641 34.2685 8.87114Z" fill="#3E6E66"/>
<path d="M34.2686 8.87115C33.1055 12.0118 31.7383 14.626 30.6719 15.9014C30.6924 14.2413 31.3555 11.3653 32.5176 8.22272C33.3848 5.87897 34.6074 3.91998 35.6133 2.54498C35.4824 4.24323 35.1357 6.52643 34.2686 8.87115Z" fill="#477D73"/>
<path d="M39.9355 17.0488C37.4023 19.2432 34.9492 20.876 33.3984 21.4844C32.6367 21.7774 32.0937 21.8301 31.8711 21.5733C31.1953 20.792 33.7109 17.5069 37.4883 14.2315C40.0811 11.9854 42.916 10.6914 44.4356 10.1026C44.5243 10.0679 44.6217 10.0615 44.7142 10.0844C44.8067 10.1072 44.89 10.1581 44.9524 10.2301C45.0149 10.3021 45.0536 10.3916 45.0631 10.4865C45.0727 10.5813 45.0527 10.6768 45.0059 10.7598C44.7891 11.1504 44.5059 11.6211 44.1572 12.1543C42.9804 13.9712 41.56 15.6181 39.9355 17.0488Z" fill="#3E6E66"/>
<path d="M39.9355 17.0489C37.4023 19.2432 34.9492 20.876 33.3984 21.4844C34.2158 20.0372 36.1797 17.837 38.7109 15.6426C40.5996 14.0049 42.6172 12.876 44.1572 12.1544C42.9804 13.9712 41.56 15.6181 39.9355 17.0489Z" fill="#477D73"/>
<path d="M45.0078 5.37112C44.791 5.76175 44.5078 6.23343 44.1592 6.76663C43.9111 7.14554 43.6309 7.55374 43.3154 7.97952C42.3268 9.32754 41.1934 10.5631 39.9355 11.6641C39.2441 12.2637 38.5576 12.8223 37.8945 13.3243C37.5439 13.5928 37.1992 13.8467 36.8643 14.083C36.0693 14.6577 35.2378 15.18 34.375 15.6465C34.0581 15.8157 33.7321 15.9673 33.3984 16.1006C33.29 16.1426 33.1855 16.1807 33.0859 16.2129C32.9008 16.2749 32.7101 16.319 32.5166 16.3448C32.391 16.3629 32.2633 16.36 32.1387 16.336C32.1052 16.3284 32.0725 16.3176 32.041 16.3037C31.9771 16.2799 31.9201 16.2407 31.875 16.1895C31.7685 16.0674 31.7412 15.8838 31.7861 15.6475C31.7861 15.6293 31.79 15.6097 31.7978 15.5889C31.8226 15.4853 31.8552 15.3838 31.8955 15.2852C32.0155 14.9865 32.1633 14.6998 32.3369 14.4287C32.9228 13.4776 33.9443 12.253 35.2539 10.9366L35.3789 10.8106C36.0225 10.17 36.7334 9.50882 37.4951 8.84769C38.7009 7.81066 40.0117 6.90241 41.4063 6.13773C42.3827 5.59765 43.394 5.12329 44.4336 4.7178C44.5221 4.68272 44.6193 4.67585 44.7119 4.69813C44.8045 4.72041 44.8879 4.77075 44.9508 4.84227C45.0136 4.91379 45.0528 5.00299 45.0631 5.09766C45.0733 5.19233 45.054 5.28784 45.0078 5.37112Z" fill="#3E6E66"/>
<path d="M44.1592 6.77057C43.9111 7.14948 43.6309 7.55768 43.3154 7.98346C42.3268 9.33147 41.1934 10.567 39.9355 11.668C39.2441 12.2676 38.5576 12.8262 37.8945 13.3282C37.5439 13.5967 37.1992 13.8506 36.8643 14.087C36.0692 14.6603 35.2377 15.1813 34.375 15.6465C34.0581 15.8158 33.7321 15.9674 33.3984 16.1006C33.5215 15.8829 33.6699 15.6485 33.8428 15.3995C34.4287 14.5508 35.2988 13.5333 36.3662 12.4503C36.4723 12.3428 36.5801 12.2354 36.6895 12.128C37.3076 11.5157 37.9863 10.8868 38.7109 10.2579C39.9702 9.17762 41.3428 8.23691 42.8047 7.45221C43.2842 7.19342 43.7393 6.96686 44.1592 6.77057Z" fill="#477D73"/>
<path d="M16.9296 8.87111C18.0917 12.0127 19.4589 14.626 20.5253 15.9024C21.0507 16.5293 21.5018 16.833 21.8212 16.7149C22.788 16.3574 22.1659 12.2647 20.4306 7.57619C19.2401 4.35354 17.3769 1.86037 16.329 0.613303C16.2678 0.540489 16.1856 0.488356 16.0936 0.464028C16.0016 0.4397 15.9044 0.444363 15.8152 0.47738C15.7259 0.510398 15.6491 0.570159 15.5951 0.648497C15.5411 0.726835 15.5126 0.81993 15.5136 0.91506C15.5136 1.35842 15.536 1.91115 15.5849 2.54592C15.7147 4.24319 16.0624 6.52639 16.9296 8.87111Z" fill="#3E6E66"/>
<path d="M16.9297 8.87115C18.0918 12.0128 19.459 14.626 20.5254 15.9024C20.5059 14.2422 19.8418 11.3663 18.6797 8.22369C17.8125 5.87994 16.5908 3.92096 15.584 2.54596C15.7148 4.24322 16.0625 6.52643 16.9297 8.87115Z" fill="#477D73"/>
<path d="M11.2617 17.0489C13.793 19.2432 16.249 20.876 17.7969 21.4805C18.5596 21.7735 19.1016 21.8262 19.3242 21.5694C20 20.7881 17.4844 17.503 13.707 14.2276C11.1143 11.9815 8.28027 10.6875 6.75976 10.0987C6.67103 10.0643 6.57385 10.0582 6.48151 10.0812C6.38918 10.1041 6.30619 10.1551 6.24389 10.227C6.18159 10.2989 6.14301 10.3883 6.13345 10.483C6.12388 10.5776 6.14378 10.6729 6.19042 10.7559C6.40625 11.1465 6.68945 11.6172 7.03808 12.1504C8.21518 13.9688 9.63632 15.617 11.2617 17.0489Z" fill="#3E6E66"/>
<path d="M11.2617 17.0489C13.793 19.2432 16.249 20.876 17.7969 21.4805C16.9795 20.0333 15.0156 17.8331 12.4844 15.6387C10.5967 14.001 8.57812 12.8721 7.03809 12.1505C8.21518 13.9688 9.63633 15.617 11.2617 17.0489Z" fill="#477D73"/>
<path d="M11.2616 11.668C13.7929 13.8633 16.249 15.4961 17.7968 16.1006C18.5595 16.3936 19.1015 16.4463 19.3242 16.1895C19.9999 15.4083 17.4843 12.1231 13.707 8.84771C11.1142 6.60162 8.2802 5.3067 6.7597 4.71784C6.67143 4.68432 6.57502 4.67865 6.48343 4.7016C6.39185 4.72454 6.3095 4.77501 6.24747 4.84619C6.18544 4.91737 6.14671 5.00584 6.1365 5.09971C6.12629 5.19357 6.14509 5.2883 6.19036 5.37115C6.40618 5.76178 6.68938 6.23346 7.03802 6.76666C7.96966 8.19635 9.37493 10.0313 11.2616 11.668Z" fill="#3E6E66"/>
<path d="M11.2617 11.668C13.793 13.8633 16.249 15.4962 17.7969 16.1006C16.9795 14.6534 15.0156 12.4532 12.4844 10.2579C10.5967 8.62115 8.57812 7.49127 7.03809 6.77057C7.96973 8.19635 9.375 10.0313 11.2617 11.668Z" fill="#477D73"/>
<path d="M26.1807 3.61326C25.6709 4.49217 24.3164 8.45994 25.1953 8.96971C26.0742 9.47947 28.8506 6.33299 29.3604 5.45408C29.5792 5.03412 29.6276 4.54592 29.4954 4.09118C29.3632 3.63645 29.0607 3.25022 28.6509 3.01296C28.2411 2.7757 27.7555 2.70569 27.2954 2.81751C26.8352 2.92934 26.4359 3.21438 26.1807 3.61326Z" fill="#DF9FC2"/>
<path d="M23.9199 14.836C24.4297 13.9571 25.7822 9.98544 24.9043 9.47567C24.0264 8.9659 21.2481 12.1124 20.7383 12.9913C20.4935 13.4132 20.4264 13.9151 20.5517 14.3865C20.6769 14.8579 20.9844 15.2602 21.4063 15.505C21.8282 15.7497 22.33 15.8168 22.8014 15.6916C23.2728 15.5663 23.6752 15.2589 23.9199 14.837V14.836Z" fill="#DF9FC2"/>
<path d="M19.5049 8.07429C20.3838 8.58405 24.3564 9.93659 24.8662 9.05768C25.376 8.17878 22.2295 5.40241 21.3506 4.89264C20.9294 4.66088 20.4343 4.60314 19.9712 4.73178C19.508 4.86041 19.1136 5.1652 18.8723 5.58094C18.631 5.99668 18.562 6.49035 18.68 6.95632C18.798 7.4223 19.0938 7.82357 19.5039 8.07429H19.5049Z" fill="#DF9FC2"/>
<path d="M30.7314 10.335C29.8525 9.82523 25.8808 8.47269 25.3711 9.3516C24.8613 10.2305 28.0078 13.0069 28.8867 13.5166C29.0956 13.6378 29.3263 13.7167 29.5657 13.7487C29.8051 13.7807 30.0484 13.7653 30.2819 13.7033C30.5153 13.6412 30.7342 13.5338 30.9261 13.3872C31.118 13.2406 31.2792 13.0576 31.4004 12.8487C31.5216 12.6398 31.6004 12.409 31.6324 12.1696C31.6644 11.9303 31.649 11.6869 31.587 11.4535C31.5249 11.2201 31.4176 11.0012 31.2709 10.8093C31.1243 10.6173 30.9413 10.4562 30.7324 10.335H30.7314Z" fill="#415CA5"/>
<path d="M21.7704 4.50888C22.0312 5.4913 23.8837 9.25595 24.8652 8.99521C25.8466 8.73447 25.5859 4.54697 25.3261 3.56454C25.1931 3.1018 24.884 2.70963 24.4651 2.47221C24.0462 2.23479 23.551 2.17103 23.0856 2.29462C22.6202 2.41821 22.2219 2.7193 21.976 3.13328C21.7301 3.54725 21.6563 4.04111 21.7704 4.50888Z" fill="#E9C4D9"/>
<path d="M28.0821 13.9405C27.8213 12.9581 25.9688 9.19345 24.9873 9.45419C24.0059 9.71493 24.2666 13.9024 24.5274 14.8849C24.6526 15.3562 24.96 15.7586 25.3818 16.0033C25.8037 16.2481 26.3055 16.3153 26.7769 16.19C27.2483 16.0648 27.6506 15.7574 27.8954 15.3356C28.1401 14.9137 28.2073 14.4119 28.0821 13.9405Z" fill="#E9C4D9"/>
<path d="M20.2071 12.3868C21.1895 12.126 24.9541 10.2735 24.6934 9.29202C24.4326 8.31058 20.2451 8.57034 19.2627 8.83108C18.8 8.9641 18.4078 9.27322 18.1704 9.6921C17.933 10.111 17.8692 10.6062 17.9928 11.0716C18.1164 11.5369 18.4175 11.9353 18.8315 12.1812C19.2454 12.4271 19.7393 12.5009 20.2071 12.3868Z" fill="#E9C4D9"/>
<path d="M29.7441 6.04688C28.7626 6.30762 24.9999 8.16016 25.2578 9.14161C25.5156 10.1231 29.707 9.86329 30.6884 9.60255C30.9262 9.54454 31.15 9.43967 31.3468 9.29408C31.5435 9.14849 31.7092 8.9651 31.8342 8.75467C31.9592 8.54423 32.041 8.31097 32.0747 8.06855C32.1084 7.82613 32.0934 7.57941 32.0306 7.34286C31.9677 7.1063 31.8583 6.88466 31.7088 6.69091C31.5592 6.49716 31.3725 6.3352 31.1596 6.21451C30.9467 6.09382 30.7118 6.01683 30.4687 5.98805C30.2257 5.95926 29.9793 5.97927 29.7441 6.04688Z" fill="#E9C4D9"/>
<path d="M26.7158 8.8535C26.8127 9.22039 26.7937 9.6083 26.6613 9.96395C26.529 10.3196 26.2897 10.6256 25.9765 10.8398C25.8029 10.9601 25.6096 11.049 25.4052 11.1025C24.9367 11.2182 24.4415 11.1453 24.0262 10.8994C23.611 10.6536 23.3088 10.2545 23.1849 9.7881C23.061 9.32169 23.1252 8.82527 23.3636 8.40572C23.6021 7.98617 23.9958 7.67704 24.4599 7.5449C24.6641 7.48992 24.8763 7.47109 25.0869 7.48924C25.4661 7.52027 25.8265 7.66813 26.1182 7.91246C26.4099 8.15679 26.6187 8.48556 26.7158 8.8535Z" fill="#AE7733"/>
<path d="M26.7158 8.85358C26.8127 9.22048 26.7937 9.60838 26.6613 9.96403C26.5289 10.3197 26.2897 10.6256 25.9765 10.8399C25.598 10.8086 25.2384 10.661 24.9471 10.4172C24.6559 10.1735 24.4472 9.84555 24.3497 9.47846C24.2522 9.11136 24.2708 8.72309 24.4027 8.36695C24.5347 8.0108 24.7737 7.70423 25.0869 7.48932C25.4661 7.52035 25.8264 7.66821 26.1182 7.91254C26.4099 8.15687 26.6187 8.48565 26.7158 8.85358Z" fill="#C38634"/>
<path d="M32.9483 11.711C32.4385 12.5899 31.086 16.5615 31.9649 17.0713C32.8438 17.5811 35.6202 14.4346 36.1299 13.5557C36.3747 13.1338 36.4418 12.6319 36.3165 12.1605C36.1913 11.6891 35.8839 11.2868 35.462 11.042C35.04 10.7973 34.5382 10.7301 34.0668 10.8554C33.5954 10.9807 33.193 11.2881 32.9483 11.71V11.711Z" fill="#415CA5"/>
<path d="M30.6876 22.9375C31.1973 22.0586 32.5499 18.086 31.6719 17.5762C30.794 17.0664 28.0157 20.2129 27.5059 21.0918C27.2742 21.513 27.2164 22.0081 27.3451 22.4712C27.4737 22.9344 27.7785 23.3288 28.1942 23.5701C28.61 23.8114 29.1036 23.8804 29.5696 23.7624C30.0356 23.6444 30.4368 23.3486 30.6876 22.9385V22.9375Z" fill="#415CA5"/>
<path d="M26.2695 16.1748C27.1484 16.6846 31.1201 18.0381 31.6299 17.1592C32.1397 16.2803 28.9932 13.5029 28.1143 12.9932C27.6924 12.7486 27.1905 12.6815 26.7192 12.8069C26.2479 12.9323 25.8457 13.2397 25.6011 13.6616C25.3565 14.0835 25.2895 14.5854 25.4148 15.0567C25.5402 15.528 25.8476 15.9302 26.2695 16.1748Z" fill="#415CA5"/>
<path d="M37.5001 18.4365C36.6212 17.9268 32.6485 16.5733 32.1388 17.4522C31.629 18.3311 34.7755 21.1084 35.6544 21.6182C36.0753 21.8468 36.5688 21.9023 37.03 21.7728C37.4912 21.6433 37.8837 21.339 38.1241 20.9247C38.3644 20.5103 38.4337 20.0186 38.3172 19.5539C38.2007 19.0893 37.9075 18.6884 37.5001 18.4365Z" fill="#415CA5"/>
<path d="M28.538 12.6103C28.7988 13.5918 30.6513 17.3574 31.6327 17.0966C32.6142 16.8359 32.3544 12.6474 32.0937 11.666C31.9607 11.2032 31.6516 10.8111 31.2327 10.5736C30.8138 10.3362 30.3185 10.2725 29.8532 10.3961C29.3878 10.5197 28.9895 10.8207 28.7436 11.2347C28.4977 11.6487 28.4239 12.1426 28.538 12.6103Z" fill="#5272B4"/>
<path d="M34.8495 22.0411C34.5888 21.0645 32.7362 17.294 31.7548 17.5548C30.7733 17.8155 31.0341 22.004 31.2948 22.9854C31.3568 23.2188 31.4642 23.4377 31.6108 23.6296C31.7574 23.8215 31.9404 23.9827 32.1493 24.1039C32.3582 24.2251 32.5889 24.304 32.8282 24.336C33.0676 24.368 33.3109 24.3526 33.5443 24.2906C33.7777 24.2286 33.9966 24.1212 34.1885 23.9746C34.3805 23.828 34.5416 23.645 34.6628 23.4361C34.784 23.2273 34.8629 22.9966 34.8949 22.7572C34.9269 22.5178 34.9115 22.2745 34.8495 22.0411Z" fill="#5272B4"/>
<path d="M26.9756 20.4874C27.9522 20.2267 31.7227 18.3751 31.461 17.3927C31.1992 16.4103 27.0127 16.672 26.0303 16.9327C25.5589 17.0581 25.1566 17.3656 24.912 17.7875C24.6673 18.2095 24.6002 18.7114 24.7256 19.1827C24.851 19.6541 25.1584 20.0564 25.5804 20.3011C26.0023 20.5457 26.5042 20.6128 26.9756 20.4874Z" fill="#5272B4"/>
<path d="M36.5117 14.1485C35.5302 14.4093 31.7646 16.2608 32.0254 17.2432C32.2861 18.2257 36.4746 17.9639 37.457 17.7032C37.9284 17.5778 38.3307 17.2704 38.5753 16.8484C38.82 16.4264 38.887 15.9246 38.7617 15.4532C38.6363 14.9818 38.3288 14.5795 37.9069 14.3349C37.4849 14.0902 36.9831 14.0232 36.5117 14.1485Z" fill="#5272B4"/>
<path d="M33.4835 16.9551C33.5815 17.3222 33.5635 17.7106 33.4318 18.067C33.3001 18.4233 33.0613 18.7302 32.7481 18.9453C32.5747 19.0654 32.3817 19.1543 32.1778 19.208C31.9441 19.2701 31.7005 19.2855 31.4609 19.2535C31.2213 19.2214 30.9903 19.1424 30.7812 19.0211C30.5721 18.8998 30.3889 18.7384 30.2422 18.5463C30.0954 18.3542 29.9879 18.135 29.9258 17.9014C29.8638 17.6677 29.8483 17.4241 29.8804 17.1845C29.9125 16.9449 29.9914 16.7139 30.1128 16.5048C30.2341 16.2957 30.3954 16.1125 30.5876 15.9657C30.7797 15.819 30.9988 15.7115 31.2325 15.6494C31.4363 15.5947 31.6482 15.5762 31.8585 15.5947C32.2365 15.6263 32.5956 15.7739 32.8865 16.0174C33.1774 16.261 33.3859 16.5885 33.4835 16.9551Z" fill="#AE7733"/>
<path d="M33.4834 16.9551C33.5814 17.3222 33.5634 17.7106 33.4317 18.067C33.3 18.4234 33.0612 18.7302 32.748 18.9454C32.3695 18.9141 32.0099 18.7665 31.7186 18.5227C31.4274 18.279 31.2187 17.951 31.1212 17.5839C31.0237 17.2168 31.0422 16.8286 31.1742 16.4724C31.3062 16.1163 31.5452 15.8097 31.8584 15.5948C32.2364 15.6263 32.5955 15.774 32.8864 16.0175C33.1773 16.261 33.3858 16.5885 33.4834 16.9551Z" fill="#C38634"/>
<path d="M21.163 12.6514C20.4452 13.3692 18.1181 16.8614 18.8359 17.5792C19.5536 18.2969 23.0458 15.9708 23.7646 15.252C24.1094 14.907 24.3031 14.4392 24.303 13.9514C24.3029 13.4636 24.1091 12.9958 23.7641 12.6509C23.4191 12.3061 22.9512 12.1124 22.4634 12.1125C21.9756 12.1126 21.5079 12.3064 21.163 12.6514Z" fill="#E5BE3D"/>
<path d="M16.0957 22.9209C16.8145 22.2022 19.1416 18.711 18.4228 17.9922C17.7041 17.2735 14.2129 19.6016 13.4951 20.3194C13.1501 20.6642 12.9563 21.132 12.9562 21.6198C12.9561 22.1076 13.1498 22.5755 13.4946 22.9204C13.8395 23.2654 14.3073 23.4593 14.7951 23.4594C15.2829 23.4595 15.7507 23.2658 16.0957 22.9209Z" fill="#E5BE3D"/>
<path d="M13.5655 15.252C14.2832 15.9708 17.7754 18.2979 18.4932 17.5792C19.211 16.8604 16.8848 13.3692 16.166 12.6515C15.8212 12.3066 15.3535 12.1129 14.8657 12.1129C14.378 12.1129 13.9103 12.3066 13.5655 12.6515C13.2206 12.9963 13.0269 13.464 13.0269 13.9517C13.0269 14.4394 13.2206 14.9072 13.5655 15.252Z" fill="#E5BE3D"/>
<path d="M23.8349 20.3194C23.1162 19.6016 19.625 17.2745 18.9062 17.9922C18.1875 18.71 20.5156 22.2022 21.2334 22.9209C21.5803 23.2564 22.0452 23.4421 22.5277 23.438C23.0103 23.4339 23.472 23.2404 23.8132 22.8992C24.1544 22.558 24.3479 22.0963 24.352 21.6137C24.3561 21.1312 24.1704 20.6663 23.8349 20.3194Z" fill="#E5BE3D"/>
<path d="M16.6699 12.3887C16.6699 13.4043 17.4932 17.5186 18.5088 17.5186C19.5244 17.5186 20.3486 13.4043 20.3486 12.3887C20.3543 12.1436 20.3109 11.8998 20.221 11.6717C20.1311 11.4436 19.9965 11.2358 19.8251 11.0604C19.6538 10.8851 19.4491 10.7457 19.2231 10.6506C18.9972 10.5555 18.7545 10.5065 18.5093 10.5065C18.2641 10.5065 18.0214 10.5555 17.7954 10.6506C17.5695 10.7457 17.3648 10.8851 17.1934 11.0604C17.0221 11.2358 16.8875 11.4436 16.7976 11.6717C16.7077 11.8998 16.6643 12.1436 16.6699 12.3887Z" fill="#E7CB75"/>
<path d="M20.3486 23.124C20.3486 22.1074 19.5244 17.9932 18.5088 17.9932C17.4932 17.9932 16.6699 22.1074 16.6699 23.124C16.681 23.6045 16.8796 24.0616 17.2234 24.3975C17.5671 24.7334 18.0287 24.9215 18.5093 24.9215C18.9899 24.9215 19.4514 24.7334 19.7952 24.3975C20.1389 24.0616 20.3376 23.6045 20.3486 23.124Z" fill="#E7CB75"/>
<path d="M13.1367 19.6006C14.1524 19.6006 18.2666 18.7773 18.2666 17.7607C18.2666 16.7441 14.1524 15.918 13.1367 15.918C12.8916 15.9123 12.6479 15.9557 12.4198 16.0456C12.1917 16.1355 11.9838 16.2701 11.8085 16.4415C11.6331 16.6128 11.4938 16.8175 11.3986 17.0435C11.3035 17.2694 11.2545 17.5121 11.2545 17.7573C11.2545 18.0025 11.3035 18.2452 11.3986 18.4712C11.4938 18.6971 11.6331 18.9018 11.8085 19.0732C11.9838 19.2445 12.1917 19.3791 12.4198 19.469C12.6479 19.5589 12.8916 19.6023 13.1367 19.5967V19.6006Z" fill="#E7CB75"/>
<path d="M23.9814 15.918C22.9658 15.918 18.8506 16.7412 18.8506 17.7568C18.8506 18.7725 22.9658 19.5967 23.9814 19.5967C24.4619 19.5856 24.919 19.387 25.2549 19.0432C25.5908 18.6995 25.7789 18.2379 25.7789 17.7573C25.7789 17.2767 25.5908 16.8152 25.2549 16.4714C24.919 16.1277 24.4619 15.929 23.9814 15.918Z" fill="#E7CB75"/>
<path d="M20.334 17.8574C20.3339 18.2369 20.2164 18.6071 19.9977 18.9173C19.779 19.2274 19.4697 19.4623 19.1123 19.5898C18.9138 19.6616 18.7042 19.6979 18.4932 19.6973C18.0049 19.6973 17.5367 19.5033 17.1915 19.1581C16.8463 18.8129 16.6523 18.3447 16.6523 17.8565C16.6523 17.3682 16.8463 16.9 17.1915 16.5548C17.5367 16.2096 18.0049 16.0156 18.4932 16.0156C18.7042 16.015 18.9138 16.0513 19.1123 16.1231C19.4701 16.2507 19.7795 16.4859 19.9983 16.7964C20.217 17.107 20.3343 17.4776 20.334 17.8574Z" fill="#AE7733"/>
<path d="M20.334 17.8574C20.3339 18.2369 20.2164 18.6071 19.9977 18.9173C19.779 19.2274 19.4697 19.4623 19.1123 19.5898C18.7549 19.4621 18.4457 19.2269 18.2271 18.9166C18.0085 18.6063 17.8911 18.236 17.8911 17.8564C17.8911 17.4769 18.0085 17.1066 18.2271 16.7963C18.4457 16.486 18.7549 16.2508 19.1123 16.123C19.4701 16.2507 19.7795 16.4859 19.9983 16.7964C20.217 17.107 20.3343 17.4776 20.334 17.8574Z" fill="#C38634"/>
</g>
<defs>
<clipPath id="clip0_1_579">
<rect width="50" height="50" fill="white"/>
</clipPath>
</defs>
</svg>
