<svg width="27" height="74" viewBox="0 0 27 74" fill="none" xmlns="http://www.w3.org/2000/svg">
<g clip-path="url(#clip0_1_986)" filter="url(#filter0_d_1_986)">
<path d="M37 62C50.8071 62 62 50.8071 62 37C62 23.1929 50.8071 12 37 12C23.1929 12 12 23.1929 12 37C12 50.8071 23.1929 62 37 62Z" fill="#524896"/>
<path d="M56.7081 52.3818C56.5323 52.6077 56.3523 52.8304 56.1681 53.0498C56.0773 53.1582 55.9855 53.2666 55.8917 53.373V54.8955C55.8917 55.4987 55.6521 56.0772 55.2256 56.5038C54.799 56.9303 54.2205 57.1699 53.6173 57.1699H51.7726L51.6906 57.2305C47.4233 60.3378 42.2788 62.008 37.0001 62C36.2697 62 35.547 61.9691 34.8322 61.9072L34.7345 61.8994C30.2101 61.4958 25.8828 59.8601 22.2228 57.1699C20.3657 55.8086 18.7047 54.1985 17.2863 52.3848L56.7081 52.3818Z" fill="#562020"/>
<path d="M33.7932 23.1191C33.6921 23.1193 33.5921 23.0995 33.4987 23.0609C33.4054 23.0224 33.3205 22.9658 33.2491 22.8944C33.1776 22.823 33.1209 22.7382 33.0822 22.6449C33.0435 22.5516 33.0236 22.4516 33.0236 22.3506V18.4375C33.0236 16.4121 31.4289 14.707 29.4035 14.6592C28.9088 14.6475 28.4168 14.7348 27.9564 14.916C27.496 15.0973 27.0764 15.3688 26.7225 15.7145C26.3685 16.0603 26.0873 16.4734 25.8953 16.9294C25.7034 17.3855 25.6045 17.8753 25.6047 18.3701V22.3516C25.6047 22.4526 25.5848 22.5526 25.5461 22.6459C25.5074 22.7392 25.4507 22.824 25.3792 22.8954C25.3078 22.9667 25.2229 23.0233 25.1296 23.0619C25.0362 23.1005 24.9362 23.1203 24.8351 23.1201C24.7341 23.1203 24.6341 23.1005 24.5407 23.0619C24.4474 23.0233 24.3625 22.9667 24.2911 22.8954C24.2196 22.824 24.1629 22.7392 24.1242 22.6459C24.0855 22.5526 24.0656 22.4526 24.0656 22.3516V18.4561C24.0656 15.582 26.339 13.1748 29.2131 13.1211C29.9101 13.1089 30.6027 13.2356 31.2503 13.4937C31.8979 13.7519 32.4877 14.1363 32.9852 14.6247C33.4827 15.1131 33.8781 15.6956 34.1483 16.3383C34.4184 16.981 34.558 17.671 34.5588 18.3682V22.3516C34.5585 22.5547 34.4778 22.7495 34.3344 22.8934C34.1909 23.0372 33.9963 23.1184 33.7932 23.1191Z" fill="#CDCCCC"/>
<path d="M22.4787 18.0938H48.0676V57.1699H22.4787V18.0938Z" fill="#CF4849"/>
<path d="M25.1858 18.0938H29.6985V57.1699H25.1858V18.0938Z" fill="#DD9095"/>
<path d="M22.4786 18.0938V57.1699H22.2277C20.3706 55.8087 18.7096 54.1985 17.2911 52.3848V18.9141C17.2911 18.6965 17.3776 18.4879 17.5314 18.334C17.6852 18.1802 17.8939 18.0938 18.1115 18.0938H22.4786Z" fill="#962E2E"/>
<path d="M22.4786 57.17H22.2277C21.2781 56.4737 20.3788 55.7114 19.5363 54.8888L19.6271 54.797C19.6606 54.7629 19.7006 54.7358 19.7447 54.7174C19.7888 54.6989 19.8361 54.6894 19.8839 54.6894C19.9317 54.6894 19.979 54.6989 20.0231 54.7174C20.0672 54.7358 20.1072 54.7629 20.1407 54.797L22.4786 57.17Z" fill="#812A30"/>
<path d="M31.3985 23.626C31.3985 20.5469 28.8595 19.6338 27.6388 19.373C27.2295 19.2401 26.7889 19.2387 26.3787 19.3689C25.9686 19.4991 25.6095 19.7545 25.3518 20.0991C25.0942 20.4438 24.9509 20.8605 24.9421 21.2907C24.9333 21.721 25.0595 22.1431 25.3028 22.498C25.471 22.7502 25.56 23.0469 25.5584 23.35C25.5568 23.6531 25.4648 23.9488 25.294 24.1992C25.0644 24.5402 24.9426 24.9424 24.9444 25.3535C24.9444 26.5059 25.9405 27.4209 27.0929 27.4043C31.5391 27.3574 31.3985 23.626 31.3985 23.626Z" fill="#5272B4"/>
<path d="M31.131 23.5518C31.131 21.2735 29.2492 20.5987 28.3498 20.4053C28.0473 20.3077 27.722 20.3071 27.4192 20.4035C27.1164 20.4999 26.8513 20.6885 26.661 20.943C26.4707 21.1975 26.3646 21.505 26.3577 21.8227C26.3507 22.1404 26.4432 22.4523 26.6222 22.7149C26.7467 22.9015 26.8126 23.121 26.8113 23.3453C26.8101 23.5696 26.7419 23.7884 26.6154 23.9737C26.446 24.226 26.3562 24.5233 26.3576 24.8272C26.3576 25.6797 27.0939 26.3565 27.9464 26.3467C31.2384 26.3115 31.131 23.5518 31.131 23.5518Z" fill="#415CA5"/>
</g>
<defs>
<filter id="filter0_d_1_986" x="0" y="0" width="74" height="74" filterUnits="userSpaceOnUse" color-interpolation-filters="sRGB">
<feFlood flood-opacity="0" result="BackgroundImageFix"/>
<feColorMatrix in="SourceAlpha" type="matrix" values="0 0 0 0 0 0 0 0 0 0 0 0 0 0 0 0 0 0 127 0" result="hardAlpha"/>
<feOffset/>
<feGaussianBlur stdDeviation="6"/>
<feColorMatrix type="matrix" values="0 0 0 0 0 0 0 0 0 0.22 0 0 0 0 1 0 0 0 0.3 0"/>
<feBlend mode="normal" in2="BackgroundImageFix" result="effect1_dropShadow_1_986"/>
<feBlend mode="normal" in="SourceGraphic" in2="effect1_dropShadow_1_986" result="shape"/>
</filter>
<clipPath id="clip0_1_986">
<rect width="50" height="50" fill="white" transform="translate(12 12)"/>
</clipPath>
</defs>
</svg>
