<svg width="50" height="50" viewBox="0 0 50 50" fill="none" xmlns="http://www.w3.org/2000/svg">
<g clip-path="url(#clip0_1_882)">
<path d="M25 50C38.8071 50 50 38.8071 50 25C50 11.1929 38.8071 0 25 0C11.1929 0 0 11.1929 0 25C0 38.8071 11.1929 50 25 50Z" fill="#1B3193"/>
<path d="M50 25C50.0025 27.5571 49.6122 30.0995 48.8427 32.5381C46.943 32.7857 45.0209 32.8113 43.1152 32.6143C42.9755 32.5996 42.8359 32.584 42.6963 32.5664C42.2451 32.5124 41.7975 32.4456 41.3535 32.3662C39.8055 32.0922 38.2882 31.6669 36.8232 31.0967C36.7187 31.0566 36.6142 31.0146 36.5097 30.9727C36.3427 30.9053 36.1777 30.8359 36.0127 30.7646C35.9189 30.7249 35.8252 30.6839 35.7314 30.6416L35.4384 30.5078L35.1679 30.3809L34.9365 30.2686C32.9601 29.2987 31.1241 28.0659 29.4785 26.6035C29.2089 26.3646 28.9449 26.1191 28.6865 25.8672C28.3844 25.5749 28.0914 25.2751 27.8076 24.9678C27.6962 24.8477 27.5869 24.7275 27.4785 24.6055C26.9248 23.9841 26.4033 23.3348 25.916 22.6602C24.1341 20.2035 22.8293 17.4342 22.0693 14.4961C21.8527 13.6613 21.6815 12.8153 21.5566 11.9619C20.9639 7.97123 21.3654 3.89594 22.7255 0.0976562C23.4742 0.0325521 24.2324 0 24.9999 0C38.8066 0 50 11.1934 50 25Z" fill="#2C5DFF"/>
<path d="M47.2774 24.9658C46.8059 27.4116 45.6111 29.6597 43.8477 31.4189L42.8984 32.3661L42.6602 32.6044L30.1602 45.1044C29.4807 45.7845 28.6738 46.324 27.7858 46.6921C26.8977 47.0602 25.9457 47.2497 24.9844 47.2497C24.023 47.2497 23.0711 47.0602 22.183 46.6921C21.2949 46.324 20.4881 45.7845 19.8086 45.1044L7.3086 32.6044L7.07032 32.3661L6.1211 31.4189C4.35694 29.6599 3.16147 27.4119 2.68946 24.9658C2.53827 24.1802 2.46209 23.382 2.46192 22.582C2.45964 20.1095 3.19117 17.6919 4.56387 15.6355C5.93657 13.579 7.88869 11.9762 10.173 11.0301C12.4573 10.0839 14.971 9.83689 17.3958 10.3204C19.8205 10.8039 22.0473 11.9961 23.794 13.746C24.1091 14.0607 24.5362 14.2374 24.9815 14.2374C25.4267 14.2374 25.8538 14.0607 26.169 13.746C28.0618 11.8541 30.5118 10.6195 33.1587 10.2241C35.8056 9.82861 38.5095 10.2931 40.8727 11.5492C43.2358 12.8053 45.1335 14.7866 46.2864 17.2018C47.4393 19.617 47.7867 22.3384 47.2774 24.9658Z" fill="#DD9EC1"/>
<path d="M28.6856 11.8008V46.2422C27.5631 46.8993 26.286 47.2456 24.9854 47.2456C23.6847 47.2456 22.4076 46.8993 21.2852 46.2422V11.8008C22.2024 12.3393 23.0468 12.993 23.7979 13.7461C24.113 14.0607 24.5401 14.2374 24.9854 14.2374C25.4307 14.2374 25.8577 14.0607 26.1729 13.7461C26.9241 12.9932 27.7685 12.3395 28.6856 11.8008Z" fill="#CF4849"/>
<path d="M47.2773 24.9658C46.8059 27.4117 45.6111 29.6597 43.8477 31.4189L42.8984 32.3662H7.07422L6.125 31.4189C4.36084 29.66 3.16537 27.4119 2.69336 24.9658H47.2773Z" fill="#CF4849"/>
<path d="M30.7705 44.4922L30.1602 45.1026C29.4807 45.7826 28.6738 46.3221 27.7857 46.6902C26.8977 47.0583 25.9457 47.2478 24.9844 47.2478C24.023 47.2478 23.0711 47.0583 22.183 46.6902C21.2949 46.3221 20.4881 45.7826 19.8086 45.1026L7.30859 32.6026L7.07031 32.3643L6.12109 31.417C4.35694 29.6581 3.16146 27.41 2.68945 24.9639C2.53827 24.1783 2.46208 23.3801 2.46191 22.5801C2.46254 20.4315 3.01697 18.3194 4.0717 16.4475C5.12644 14.5756 6.64586 13.0072 8.48333 11.8937C10.3208 10.7801 12.4143 10.1589 14.5618 10.0901C16.7092 10.0214 18.8382 10.5073 20.7432 11.501C18.7198 12.5593 17.0247 14.1512 15.8415 16.1042C14.6584 18.0571 14.0323 20.2967 14.0312 22.5801C14.0314 23.3801 14.1076 24.1783 14.2588 24.9639C14.7316 27.4099 15.9273 29.6579 17.6914 31.417L18.6396 32.3643L18.8789 32.6026L30.7705 44.4922Z" fill="#E13FA0"/>
<path d="M28.6856 42.4082V46.2422C27.5631 46.8993 26.286 47.2456 24.9854 47.2456C23.6847 47.2456 22.4076 46.8993 21.2852 46.2422V35.0117L28.6856 42.4082Z" fill="#A23D43"/>
<path d="M18.6436 32.3662H7.07422L6.125 31.4189C4.36084 29.66 3.16537 27.4119 2.69336 24.9658H14.2627C14.7355 27.4119 15.9312 29.6598 17.6953 31.4189L18.6436 32.3662Z" fill="#821A21"/>
<path d="M36.0137 28.1445C36.0137 24.0478 32.6309 22.833 31.0137 22.4863C30.4698 22.3109 29.8847 22.3097 29.3401 22.483C28.7956 22.6563 28.3188 22.9955 27.9764 23.453C27.6339 23.9105 27.443 24.4636 27.4303 25.0349C27.4175 25.6063 27.5836 26.1673 27.9053 26.6396C28.1291 26.9752 28.2476 27.3698 28.2457 27.7731C28.2438 28.1764 28.1215 28.5699 27.8945 28.9033C27.5895 29.3567 27.4272 29.891 27.4287 30.4375C27.4287 31.9717 28.7539 33.1885 30.2871 33.1719C36.2021 33.1055 36.0137 28.1445 36.0137 28.1445Z" fill="#AC3030"/>
<path d="M35.6582 28.045C35.6582 25.0176 33.1553 24.1163 31.959 23.8604C31.6874 23.7723 31.4001 23.743 31.1163 23.7745C30.7681 23.8122 30.4356 23.9395 30.1513 24.144C29.8669 24.3485 29.6404 24.6231 29.4937 24.9412C29.3471 25.2592 29.2854 25.6098 29.3145 25.9589C29.3437 26.3079 29.4628 26.6434 29.6602 26.9327C29.8256 27.1808 29.9133 27.4726 29.9119 27.7708C29.9105 28.069 29.8201 28.36 29.6524 28.6065C29.4262 28.9416 29.3061 29.337 29.3077 29.7413C29.3077 30.876 30.2842 31.7764 31.4219 31.7637C35.7969 31.7168 35.6582 28.045 35.6582 28.045Z" fill="#8F2F2F"/>
<path d="M35.6592 28.1446C35.6592 24.0479 39.0421 22.8331 40.6602 22.4864C41.2041 22.3106 41.7894 22.3092 42.3341 22.4824C42.8788 22.6557 43.3557 22.9949 43.6982 23.4526C44.0406 23.9102 44.2314 24.4635 44.2438 25.035C44.2563 25.6065 44.0898 26.1675 43.7676 26.6397C43.5432 26.9756 43.4244 27.3709 43.4265 27.7748C43.4286 28.1787 43.5515 28.5728 43.7794 28.9063C44.0841 29.3598 44.246 29.8941 44.2442 30.4405C44.2442 31.9746 42.919 33.1914 41.3858 33.1748C35.4708 33.1055 35.6592 28.1446 35.6592 28.1446Z" fill="#AC3030"/>
<path d="M36.0147 28.045C36.0147 25.0176 38.5176 24.1163 39.7139 23.8604C39.9855 23.7723 40.2728 23.743 40.5567 23.7745C40.9048 23.8122 41.2373 23.9395 41.5217 24.144C41.806 24.3485 42.0325 24.6231 42.1792 24.9412C42.3258 25.2592 42.3875 25.6098 42.3584 25.9589C42.3292 26.3079 42.2101 26.6434 42.0127 26.9327C41.8473 27.1808 41.7596 27.4726 41.761 27.7708C41.7624 28.069 41.8528 28.36 42.0205 28.6065C42.2467 28.9416 42.3669 29.337 42.3652 29.7413C42.3652 30.876 41.3887 31.7764 40.251 31.7637C35.876 31.7168 36.0147 28.045 36.0147 28.045Z" fill="#8F2F2F"/>
<path d="M36.0147 28.045L30.8594 42.2471C30.8457 42.2849 30.8441 42.3261 30.8547 42.3649C30.8653 42.4037 30.8876 42.4382 30.9186 42.4639C30.9495 42.4895 30.9877 42.505 31.0278 42.5081C31.0679 42.5113 31.108 42.502 31.1426 42.4815L32.3789 41.7481C32.6399 41.5933 32.9503 41.5442 33.2463 41.611C33.5423 41.6779 33.8015 41.8555 33.9707 42.1075L34.1113 42.3165C34.1337 42.3498 34.1657 42.3754 34.2031 42.3899C34.2405 42.4043 34.2814 42.407 34.3203 42.3974C34.3593 42.3878 34.3943 42.3664 34.4207 42.3362C34.4471 42.306 34.4635 42.2684 34.4678 42.2286L36.0147 28.045Z" fill="#8F2F2F"/>
<path d="M35.7158 28.045L40.8721 42.2471C40.8857 42.2849 40.8873 42.3261 40.8768 42.3649C40.8662 42.4037 40.8438 42.4382 40.8129 42.4639C40.7819 42.4895 40.7437 42.505 40.7036 42.5081C40.6636 42.5113 40.6235 42.502 40.5889 42.4815L39.3555 41.7481C39.0943 41.5932 38.7838 41.5441 38.4876 41.611C38.1914 41.6778 37.932 41.8554 37.7627 42.1075L37.623 42.3165C37.6007 42.3498 37.5687 42.3754 37.5313 42.3899C37.4939 42.4043 37.453 42.407 37.414 42.3974C37.3751 42.3878 37.3401 42.3664 37.3137 42.3362C37.2873 42.306 37.2709 42.2684 37.2666 42.2286L35.7158 28.045Z" fill="#8F2F2F"/>
<path d="M38.3008 28.1445C38.2884 28.7428 38.0421 29.3124 37.6146 29.7311C37.1871 30.1499 36.6126 30.3844 36.0142 30.3844C35.4158 30.3844 34.8412 30.1499 34.4137 29.7311C33.9863 29.3124 33.7399 28.7428 33.7276 28.1445C33.7266 27.8781 33.7729 27.6136 33.8643 27.3633C34.0247 26.9223 34.3169 26.5414 34.7012 26.2722C35.0856 26.003 35.5435 25.8586 36.0127 25.8586C36.482 25.8586 36.9398 26.003 37.3242 26.2722C37.7086 26.5414 38.0008 26.9223 38.1612 27.3633C38.2535 27.6134 38.3008 27.8779 38.3008 28.1445Z" fill="#AC3030"/>
<path d="M38.1641 27.3662C38.0037 27.8071 37.7115 28.1881 37.3271 28.4573C36.9428 28.7265 36.4849 28.8709 36.0156 28.8709C35.5464 28.8709 35.0885 28.7265 34.7041 28.4573C34.3198 28.1881 34.0276 27.8071 33.8672 27.3662C34.0276 26.9252 34.3198 26.5442 34.7041 26.275C35.0885 26.0058 35.5464 25.8615 36.0156 25.8615C36.4849 25.8615 36.9428 26.0058 37.3271 26.275C37.7115 26.5442 38.0037 26.9252 38.1641 27.3662Z" fill="#CF4849"/>
</g>
<defs>
<clipPath id="clip0_1_882">
<rect width="50" height="50" fill="white"/>
</clipPath>
</defs>
</svg>
