<svg width="14" height="14" viewBox="0 0 14 14" fill="none" xmlns="http://www.w3.org/2000/svg">
<path d="M3.24872 14C3.05098 14 2.86197 13.9357 2.70192 13.814C2.37535 13.5659 2.23966 13.13 2.36418 12.7289L3.58875 8.79362L0.383449 6.36196C0.0565476 6.11355 -0.0787807 5.67724 0.0457392 5.27659C0.170616 4.87501 0.526013 4.60548 0.929854 4.60548H4.89156L6.11577 0.670826C6.24091 0.269524 6.59622 0 6.99997 0C7.40405 0 7.75939 0.269711 7.88397 0.670826L9.10871 4.60548H13.0702C13.4741 4.60548 13.8294 4.87519 13.9542 5.27622C14.079 5.67724 13.9431 6.1134 13.617 6.36159L10.4116 8.79362L11.6358 12.7286C11.7606 13.13 11.6249 13.5657 11.2984 13.814C10.9789 14.0568 10.5246 14.0568 10.2052 13.814L7.00015 11.3825L3.79494 13.8144C3.63514 13.9357 3.44621 14 3.24872 14ZM0.929854 5.43769C0.872209 5.43769 0.821174 5.47631 0.803577 5.53371C0.785712 5.59086 0.805155 5.65336 0.851813 5.68874L4.52542 8.47581L3.12223 12.986C3.10454 13.0432 3.1239 13.1057 3.1707 13.1411C3.22835 13.1851 3.26908 13.1851 3.32664 13.1411L7.00015 10.3536L10.6735 13.141C10.7311 13.1847 10.7724 13.1847 10.8298 13.1412C10.8764 13.1057 10.8961 13.0432 10.878 12.9857L9.47462 8.47584L13.1485 5.68859C13.1951 5.6532 13.2143 5.59073 13.1967 5.53355C13.1787 5.47631 13.1279 5.43769 13.0704 5.43769H8.52952L7.12652 0.928006C7.09079 0.813237 6.90952 0.813237 6.87361 0.928006L5.47066 5.43769H0.929854Z" fill="url(#paint0_linear_1_343)"/>
<path d="M0.929854 5.43769C0.872209 5.43769 0.821174 5.47631 0.803577 5.53371C0.785712 5.59086 0.805155 5.65336 0.851813 5.68874L4.52542 8.47581L3.12223 12.986C3.10454 13.0432 3.1239 13.1057 3.1707 13.1411C3.22835 13.1851 3.26908 13.1851 3.32664 13.1411L7.00015 10.3536L10.6735 13.141C10.7311 13.1847 10.7724 13.1847 10.8298 13.1412C10.8764 13.1057 10.8961 13.0432 10.878 12.9857L9.47462 8.47584L13.1485 5.68859C13.1951 5.6532 13.2143 5.59073 13.1967 5.53355C13.1787 5.47631 13.1279 5.43769 13.0704 5.43769H8.52952L7.12652 0.928006C7.09079 0.813237 6.90952 0.813237 6.87361 0.928006L5.47066 5.43769H0.929854Z" fill="url(#paint1_linear_1_343)"/>
<defs>
<linearGradient id="paint0_linear_1_343" x1="14.0005" y1="13.9996" x2="0.000501806" y2="-0.000344928" gradientUnits="userSpaceOnUse">
<stop stop-color="#FD3A84"/>
<stop offset="1" stop-color="#FFA68D"/>
</linearGradient>
<linearGradient id="paint1_linear_1_343" x1="14.0005" y1="13.9996" x2="0.000501806" y2="-0.000344928" gradientUnits="userSpaceOnUse">
<stop stop-color="#FD3A84"/>
<stop offset="1" stop-color="#FFA68D"/>
</linearGradient>
</defs>
</svg>
